<svg width="64" height="64" viewBox="0 0 64 64" fill="none" xmlns="http://www.w3.org/2000/svg">
<g clip-path="url(#clip0_4411_1842)">
<path opacity="0.1" d="M64 0H0V64H64V0Z" fill="#FB6238"/>
<path d="M47.2017 24.2393L46.4601 23.5483C45.759 22.8956 45.5025 21.8934 45.8035 20.9822L46.1227 20.0183C46.5774 18.6464 45.7529 17.1815 44.3446 16.8582L43.3566 16.6299C42.4231 16.4136 41.6997 15.6761 41.5057 14.7366L41.2997 13.7444C41.0067 12.33 39.5599 11.4733 38.1799 11.8957L37.21 12.1927C36.2926 12.4735 35.2985 12.1947 34.66 11.4794L33.9851 10.7217C33.0233 9.64271 31.3443 9.62456 30.3583 10.6813L29.6672 11.4228C29.0146 12.124 28.0124 12.3806 27.1011 12.0796L26.1372 11.7603C24.7653 11.3057 23.3004 12.13 22.9771 13.5384L22.7487 14.5264C22.5326 15.4599 21.7931 16.1833 20.8555 16.3773L19.8614 16.5854C18.447 16.8784 17.5903 18.3251 18.0125 19.7052L18.3096 20.675C18.5905 21.5923 18.3116 22.5865 17.5963 23.225L16.8386 23.8998C15.7596 24.8616 15.7414 26.5407 16.7982 27.5268L17.5397 28.2178C18.2409 28.8705 18.4975 29.8727 18.1964 30.7839L17.8771 31.7477C17.4225 33.1197 18.2469 34.5846 19.6553 34.9079L20.6434 35.1362C21.5769 35.3525 22.3002 36.092 22.4942 37.0295L22.7003 38.0217C22.9933 39.4361 24.44 40.2928 25.8201 39.8704L26.7899 39.5734C27.7073 39.2926 28.7013 39.5714 29.3398 40.2867L30.0148 41.0444C30.9765 42.1234 32.6556 42.1415 33.6417 41.0848L34.3327 40.3433C34.9853 39.6421 35.9876 39.3855 36.8988 39.6865L37.8626 40.0058C39.2346 40.4604 40.6996 39.6361 41.0228 38.2277L41.2511 37.2397C41.4673 36.3062 42.2069 35.5828 43.1444 35.3888L44.1385 35.1827C45.5529 34.8897 46.4097 33.443 45.9874 32.063L45.6904 31.0931C45.4095 30.1758 45.6883 29.1816 46.4036 28.5431L47.1613 27.8683C48.2403 26.9045 48.2585 25.2234 47.2017 24.2393ZM31.8009 35.9849C26.2222 35.9222 21.7486 31.3477 21.8112 25.7689C21.8739 20.1901 26.4485 15.7165 32.0273 15.7792C37.606 15.8418 42.0796 20.4164 42.0169 25.9952C41.9543 31.5739 37.3797 36.0476 31.8009 35.9849Z" fill="#FB6238"/>
<path opacity="0.35" d="M31.9144 35.9831C37.494 35.9831 42.0172 31.4599 42.0172 25.8803C42.0172 20.3006 37.494 15.7773 31.9144 15.7773C26.3347 15.7773 21.8115 20.3006 21.8115 25.8803C21.8115 31.4599 26.3347 35.9831 31.9144 35.9831Z" fill="#FB6238"/>
<path opacity="0.35" d="M41.1182 32.0463C39.5179 35.5944 35.9414 38.0514 31.8013 38.0049C27.6612 37.9585 24.1393 35.4206 22.6198 31.8381L21.949 31.8301L21.7247 51.8721C21.7066 53.5654 23.6544 54.5292 24.99 53.4866L28.0491 51.0942C30.2818 49.3484 33.4279 49.3827 35.6223 51.1791L38.6268 53.6381C39.9382 54.711 41.9083 53.7916 41.9264 52.0963L42.1507 32.0543L41.1182 32.0463Z" fill="#FB6238"/>
</g>
<defs>
<clipPath id="clip0_4411_1842">
<rect width="64" height="64" rx="8" fill="white"/>
</clipPath>
</defs>
</svg>
