<svg width="86" height="86" viewBox="0 0 86 86" fill="none" xmlns="http://www.w3.org/2000/svg">
<rect width="86" height="86" rx="8" fill="#FFF4EF"/>
<path fill-rule="evenodd" clip-rule="evenodd" d="M43 25C38.9277 25 38.5427 32.093 36.1182 34.5991C33.6938 37.1053 26.1564 34.2398 25.1092 38.6881C24.0641 43.1385 30.8447 44.6486 31.6807 48.4669C32.5211 52.2851 28.3784 57.6498 31.9183 60.3197C35.4582 62.9873 39.2687 56.9494 43 56.9494C46.7313 56.9494 50.5418 62.9873 54.0816 60.3197C57.6215 57.6498 53.481 52.2851 54.3192 48.4669C55.1575 44.6486 61.9358 43.1385 60.8908 38.6881C59.8458 34.2398 52.3062 37.1053 49.8839 34.5991C47.4595 32.093 47.0723 25 43 25Z" stroke="#FA9552" stroke-width="2.5" stroke-linecap="round" stroke-linejoin="round"/>
</svg>
