<svg width="406" height="154" viewBox="0 0 406 154" fill="none" xmlns="http://www.w3.org/2000/svg">
<g filter="url(#filter0_d_4411_1596)">
<rect x="18" y="14" width="370" height="118" rx="8" fill="white"/>
</g>
<rect x="34" y="30" width="86" height="86" rx="8" fill="#E9F8FF"/>
<path d="M81.6105 79.9001H70.8105" stroke="#429CE4" stroke-width="2.5" stroke-linecap="round" stroke-linejoin="round"/>
<path d="M77.5206 71.8767H70.8086" stroke="#429CE4" stroke-width="2.5" stroke-linecap="round" stroke-linejoin="round"/>
<path fill-rule="evenodd" clip-rule="evenodd" d="M93.3198 65.5998L81.9798 54.7998C80.5198 54.5998 78.8798 54.4998 77.0798 54.4998C64.4998 54.4998 60.2998 59.1398 60.2998 72.9998C60.2998 86.8798 64.4998 91.4998 77.0798 91.4998C89.6798 91.4998 93.8798 86.8798 93.8798 72.9998C93.8798 70.1598 93.6998 67.6998 93.3198 65.5998Z" stroke="#429CE4" stroke-width="2.5" stroke-linecap="round" stroke-linejoin="round"/>
<path d="M80.8682 54.6658V59.9878C80.8682 63.7038 83.8802 66.7138 87.5962 66.7138H93.4982" stroke="#429CE4" stroke-width="2.5" stroke-linecap="round" stroke-linejoin="round"/>
<path d="M139.303 50H136.49L141.611 35.4545H144.864L149.991 50H147.179L143.294 38.4375H143.18L139.303 50ZM139.395 44.2969H147.065V46.4134H139.395V44.2969ZM160.24 41.9744L157.896 42.2301C157.83 41.9934 157.714 41.7708 157.548 41.5625C157.387 41.3542 157.17 41.1861 156.895 41.0582C156.62 40.9304 156.284 40.8665 155.886 40.8665C155.351 40.8665 154.902 40.9825 154.537 41.2145C154.177 41.4465 154 41.7472 154.004 42.1165C154 42.4337 154.116 42.6918 154.352 42.8906C154.594 43.0895 154.991 43.2528 155.545 43.3807L157.406 43.7784C158.438 44.0009 159.205 44.3537 159.707 44.8366C160.214 45.3196 160.47 45.9517 160.474 46.733C160.47 47.4195 160.268 48.0256 159.871 48.5511C159.478 49.072 158.931 49.4792 158.23 49.7727C157.529 50.0663 156.724 50.2131 155.815 50.2131C154.48 50.2131 153.405 49.9337 152.591 49.375C151.777 48.8116 151.291 48.0279 151.135 47.0241L153.642 46.7827C153.756 47.2751 153.997 47.6468 154.366 47.8977C154.736 48.1487 155.216 48.2741 155.808 48.2741C156.419 48.2741 156.909 48.1487 157.278 47.8977C157.652 47.6468 157.839 47.3366 157.839 46.9673C157.839 46.6548 157.719 46.3968 157.477 46.1932C157.241 45.9896 156.871 45.8333 156.369 45.7244L154.509 45.3338C153.462 45.116 152.688 44.7491 152.186 44.233C151.684 43.7121 151.436 43.054 151.44 42.2585C151.436 41.5862 151.618 41.0038 151.987 40.5114C152.361 40.0142 152.88 39.6307 153.543 39.3608C154.21 39.0862 154.98 38.9489 155.851 38.9489C157.129 38.9489 158.135 39.2211 158.869 39.7656C159.608 40.3101 160.065 41.0464 160.24 41.9744ZM171.217 41.9744L168.873 42.2301C168.807 41.9934 168.691 41.7708 168.525 41.5625C168.364 41.3542 168.146 41.1861 167.871 41.0582C167.597 40.9304 167.261 40.8665 166.863 40.8665C166.328 40.8665 165.878 40.9825 165.513 41.2145C165.154 41.4465 164.976 41.7472 164.981 42.1165C164.976 42.4337 165.092 42.6918 165.329 42.8906C165.57 43.0895 165.968 43.2528 166.522 43.3807L168.383 43.7784C169.415 44.0009 170.182 44.3537 170.684 44.8366C171.191 45.3196 171.446 45.9517 171.451 46.733C171.446 47.4195 171.245 48.0256 170.847 48.5511C170.454 49.072 169.907 49.4792 169.207 49.7727C168.506 50.0663 167.701 50.2131 166.792 50.2131C165.457 50.2131 164.382 49.9337 163.567 49.375C162.753 48.8116 162.268 48.0279 162.112 47.0241L164.619 46.7827C164.732 47.2751 164.974 47.6468 165.343 47.8977C165.712 48.1487 166.193 48.2741 166.785 48.2741C167.396 48.2741 167.886 48.1487 168.255 47.8977C168.629 47.6468 168.816 47.3366 168.816 46.9673C168.816 46.6548 168.695 46.3968 168.454 46.1932C168.217 45.9896 167.848 45.8333 167.346 45.7244L165.485 45.3338C164.439 45.116 163.665 44.7491 163.163 44.233C162.661 43.7121 162.412 43.054 162.417 42.2585C162.412 41.5862 162.594 41.0038 162.964 40.5114C163.338 40.0142 163.856 39.6307 164.519 39.3608C165.187 39.0862 165.956 38.9489 166.827 38.9489C168.106 38.9489 169.112 39.2211 169.846 39.7656C170.585 40.3101 171.041 41.0464 171.217 41.9744ZM173.571 50V39.0909H176.142V50H173.571ZM174.864 37.5426C174.456 37.5426 174.106 37.4077 173.812 37.1378C173.519 36.8632 173.372 36.5341 173.372 36.1506C173.372 35.7623 173.519 35.4332 173.812 35.1634C174.106 34.8887 174.456 34.7514 174.864 34.7514C175.276 34.7514 175.626 34.8887 175.915 35.1634C176.208 35.4332 176.355 35.7623 176.355 36.1506C176.355 36.5341 176.208 36.8632 175.915 37.1378C175.626 37.4077 175.276 37.5426 174.864 37.5426ZM183.53 54.3182C182.607 54.3182 181.814 54.1927 181.151 53.9418C180.488 53.6955 179.955 53.3641 179.553 52.9474C179.15 52.5308 178.871 52.0691 178.715 51.5625L181.03 51.0014C181.134 51.2145 181.286 51.4252 181.485 51.6335C181.684 51.8466 181.951 52.0218 182.287 52.1591C182.628 52.3011 183.057 52.3722 183.573 52.3722C184.302 52.3722 184.906 52.1946 185.384 51.8395C185.862 51.4891 186.101 50.9115 186.101 50.1065V48.0398H185.973C185.841 48.3049 185.647 48.5772 185.391 48.8565C185.14 49.1359 184.806 49.3703 184.39 49.5597C183.978 49.7491 183.459 49.8438 182.834 49.8438C181.996 49.8438 181.236 49.6473 180.554 49.2543C179.877 48.8565 179.337 48.2647 178.935 47.4787C178.537 46.688 178.338 45.6984 178.338 44.5099C178.338 43.312 178.537 42.3011 178.935 41.4773C179.337 40.6487 179.88 40.0213 180.561 39.5952C181.243 39.1643 182.003 38.9489 182.841 38.9489C183.48 38.9489 184.006 39.0578 184.418 39.2756C184.835 39.4886 185.166 39.7467 185.412 40.0497C185.658 40.348 185.846 40.6297 185.973 40.8949H186.115V39.0909H188.651V50.1776C188.651 51.1103 188.428 51.8821 187.983 52.4929C187.538 53.1037 186.93 53.5606 186.158 53.8636C185.386 54.1667 184.51 54.3182 183.53 54.3182ZM183.551 47.8267C184.096 47.8267 184.56 47.6941 184.944 47.429C185.327 47.1638 185.618 46.7827 185.817 46.2855C186.016 45.7884 186.115 45.1918 186.115 44.4957C186.115 43.8092 186.016 43.2079 185.817 42.6918C185.623 42.1757 185.334 41.7756 184.951 41.4915C184.572 41.2027 184.105 41.0582 183.551 41.0582C182.979 41.0582 182.5 41.2074 182.117 41.5057C181.733 41.804 181.444 42.2135 181.25 42.7344C181.056 43.2505 180.959 43.8376 180.959 44.4957C180.959 45.1634 181.056 45.7481 181.25 46.25C181.449 46.7472 181.74 47.1354 182.124 47.4148C182.512 47.6894 182.988 47.8267 183.551 47.8267ZM193.857 43.608V50H191.286V39.0909H193.743V40.9446H193.871C194.122 40.3338 194.522 39.8485 195.071 39.4886C195.625 39.1288 196.31 38.9489 197.124 38.9489C197.877 38.9489 198.533 39.1098 199.091 39.4318C199.655 39.7538 200.09 40.2202 200.398 40.831C200.711 41.4418 200.864 42.1828 200.86 43.054V50H198.289V43.4517C198.289 42.7225 198.099 42.152 197.721 41.7401C197.346 41.3281 196.828 41.1222 196.165 41.1222C195.715 41.1222 195.315 41.2216 194.965 41.4205C194.619 41.6146 194.347 41.8963 194.148 42.2656C193.954 42.6349 193.857 43.0824 193.857 43.608ZM203.473 50V39.0909H205.931V40.9446H206.059C206.286 40.3196 206.662 39.8319 207.188 39.4815C207.713 39.1264 208.341 38.9489 209.07 38.9489C209.809 38.9489 210.431 39.1288 210.938 39.4886C211.449 39.8437 211.809 40.3291 212.017 40.9446H212.131C212.373 40.3385 212.78 39.8556 213.353 39.4957C213.93 39.1312 214.614 38.9489 215.405 38.9489C216.409 38.9489 217.228 39.2661 217.863 39.9006C218.497 40.535 218.814 41.4607 218.814 42.6776V50H216.236V43.0753C216.236 42.3982 216.056 41.9034 215.696 41.5909C215.337 41.2737 214.896 41.1151 214.375 41.1151C213.755 41.1151 213.27 41.3092 212.919 41.6974C212.574 42.081 212.401 42.5805 212.401 43.196V50H209.88V42.9688C209.88 42.4053 209.709 41.9555 209.368 41.6193C209.032 41.2831 208.592 41.1151 208.047 41.1151C207.678 41.1151 207.342 41.2098 207.039 41.3991C206.736 41.5838 206.494 41.8466 206.314 42.1875C206.134 42.5237 206.044 42.9167 206.044 43.3665V50H203.473ZM226.252 50.2131C225.158 50.2131 224.214 49.9858 223.418 49.5312C222.628 49.072 222.019 48.4233 221.593 47.5852C221.167 46.7424 220.954 45.7505 220.954 44.6094C220.954 43.4872 221.167 42.5024 221.593 41.6548C222.024 40.8026 222.625 40.1397 223.397 39.6662C224.169 39.188 225.076 38.9489 226.117 38.9489C226.79 38.9489 227.424 39.0578 228.021 39.2756C228.622 39.4886 229.152 39.8201 229.612 40.2699C230.076 40.7197 230.44 41.2926 230.705 41.9886C230.97 42.6799 231.103 43.5038 231.103 44.4602V45.2486H222.161V43.5156H228.638C228.634 43.0232 228.527 42.5852 228.319 42.2017C228.111 41.8134 227.819 41.508 227.445 41.2855C227.076 41.063 226.645 40.9517 226.153 40.9517C225.627 40.9517 225.165 41.0795 224.768 41.3352C224.37 41.5862 224.06 41.9176 223.837 42.3295C223.62 42.7367 223.508 43.1842 223.504 43.6719V45.1847C223.504 45.8191 223.62 46.3636 223.852 46.8182C224.084 47.268 224.408 47.6136 224.825 47.8551C225.241 48.0919 225.729 48.2102 226.288 48.2102C226.662 48.2102 227 48.1581 227.303 48.054C227.606 47.9451 227.869 47.7865 228.092 47.5781C228.314 47.3698 228.482 47.1117 228.596 46.804L230.996 47.0739C230.845 47.7083 230.556 48.2623 230.13 48.7358C229.709 49.2045 229.169 49.5691 228.511 49.8295C227.853 50.0852 227.1 50.2131 226.252 50.2131ZM235.849 43.608V50H233.278V39.0909H235.735V40.9446H235.863C236.114 40.3338 236.514 39.8485 237.064 39.4886C237.618 39.1288 238.302 38.9489 239.116 38.9489C239.869 38.9489 240.525 39.1098 241.083 39.4318C241.647 39.7538 242.083 40.2202 242.39 40.831C242.703 41.4418 242.857 42.1828 242.852 43.054V50H240.281V43.4517C240.281 42.7225 240.092 42.152 239.713 41.7401C239.339 41.3281 238.82 41.1222 238.157 41.1222C237.708 41.1222 237.307 41.2216 236.957 41.4205C236.611 41.6146 236.339 41.8963 236.14 42.2656C235.946 42.6349 235.849 43.0824 235.849 43.608ZM250.913 39.0909V41.0795H244.642V39.0909H250.913ZM246.19 36.4773H248.761V46.7188C248.761 47.0644 248.813 47.3295 248.917 47.5142C249.026 47.6941 249.168 47.8172 249.343 47.8835C249.519 47.9498 249.713 47.983 249.926 47.983C250.087 47.983 250.234 47.9711 250.366 47.9474C250.503 47.9238 250.608 47.9025 250.679 47.8835L251.112 49.8935C250.975 49.9408 250.778 49.9929 250.522 50.0497C250.271 50.1065 249.964 50.1397 249.599 50.1491C248.955 50.1681 248.375 50.071 247.859 49.858C247.343 49.6402 246.933 49.304 246.63 48.8494C246.332 48.3949 246.185 47.8267 246.19 47.1449V36.4773ZM261.529 41.9744L259.185 42.2301C259.119 41.9934 259.003 41.7708 258.837 41.5625C258.676 41.3542 258.459 41.1861 258.184 41.0582C257.909 40.9304 257.573 40.8665 257.175 40.8665C256.64 40.8665 256.191 40.9825 255.826 41.2145C255.466 41.4465 255.289 41.7472 255.293 42.1165C255.289 42.4337 255.405 42.6918 255.641 42.8906C255.883 43.0895 256.281 43.2528 256.835 43.3807L258.695 43.7784C259.728 44.0009 260.495 44.3537 260.996 44.8366C261.503 45.3196 261.759 45.9517 261.763 46.733C261.759 47.4195 261.558 48.0256 261.16 48.5511C260.767 49.072 260.22 49.4792 259.519 49.7727C258.818 50.0663 258.013 50.2131 257.104 50.2131C255.769 50.2131 254.694 49.9337 253.88 49.375C253.066 48.8116 252.58 48.0279 252.424 47.0241L254.931 46.7827C255.045 47.2751 255.286 47.6468 255.656 47.8977C256.025 48.1487 256.505 48.2741 257.097 48.2741C257.708 48.2741 258.198 48.1487 258.567 47.8977C258.942 47.6468 259.129 47.3366 259.129 46.9673C259.129 46.6548 259.008 46.3968 258.766 46.1932C258.53 45.9896 258.16 45.8333 257.658 45.7244L255.798 45.3338C254.751 45.116 253.977 44.7491 253.475 44.233C252.973 43.7121 252.725 43.054 252.729 42.2585C252.725 41.5862 252.907 41.0038 253.276 40.5114C253.65 40.0142 254.169 39.6307 254.832 39.3608C255.499 39.0862 256.269 38.9489 257.14 38.9489C258.418 38.9489 259.424 39.2211 260.158 39.7656C260.897 40.3101 261.354 41.0464 261.529 41.9744ZM273.191 50.2131C272.197 50.2131 271.342 50.0331 270.627 49.6733C269.912 49.3134 269.361 48.8281 268.972 48.2173C268.589 47.6018 268.397 46.9081 268.397 46.1364C268.397 45.554 268.515 45.0379 268.752 44.5881C268.994 44.1383 269.325 43.7216 269.746 43.3381C270.173 42.9545 270.665 42.5734 271.224 42.1946L273.802 40.4403C274.181 40.1941 274.467 39.9337 274.661 39.6591C274.86 39.3845 274.96 39.0625 274.96 38.6932C274.96 38.3807 274.827 38.0848 274.562 37.8054C274.301 37.526 273.942 37.3864 273.482 37.3864C273.174 37.3864 272.902 37.4598 272.665 37.6065C272.433 37.7486 272.251 37.9356 272.119 38.1676C271.991 38.3996 271.927 38.6458 271.927 38.9062C271.927 39.2235 272.014 39.5455 272.19 39.8722C272.37 40.1989 272.602 40.5374 272.886 40.8878C273.174 41.2382 273.482 41.6098 273.809 42.0028L280.634 50H277.85L272.183 43.5085C271.761 43.0161 271.354 42.5308 270.961 42.0526C270.573 41.5743 270.253 41.0772 270.002 40.5611C269.756 40.0402 269.633 39.4768 269.633 38.8707C269.633 38.1842 269.791 37.571 270.109 37.0312C270.426 36.4867 270.869 36.0582 271.437 35.7457C272.01 35.4332 272.68 35.277 273.447 35.277C274.214 35.277 274.872 35.4285 275.421 35.7315C275.97 36.0346 276.394 36.437 276.692 36.9389C276.991 37.4408 277.14 37.9877 277.14 38.5795C277.14 39.2661 276.969 39.8816 276.629 40.4261C276.288 40.9659 275.814 41.456 275.208 41.8963L272.268 44.0483C271.785 44.3987 271.439 44.7538 271.231 45.1136C271.022 45.4687 270.918 45.7718 270.918 46.0227C270.918 46.4062 271.015 46.7543 271.21 47.0668C271.404 47.3793 271.676 47.6302 272.026 47.8196C272.381 48.0043 272.796 48.0966 273.269 48.0966C273.79 48.0966 274.304 47.9806 274.81 47.7486C275.317 47.5118 275.779 47.1757 276.195 46.7401C276.612 46.3045 276.943 45.7836 277.19 45.1776C277.436 44.5668 277.559 43.8897 277.559 43.1463H279.768C279.768 44.0649 279.666 44.8651 279.462 45.5469C279.259 46.224 278.996 46.7969 278.674 47.2656C278.352 47.7296 278.011 48.1013 277.651 48.3807C277.538 48.4612 277.429 48.5417 277.325 48.6222C277.22 48.7027 277.112 48.7831 276.998 48.8636C276.487 49.3277 275.888 49.6686 275.201 49.8864C274.519 50.1042 273.849 50.2131 273.191 50.2131ZM137.435 61.4545H140.659L144.977 71.9943H145.148L149.466 61.4545H152.69V76H150.162V66.0071H150.027L146.007 75.9574H144.118L140.098 65.9858H139.963V76H137.435V61.4545ZM160.205 76.2131C159.139 76.2131 158.216 75.9787 157.435 75.5099C156.653 75.0412 156.047 74.3854 155.616 73.5426C155.19 72.6998 154.977 71.715 154.977 70.5881C154.977 69.4612 155.19 68.474 155.616 67.6264C156.047 66.7789 156.653 66.1207 157.435 65.652C158.216 65.1832 159.139 64.9489 160.205 64.9489C161.27 64.9489 162.193 65.1832 162.974 65.652C163.756 66.1207 164.359 66.7789 164.786 67.6264C165.216 68.474 165.432 69.4612 165.432 70.5881C165.432 71.715 165.216 72.6998 164.786 73.5426C164.359 74.3854 163.756 75.0412 162.974 75.5099C162.193 75.9787 161.27 76.2131 160.205 76.2131ZM160.219 74.1534C160.796 74.1534 161.279 73.9948 161.668 73.6776C162.056 73.3556 162.345 72.9247 162.534 72.3849C162.728 71.8452 162.825 71.2438 162.825 70.581C162.825 69.9134 162.728 69.3097 162.534 68.7699C162.345 68.2254 162.056 67.7921 161.668 67.4702C161.279 67.1482 160.796 66.9872 160.219 66.9872C159.627 66.9872 159.134 67.1482 158.741 67.4702C158.353 67.7921 158.062 68.2254 157.868 68.7699C157.679 69.3097 157.584 69.9134 157.584 70.581C157.584 71.2438 157.679 71.8452 157.868 72.3849C158.062 72.9247 158.353 73.3556 158.741 73.6776C159.134 73.9948 159.627 74.1534 160.219 74.1534ZM171.662 76.1918C170.805 76.1918 170.038 75.9716 169.361 75.5312C168.684 75.0909 168.149 74.4517 167.756 73.6136C167.363 72.7756 167.167 71.7576 167.167 70.5597C167.167 69.3475 167.365 68.3248 167.763 67.4915C168.166 66.6534 168.708 66.0213 169.39 65.5952C170.071 65.1643 170.831 64.9489 171.669 64.9489C172.309 64.9489 172.834 65.0578 173.246 65.2756C173.658 65.4886 173.985 65.7467 174.226 66.0497C174.468 66.348 174.655 66.6297 174.787 66.8949H174.894V61.4545H177.472V76H174.944V74.2812H174.787C174.655 74.5464 174.463 74.8281 174.212 75.1264C173.961 75.42 173.63 75.6709 173.218 75.8793C172.806 76.0876 172.287 76.1918 171.662 76.1918ZM172.38 74.0824C172.924 74.0824 173.388 73.9356 173.772 73.642C174.155 73.3437 174.446 72.9295 174.645 72.3991C174.844 71.8688 174.944 71.2509 174.944 70.5455C174.944 69.84 174.844 69.2268 174.645 68.706C174.451 68.1851 174.162 67.7803 173.779 67.4915C173.4 67.2027 172.934 67.0582 172.38 67.0582C171.807 67.0582 171.328 67.2074 170.945 67.5057C170.561 67.804 170.273 68.2159 170.078 68.7415C169.884 69.267 169.787 69.8684 169.787 70.5455C169.787 71.2273 169.884 71.8357 170.078 72.3707C170.277 72.901 170.569 73.3201 170.952 73.6278C171.34 73.9309 171.816 74.0824 172.38 74.0824ZM187.165 71.4119V65.0909H189.736V76H187.243V74.0611H187.129C186.883 74.6719 186.478 75.1714 185.915 75.5597C185.356 75.9479 184.667 76.142 183.848 76.142C183.133 76.142 182.501 75.9834 181.952 75.6662C181.407 75.3442 180.981 74.8778 180.673 74.267C180.366 73.6515 180.212 72.9081 180.212 72.0369V65.0909H182.783V71.6392C182.783 72.3305 182.972 72.8797 183.351 73.2869C183.73 73.6941 184.227 73.8977 184.842 73.8977C185.221 73.8977 185.588 73.8054 185.943 73.6207C186.298 73.4361 186.589 73.1615 186.817 72.7969C187.049 72.4276 187.165 71.9659 187.165 71.4119ZM194.951 61.4545V76H192.38V61.4545H194.951ZM202.424 76.2131C201.33 76.2131 200.386 75.9858 199.59 75.5312C198.799 75.072 198.191 74.4233 197.765 73.5852C197.339 72.7424 197.126 71.7505 197.126 70.6094C197.126 69.4872 197.339 68.5024 197.765 67.6548C198.196 66.8026 198.797 66.1397 199.569 65.6662C200.341 65.188 201.247 64.9489 202.289 64.9489C202.961 64.9489 203.596 65.0578 204.192 65.2756C204.794 65.4886 205.324 65.8201 205.783 66.2699C206.247 66.7197 206.612 67.2926 206.877 67.9886C207.142 68.6799 207.275 69.5038 207.275 70.4602V71.2486H198.333V69.5156H204.81C204.806 69.0232 204.699 68.5852 204.491 68.2017C204.282 67.8134 203.991 67.508 203.617 67.2855C203.248 67.063 202.817 66.9517 202.325 66.9517C201.799 66.9517 201.337 67.0795 200.94 67.3352C200.542 67.5862 200.232 67.9176 200.009 68.3295C199.791 68.7367 199.68 69.1842 199.675 69.6719V71.1847C199.675 71.8191 199.791 72.3636 200.023 72.8182C200.255 73.268 200.58 73.6136 200.996 73.8551C201.413 74.0919 201.901 74.2102 202.46 74.2102C202.834 74.2102 203.172 74.1581 203.475 74.054C203.778 73.9451 204.041 73.7865 204.263 73.5781C204.486 73.3698 204.654 73.1117 204.768 72.804L207.168 73.0739C207.017 73.7083 206.728 74.2623 206.302 74.7358C205.88 75.2045 205.341 75.5691 204.683 75.8295C204.024 76.0852 203.272 76.2131 202.424 76.2131ZM218.072 67.9744L215.728 68.2301C215.662 67.9934 215.546 67.7708 215.38 67.5625C215.219 67.3542 215.002 67.1861 214.727 67.0582C214.452 66.9304 214.116 66.8665 213.718 66.8665C213.183 66.8665 212.734 66.9825 212.369 67.2145C212.009 67.4465 211.832 67.7472 211.836 68.1165C211.832 68.4337 211.948 68.6918 212.184 68.8906C212.426 69.0895 212.824 69.2528 213.377 69.3807L215.238 69.7784C216.27 70.0009 217.038 70.3537 217.539 70.8366C218.046 71.3196 218.302 71.9517 218.306 72.733C218.302 73.4195 218.1 74.0256 217.703 74.5511C217.31 75.072 216.763 75.4792 216.062 75.7727C215.361 76.0663 214.556 76.2131 213.647 76.2131C212.312 76.2131 211.237 75.9337 210.423 75.375C209.609 74.8116 209.123 74.0279 208.967 73.0241L211.474 72.7827C211.588 73.2751 211.829 73.6468 212.199 73.8977C212.568 74.1487 213.048 74.2741 213.64 74.2741C214.251 74.2741 214.741 74.1487 215.11 73.8977C215.484 73.6468 215.672 73.3366 215.672 72.9673C215.672 72.6548 215.551 72.3968 215.309 72.1932C215.073 71.9896 214.703 71.8333 214.201 71.7244L212.341 71.3338C211.294 71.116 210.52 70.7491 210.018 70.233C209.516 69.7121 209.268 69.054 209.272 68.2585C209.268 67.5862 209.45 67.0038 209.819 66.5114C210.193 66.0142 210.712 65.6307 211.375 65.3608C212.042 65.0862 212.812 64.9489 213.683 64.9489C214.961 64.9489 215.967 65.2211 216.701 65.7656C217.44 66.3101 217.897 67.0464 218.072 67.9744ZM230.835 65.0909V67.0795H224.564V65.0909H230.835ZM226.112 62.4773H228.683V72.7188C228.683 73.0644 228.735 73.3295 228.839 73.5142C228.948 73.6941 229.09 73.8172 229.265 73.8835C229.44 73.9498 229.635 73.983 229.848 73.983C230.009 73.983 230.155 73.9711 230.288 73.9474C230.425 73.9238 230.529 73.9025 230.6 73.8835L231.034 75.8935C230.896 75.9408 230.7 75.9929 230.444 76.0497C230.193 76.1065 229.886 76.1397 229.521 76.1491C228.877 76.1681 228.297 76.071 227.781 75.858C227.265 75.6402 226.855 75.304 226.552 74.8494C226.254 74.3949 226.107 73.8267 226.112 73.1449V62.4773ZM237.697 76.2131C236.604 76.2131 235.659 75.9858 234.864 75.5312C234.073 75.072 233.464 74.4233 233.038 73.5852C232.612 72.7424 232.399 71.7505 232.399 70.6094C232.399 69.4872 232.612 68.5024 233.038 67.6548C233.469 66.8026 234.071 66.1397 234.842 65.6662C235.614 65.188 236.521 64.9489 237.562 64.9489C238.235 64.9489 238.869 65.0578 239.466 65.2756C240.067 65.4886 240.598 65.8201 241.057 66.2699C241.521 66.7197 241.885 67.2926 242.151 67.9886C242.416 68.6799 242.548 69.5038 242.548 70.4602V71.2486H233.607V69.5156H240.084C240.079 69.0232 239.973 68.5852 239.764 68.2017C239.556 67.8134 239.265 67.508 238.891 67.2855C238.521 67.063 238.09 66.9517 237.598 66.9517C237.072 66.9517 236.611 67.0795 236.213 67.3352C235.815 67.5862 235.505 67.9176 235.283 68.3295C235.065 68.7367 234.954 69.1842 234.949 69.6719V71.1847C234.949 71.8191 235.065 72.3636 235.297 72.8182C235.529 73.268 235.853 73.6136 236.27 73.8551C236.687 74.0919 237.174 74.2102 237.733 74.2102C238.107 74.2102 238.446 74.1581 238.749 74.054C239.052 73.9451 239.314 73.7865 239.537 73.5781C239.759 73.3698 239.928 73.1117 240.041 72.804L242.442 73.0739C242.29 73.7083 242.001 74.2623 241.575 74.7358C241.154 75.2045 240.614 75.5691 239.956 75.8295C239.298 76.0852 238.545 76.2131 237.697 76.2131ZM253.346 67.9744L251.002 68.2301C250.935 67.9934 250.819 67.7708 250.654 67.5625C250.493 67.3542 250.275 67.1861 250 67.0582C249.726 66.9304 249.39 66.8665 248.992 66.8665C248.457 66.8665 248.007 66.9825 247.642 67.2145C247.283 67.4465 247.105 67.7472 247.11 68.1165C247.105 68.4337 247.221 68.6918 247.458 68.8906C247.699 69.0895 248.097 69.2528 248.651 69.3807L250.512 69.7784C251.544 70.0009 252.311 70.3537 252.813 70.8366C253.319 71.3196 253.575 71.9517 253.58 72.733C253.575 73.4195 253.374 74.0256 252.976 74.5511C252.583 75.072 252.036 75.4792 251.336 75.7727C250.635 76.0663 249.83 76.2131 248.921 76.2131C247.586 76.2131 246.511 75.9337 245.696 75.375C244.882 74.8116 244.397 74.0279 244.24 73.0241L246.748 72.7827C246.861 73.2751 247.103 73.6468 247.472 73.8977C247.841 74.1487 248.322 74.2741 248.914 74.2741C249.525 74.2741 250.015 74.1487 250.384 73.8977C250.758 73.6468 250.945 73.3366 250.945 72.9673C250.945 72.6548 250.824 72.3968 250.583 72.1932C250.346 71.9896 249.977 71.8333 249.475 71.7244L247.614 71.3338C246.568 71.116 245.793 70.7491 245.292 70.233C244.79 69.7121 244.541 69.054 244.546 68.2585C244.541 67.5862 244.723 67.0038 245.093 66.5114C245.467 66.0142 245.985 65.6307 246.648 65.3608C247.316 65.0862 248.085 64.9489 248.956 64.9489C250.235 64.9489 251.241 65.2211 251.975 65.7656C252.713 66.3101 253.17 67.0464 253.346 67.9744ZM261.147 65.0909V67.0795H254.876V65.0909H261.147ZM256.424 62.4773H258.995V72.7188C258.995 73.0644 259.047 73.3295 259.152 73.5142C259.261 73.6941 259.403 73.8172 259.578 73.8835C259.753 73.9498 259.947 73.983 260.16 73.983C260.321 73.983 260.468 73.9711 260.6 73.9474C260.738 73.9238 260.842 73.9025 260.913 73.8835L261.346 75.8935C261.209 75.9408 261.012 75.9929 260.757 76.0497C260.506 76.1065 260.198 76.1397 259.833 76.1491C259.19 76.1681 258.609 76.071 258.093 75.858C257.577 75.6402 257.168 75.304 256.865 74.8494C256.566 74.3949 256.42 73.8267 256.424 73.1449V62.4773ZM271.763 67.9744L269.42 68.2301C269.353 67.9934 269.237 67.7708 269.072 67.5625C268.911 67.3542 268.693 67.1861 268.418 67.0582C268.144 66.9304 267.808 66.8665 267.41 66.8665C266.875 66.8665 266.425 66.9825 266.06 67.2145C265.701 67.4465 265.523 67.7472 265.528 68.1165C265.523 68.4337 265.639 68.6918 265.876 68.8906C266.117 69.0895 266.515 69.2528 267.069 69.3807L268.93 69.7784C269.962 70.0009 270.729 70.3537 271.231 70.8366C271.737 71.3196 271.993 71.9517 271.998 72.733C271.993 73.4195 271.792 74.0256 271.394 74.5511C271.001 75.072 270.454 75.4792 269.754 75.7727C269.053 76.0663 268.248 76.2131 267.339 76.2131C266.004 76.2131 264.929 75.9337 264.114 75.375C263.3 74.8116 262.815 74.0279 262.658 73.0241L265.165 72.7827C265.279 73.2751 265.521 73.6468 265.89 73.8977C266.259 74.1487 266.74 74.2741 267.332 74.2741C267.942 74.2741 268.433 74.1487 268.802 73.8977C269.176 73.6468 269.363 73.3366 269.363 72.9673C269.363 72.6548 269.242 72.3968 269.001 72.1932C268.764 71.9896 268.395 71.8333 267.893 71.7244L266.032 71.3338C264.986 71.116 264.211 70.7491 263.71 70.233C263.208 69.7121 262.959 69.054 262.964 68.2585C262.959 67.5862 263.141 67.0038 263.511 66.5114C263.885 66.0142 264.403 65.6307 265.066 65.3608C265.734 65.0862 266.503 64.9489 267.374 64.9489C268.653 64.9489 269.659 65.2211 270.393 65.7656C271.131 66.3101 271.588 67.0464 271.763 67.9744Z" fill="#0A2134"/>
<path d="M136.724 96.2628V95.0909H144.906V96.2628H141.476V106H140.155V96.2628H136.724ZM149.018 106.17C148.23 106.17 147.55 105.996 146.978 105.648C146.41 105.297 145.972 104.807 145.663 104.178C145.357 103.546 145.205 102.811 145.205 101.973C145.205 101.135 145.357 100.396 145.663 99.7571C145.972 99.1143 146.401 98.6136 146.952 98.255C147.506 97.8928 148.152 97.7116 148.891 97.7116C149.317 97.7116 149.738 97.7827 150.153 97.9247C150.569 98.0668 150.947 98.2976 151.288 98.6172C151.629 98.9332 151.9 99.3523 152.103 99.8743C152.305 100.396 152.406 101.039 152.406 101.803V102.335H146.099V101.249H151.128C151.128 100.787 151.036 100.375 150.851 100.013C150.67 99.6506 150.411 99.3647 150.073 99.1552C149.739 98.9457 149.345 98.8409 148.891 98.8409C148.39 98.8409 147.957 98.9652 147.591 99.2138C147.229 99.4588 146.95 99.7784 146.755 100.173C146.559 100.567 146.462 100.989 146.462 101.44V102.165C146.462 102.783 146.568 103.306 146.781 103.736C146.998 104.162 147.298 104.487 147.681 104.711C148.065 104.931 148.511 105.041 149.018 105.041C149.349 105.041 149.647 104.995 149.913 104.903C150.183 104.807 150.416 104.665 150.611 104.477C150.806 104.285 150.957 104.047 151.064 103.763L152.278 104.104C152.151 104.516 151.936 104.878 151.634 105.19C151.332 105.499 150.959 105.741 150.515 105.915C150.071 106.085 149.572 106.17 149.018 106.17ZM160.114 99.6506L158.985 99.9702C158.914 99.782 158.809 99.5991 158.67 99.4215C158.536 99.2404 158.351 99.0913 158.116 98.9741C157.882 98.8569 157.582 98.7983 157.216 98.7983C156.716 98.7983 156.298 98.9137 155.964 99.1445C155.634 99.3718 155.469 99.6612 155.469 100.013C155.469 100.325 155.583 100.572 155.81 100.753C156.037 100.934 156.392 101.085 156.875 101.206L158.09 101.504C158.821 101.682 159.366 101.953 159.725 102.319C160.084 102.681 160.263 103.148 160.263 103.72C160.263 104.189 160.128 104.608 159.858 104.977C159.592 105.347 159.219 105.638 158.74 105.851C158.26 106.064 157.703 106.17 157.067 106.17C156.233 106.17 155.542 105.989 154.995 105.627C154.448 105.265 154.102 104.736 153.956 104.04L155.15 103.741C155.263 104.182 155.478 104.512 155.794 104.732C156.114 104.952 156.531 105.062 157.046 105.062C157.632 105.062 158.097 104.938 158.441 104.69C158.789 104.437 158.963 104.136 158.963 103.784C158.963 103.5 158.864 103.262 158.665 103.07C158.466 102.875 158.161 102.729 157.749 102.634L156.385 102.314C155.636 102.136 155.086 101.861 154.734 101.488C154.386 101.112 154.212 100.641 154.212 100.077C154.212 99.6151 154.342 99.2067 154.601 98.8516C154.864 98.4964 155.221 98.2177 155.672 98.0153C156.126 97.8129 156.641 97.7116 157.216 97.7116C158.026 97.7116 158.662 97.8892 159.123 98.2443C159.588 98.5994 159.919 99.0682 160.114 99.6506ZM165.714 97.8182V98.8835H161.474V97.8182H165.714ZM162.709 95.858H163.967V103.656C163.967 104.011 164.018 104.278 164.121 104.455C164.228 104.629 164.362 104.746 164.526 104.807C164.693 104.864 164.869 104.892 165.053 104.892C165.192 104.892 165.305 104.885 165.394 104.871C165.483 104.853 165.554 104.839 165.607 104.828L165.863 105.957C165.778 105.989 165.659 106.021 165.506 106.053C165.353 106.089 165.16 106.107 164.925 106.107C164.57 106.107 164.222 106.03 163.881 105.877C163.544 105.725 163.263 105.492 163.04 105.18C162.82 104.867 162.709 104.473 162.709 103.997V95.858ZM172.633 109.068C172.42 109.068 172.23 109.05 172.063 109.015C171.896 108.983 171.781 108.951 171.717 108.919L172.036 107.811C172.342 107.889 172.612 107.918 172.846 107.896C173.081 107.875 173.288 107.77 173.469 107.582C173.654 107.397 173.823 107.097 173.975 106.682L174.21 106.043L171.184 97.8182H172.548L174.806 104.338H174.892L177.15 97.8182H178.514L175.041 107.193C174.884 107.616 174.691 107.966 174.46 108.243C174.229 108.523 173.961 108.731 173.656 108.866C173.354 109.001 173.013 109.068 172.633 109.068ZM183.204 106.17C182.465 106.17 181.817 105.995 181.26 105.643C180.706 105.292 180.272 104.8 179.96 104.168C179.651 103.536 179.497 102.797 179.497 101.952C179.497 101.099 179.651 100.355 179.96 99.7198C180.272 99.0842 180.706 98.5906 181.26 98.239C181.817 97.8874 182.465 97.7116 183.204 97.7116C183.943 97.7116 184.589 97.8874 185.143 98.239C185.7 98.5906 186.134 99.0842 186.443 99.7198C186.755 100.355 186.911 101.099 186.911 101.952C186.911 102.797 186.755 103.536 186.443 104.168C186.134 104.8 185.7 105.292 185.143 105.643C184.589 105.995 183.943 106.17 183.204 106.17ZM183.204 105.041C183.765 105.041 184.227 104.897 184.589 104.61C184.951 104.322 185.219 103.944 185.393 103.475C185.567 103.006 185.654 102.499 185.654 101.952C185.654 101.405 185.567 100.895 185.393 100.423C185.219 99.9506 184.951 99.5689 184.589 99.2777C184.227 98.9865 183.765 98.8409 183.204 98.8409C182.643 98.8409 182.181 98.9865 181.819 99.2777C181.457 99.5689 181.189 99.9506 181.015 100.423C180.841 100.895 180.754 101.405 180.754 101.952C180.754 102.499 180.841 103.006 181.015 103.475C181.189 103.944 181.457 104.322 181.819 104.61C182.181 104.897 182.643 105.041 183.204 105.041ZM193.987 102.655V97.8182H195.244V106H193.987V104.615H193.901C193.71 105.031 193.411 105.384 193.006 105.675C192.602 105.963 192.09 106.107 191.472 106.107C190.961 106.107 190.506 105.995 190.109 105.771C189.711 105.544 189.398 105.203 189.171 104.748C188.944 104.29 188.83 103.713 188.83 103.017V97.8182H190.087V102.932C190.087 103.528 190.254 104.004 190.588 104.359C190.925 104.714 191.355 104.892 191.877 104.892C192.19 104.892 192.507 104.812 192.831 104.652C193.157 104.493 193.431 104.248 193.651 103.917C193.875 103.587 193.987 103.166 193.987 102.655ZM197.546 106V97.8182H198.761V99.054H198.846C198.995 98.6491 199.265 98.3207 199.655 98.0685C200.046 97.8164 200.486 97.6903 200.976 97.6903C201.069 97.6903 201.184 97.6921 201.323 97.6957C201.461 97.6992 201.566 97.7045 201.637 97.7116V98.9901C201.594 98.9794 201.497 98.9634 201.344 98.9421C201.195 98.9173 201.037 98.9048 200.87 98.9048C200.472 98.9048 200.117 98.9883 199.805 99.1552C199.496 99.3185 199.251 99.5458 199.07 99.837C198.892 100.125 198.803 100.453 198.803 100.822V106H197.546ZM208.518 103.017L208.496 101.462H208.752L212.332 97.8182H213.887L210.073 101.675H209.967L208.518 103.017ZM207.346 106V95.0909H208.603V106H207.346ZM212.545 106L209.349 101.952L210.244 101.078L214.143 106H212.545ZM216.762 101.078V106H215.505V97.8182H216.72V99.0966H216.826C217.018 98.6811 217.309 98.3473 217.7 98.0952C218.09 97.8395 218.595 97.7116 219.212 97.7116C219.766 97.7116 220.251 97.8253 220.667 98.0526C221.082 98.2763 221.405 98.6172 221.636 99.0753C221.867 99.5298 221.982 100.105 221.982 100.801V106H220.725V100.886C220.725 100.244 220.558 99.7429 220.225 99.3842C219.891 99.022 219.433 98.8409 218.85 98.8409C218.449 98.8409 218.09 98.9279 217.774 99.1019C217.462 99.2759 217.215 99.5298 217.034 99.8636C216.853 100.197 216.762 100.602 216.762 101.078ZM227.603 106.17C226.865 106.17 226.217 105.995 225.659 105.643C225.105 105.292 224.672 104.8 224.359 104.168C224.05 103.536 223.896 102.797 223.896 101.952C223.896 101.099 224.05 100.355 224.359 99.7198C224.672 99.0842 225.105 98.5906 225.659 98.239C226.217 97.8874 226.865 97.7116 227.603 97.7116C228.342 97.7116 228.988 97.8874 229.542 98.239C230.1 98.5906 230.533 99.0842 230.842 99.7198C231.154 100.355 231.311 101.099 231.311 101.952C231.311 102.797 231.154 103.536 230.842 104.168C230.533 104.8 230.1 105.292 229.542 105.643C228.988 105.995 228.342 106.17 227.603 106.17ZM227.603 105.041C228.164 105.041 228.626 104.897 228.988 104.61C229.35 104.322 229.619 103.944 229.793 103.475C229.967 103.006 230.054 102.499 230.054 101.952C230.054 101.405 229.967 100.895 229.793 100.423C229.619 99.9506 229.35 99.5689 228.988 99.2777C228.626 98.9865 228.164 98.8409 227.603 98.8409C227.042 98.8409 226.581 98.9865 226.218 99.2777C225.856 99.5689 225.588 99.9506 225.414 100.423C225.24 100.895 225.153 101.405 225.153 101.952C225.153 102.499 225.24 103.006 225.414 103.475C225.588 103.944 225.856 104.322 226.218 104.61C226.581 104.897 227.042 105.041 227.603 105.041ZM234.805 106L232.312 97.8182H233.633L235.402 104.082H235.487L237.234 97.8182H238.576L240.302 104.061H240.387L242.156 97.8182H243.477L240.984 106H239.748L237.958 99.7145H237.831L236.041 106H234.805ZM246.396 95.0909V106H245.139V95.0909H246.396ZM252.129 106.17C251.34 106.17 250.66 105.996 250.089 105.648C249.521 105.297 249.082 104.807 248.773 104.178C248.468 103.546 248.315 102.811 248.315 101.973C248.315 101.135 248.468 100.396 248.773 99.7571C249.082 99.1143 249.512 98.6136 250.062 98.255C250.616 97.8928 251.262 97.7116 252.001 97.7116C252.427 97.7116 252.848 97.7827 253.263 97.9247C253.679 98.0668 254.057 98.2976 254.398 98.6172C254.739 98.9332 255.011 99.3523 255.213 99.8743C255.415 100.396 255.517 101.039 255.517 101.803V102.335H249.21V101.249H254.238C254.238 100.787 254.146 100.375 253.961 100.013C253.78 99.6506 253.521 99.3647 253.184 99.1552C252.85 98.9457 252.456 98.8409 252.001 98.8409C251.5 98.8409 251.067 98.9652 250.701 99.2138C250.339 99.4588 250.06 99.7784 249.865 100.173C249.67 100.567 249.572 100.989 249.572 101.44V102.165C249.572 102.783 249.679 103.306 249.892 103.736C250.108 104.162 250.408 104.487 250.792 104.711C251.175 104.931 251.621 105.041 252.129 105.041C252.459 105.041 252.757 104.995 253.024 104.903C253.294 104.807 253.526 104.665 253.722 104.477C253.917 104.285 254.068 104.047 254.174 103.763L255.389 104.104C255.261 104.516 255.046 104.878 254.744 105.19C254.442 105.499 254.07 105.741 253.626 105.915C253.182 106.085 252.683 106.17 252.129 106.17ZM260.518 106.17C259.837 106.17 259.235 105.998 258.713 105.654C258.191 105.306 257.782 104.816 257.487 104.184C257.193 103.548 257.045 102.797 257.045 101.93C257.045 101.071 257.193 100.325 257.487 99.6932C257.782 99.0611 258.192 98.5728 258.718 98.2283C259.244 97.8839 259.851 97.7116 260.54 97.7116C261.072 97.7116 261.493 97.8004 261.802 97.978C262.115 98.152 262.353 98.3509 262.516 98.5746C262.683 98.7947 262.812 98.9759 262.905 99.1179H263.011V95.0909H264.268V106H263.054V104.743H262.905C262.812 104.892 262.681 105.08 262.511 105.308C262.34 105.531 262.097 105.732 261.781 105.909C261.465 106.083 261.044 106.17 260.518 106.17ZM260.689 105.041C261.193 105.041 261.619 104.91 261.967 104.647C262.315 104.381 262.58 104.013 262.761 103.544C262.942 103.072 263.033 102.527 263.033 101.909C263.033 101.298 262.944 100.764 262.766 100.306C262.589 99.8441 262.326 99.4854 261.978 99.2298C261.63 98.9705 261.2 98.8409 260.689 98.8409C260.156 98.8409 259.712 98.9776 259.357 99.2511C259.006 99.521 258.741 99.8885 258.563 100.354C258.389 100.815 258.302 101.334 258.302 101.909C258.302 102.491 258.391 103.021 258.569 103.496C258.75 103.969 259.016 104.345 259.368 104.626C259.723 104.903 260.163 105.041 260.689 105.041ZM270.048 109.239C269.441 109.239 268.919 109.161 268.482 109.004C268.045 108.852 267.681 108.649 267.39 108.397C267.102 108.148 266.873 107.882 266.703 107.598L267.704 106.895C267.818 107.044 267.962 107.214 268.136 107.406C268.31 107.602 268.547 107.77 268.849 107.912C269.155 108.058 269.554 108.131 270.048 108.131C270.708 108.131 271.253 107.971 271.683 107.651C272.113 107.332 272.328 106.831 272.328 106.149V104.487H272.221C272.129 104.636 271.997 104.821 271.827 105.041C271.66 105.258 271.419 105.451 271.103 105.622C270.79 105.789 270.367 105.872 269.835 105.872C269.174 105.872 268.581 105.716 268.056 105.403C267.534 105.091 267.12 104.636 266.815 104.04C266.513 103.443 266.362 102.719 266.362 101.866C266.362 101.028 266.509 100.299 266.804 99.6772C267.099 99.0522 267.509 98.5692 268.034 98.2283C268.56 97.8839 269.167 97.7116 269.856 97.7116C270.389 97.7116 270.811 97.8004 271.124 97.978C271.44 98.152 271.681 98.3509 271.848 98.5746C272.019 98.7947 272.15 98.9759 272.242 99.1179H272.37V97.8182H273.585V106.234C273.585 106.938 273.425 107.509 273.105 107.95C272.789 108.393 272.363 108.718 271.827 108.924C271.294 109.134 270.701 109.239 270.048 109.239ZM270.005 104.743C270.509 104.743 270.936 104.627 271.284 104.397C271.632 104.166 271.896 103.834 272.077 103.401C272.258 102.967 272.349 102.449 272.349 101.845C272.349 101.256 272.26 100.735 272.083 100.284C271.905 99.8335 271.642 99.4801 271.294 99.2244C270.946 98.9687 270.517 98.8409 270.005 98.8409C269.473 98.8409 269.029 98.9759 268.674 99.2457C268.322 99.5156 268.057 99.8778 267.88 100.332C267.706 100.787 267.619 101.291 267.619 101.845C267.619 102.413 267.708 102.916 267.885 103.353C268.066 103.786 268.333 104.127 268.684 104.375C269.039 104.62 269.48 104.743 270.005 104.743ZM279.316 106.17C278.528 106.17 277.848 105.996 277.276 105.648C276.708 105.297 276.269 104.807 275.96 104.178C275.655 103.546 275.502 102.811 275.502 101.973C275.502 101.135 275.655 100.396 275.96 99.7571C276.269 99.1143 276.699 98.6136 277.25 98.255C277.804 97.8928 278.45 97.7116 279.188 97.7116C279.615 97.7116 280.035 97.7827 280.451 97.9247C280.866 98.0668 281.245 98.2976 281.585 98.6172C281.926 98.9332 282.198 99.3523 282.4 99.8743C282.603 100.396 282.704 101.039 282.704 101.803V102.335H276.397V101.249H281.426C281.426 100.787 281.333 100.375 281.149 100.013C280.968 99.6506 280.708 99.3647 280.371 99.1552C280.037 98.9457 279.643 98.8409 279.188 98.8409C278.688 98.8409 278.255 98.9652 277.889 99.2138C277.527 99.4588 277.248 99.7784 277.052 100.173C276.857 100.567 276.759 100.989 276.759 101.44V102.165C276.759 102.783 276.866 103.306 277.079 103.736C277.296 104.162 277.596 104.487 277.979 104.711C278.363 104.931 278.809 105.041 279.316 105.041C279.647 105.041 279.945 104.995 280.211 104.903C280.481 104.807 280.714 104.665 280.909 104.477C281.104 104.285 281.255 104.047 281.362 103.763L282.576 104.104C282.448 104.516 282.234 104.878 281.932 105.19C281.63 105.499 281.257 105.741 280.813 105.915C280.369 106.085 279.87 106.17 279.316 106.17Z" fill="#43505B"/>
<defs>
<filter id="filter0_d_4411_1596" x="0" y="0" width="406" height="154" filterUnits="userSpaceOnUse" color-interpolation-filters="sRGB">
<feFlood flood-opacity="0" result="BackgroundImageFix"/>
<feColorMatrix in="SourceAlpha" type="matrix" values="0 0 0 0 0 0 0 0 0 0 0 0 0 0 0 0 0 0 127 0" result="hardAlpha"/>
<feMorphology radius="2" operator="erode" in="SourceAlpha" result="effect1_dropShadow_4411_1596"/>
<feOffset dy="4"/>
<feGaussianBlur stdDeviation="10"/>
<feColorMatrix type="matrix" values="0 0 0 0 0 0 0 0 0 0.184314 0 0 0 0 0.345098 0 0 0 0.08 0"/>
<feBlend mode="normal" in2="BackgroundImageFix" result="effect1_dropShadow_4411_1596"/>
<feBlend mode="normal" in="SourceGraphic" in2="effect1_dropShadow_4411_1596" result="shape"/>
</filter>
</defs>
</svg>
