<svg width="406" height="154" viewBox="0 0 406 154" fill="none" xmlns="http://www.w3.org/2000/svg">
<g filter="url(#filter0_d_4411_1623)">
<rect x="18" y="14" width="370" height="118" rx="8" fill="white"/>
</g>
<rect x="34" y="30" width="86" height="86" rx="8" fill="#FBF0FD"/>
<path d="M85.3027 68.3451C88.9789 65.4308 93.9123 62.6117 94.8456 63.6213C96.3884 65.2784 96.2551 81.0498 94.8456 82.5546C93.9884 83.4879 89.017 80.6689 85.3027 77.7736" stroke="#CF53DB" stroke-width="2.5" stroke-linecap="round" stroke-linejoin="round"/>
<path fill-rule="evenodd" clip-rule="evenodd" d="M58.0283 73.0742C58.0283 62.6895 61.4778 59.2285 71.8302 59.2285C82.1807 59.2285 85.6302 62.6895 85.6302 73.0742C85.6302 83.4571 82.1807 86.9199 71.8302 86.9199C61.4778 86.9199 58.0283 83.4571 58.0283 73.0742Z" stroke="#CF53DB" stroke-width="2.5" stroke-linecap="round" stroke-linejoin="round"/>
<path d="M137.435 50V35.4545H140.07V47.7912H146.476V50H137.435ZM148.649 50V39.0909H151.22V50H148.649ZM149.942 37.5426C149.535 37.5426 149.184 37.4077 148.891 37.1378C148.597 36.8632 148.45 36.5341 148.45 36.1506C148.45 35.7623 148.597 35.4332 148.891 35.1634C149.184 34.8887 149.535 34.7514 149.942 34.7514C150.354 34.7514 150.704 34.8887 150.993 35.1634C151.286 35.4332 151.433 35.7623 151.433 36.1506C151.433 36.5341 151.286 36.8632 150.993 37.1378C150.704 37.4077 150.354 37.5426 149.942 37.5426ZM163.608 39.0909L159.723 50H156.882L152.998 39.0909H155.739L158.246 47.1946H158.36L160.874 39.0909H163.608ZM169.846 50.2131C168.752 50.2131 167.808 49.9858 167.012 49.5312C166.221 49.072 165.613 48.4233 165.187 47.5852C164.761 46.7424 164.548 45.7505 164.548 44.6094C164.548 43.4872 164.761 42.5024 165.187 41.6548C165.618 40.8026 166.219 40.1397 166.991 39.6662C167.763 39.188 168.669 38.9489 169.711 38.9489C170.383 38.9489 171.018 39.0578 171.614 39.2756C172.216 39.4886 172.746 39.8201 173.205 40.2699C173.669 40.7197 174.034 41.2926 174.299 41.9886C174.564 42.6799 174.697 43.5038 174.697 44.4602V45.2486H165.755V43.5156H172.232C172.228 43.0232 172.121 42.5852 171.913 42.2017C171.704 41.8134 171.413 41.508 171.039 41.2855C170.67 41.063 170.239 40.9517 169.746 40.9517C169.221 40.9517 168.759 41.0795 168.362 41.3352C167.964 41.5862 167.654 41.9176 167.431 42.3295C167.213 42.7367 167.102 43.1842 167.097 43.6719V45.1847C167.097 45.8191 167.213 46.3636 167.445 46.8182C167.677 47.268 168.002 47.6136 168.418 47.8551C168.835 48.0919 169.323 48.2102 169.881 48.2102C170.255 48.2102 170.594 48.1581 170.897 48.054C171.2 47.9451 171.463 47.7865 171.685 47.5781C171.908 47.3698 172.076 47.1117 172.19 46.804L174.59 47.0739C174.439 47.7083 174.15 48.2623 173.724 48.7358C173.302 49.2045 172.763 49.5691 172.104 49.8295C171.446 50.0852 170.693 50.2131 169.846 50.2131ZM194.397 40.3622H191.74C191.665 39.9266 191.525 39.5407 191.321 39.2045C191.118 38.8636 190.864 38.5748 190.561 38.3381C190.258 38.1013 189.913 37.9238 189.525 37.8054C189.141 37.6823 188.727 37.6207 188.282 37.6207C187.491 37.6207 186.79 37.8196 186.179 38.2173C185.569 38.6103 185.09 39.188 184.745 39.9503C184.399 40.7079 184.226 41.6335 184.226 42.7273C184.226 43.84 184.399 44.7775 184.745 45.5398C185.095 46.2973 185.573 46.8703 186.179 47.2585C186.79 47.642 187.489 47.8338 188.275 47.8338C188.71 47.8338 189.117 47.777 189.496 47.6634C189.88 47.545 190.223 47.3722 190.526 47.1449C190.834 46.9176 191.092 46.6383 191.3 46.3068C191.513 45.9754 191.66 45.5966 191.74 45.1705L194.397 45.1847C194.297 45.8759 194.082 46.5246 193.75 47.1307C193.424 47.7367 192.995 48.2718 192.465 48.7358C191.935 49.1951 191.314 49.5549 190.604 49.8153C189.894 50.071 189.105 50.1989 188.239 50.1989C186.961 50.1989 185.819 49.9029 184.816 49.3111C183.812 48.7192 183.021 47.8646 182.444 46.7472C181.866 45.6297 181.577 44.2898 181.577 42.7273C181.577 41.16 181.868 39.8201 182.451 38.7074C183.033 37.59 183.826 36.7353 184.83 36.1435C185.834 35.5516 186.97 35.2557 188.239 35.2557C189.049 35.2557 189.801 35.3693 190.498 35.5966C191.194 35.8239 191.814 36.1577 192.358 36.598C192.903 37.0336 193.35 37.5687 193.701 38.2031C194.056 38.8329 194.288 39.5526 194.397 40.3622ZM199.267 35.4545V50H196.696V35.4545H199.267ZM205.05 50.2202C204.359 50.2202 203.736 50.0971 203.182 49.8509C202.633 49.5999 202.197 49.2306 201.875 48.7429C201.558 48.2552 201.4 47.6539 201.4 46.9389C201.4 46.3234 201.513 45.8144 201.74 45.4119C201.968 45.0095 202.278 44.6875 202.671 44.446C203.064 44.2045 203.507 44.0223 203.999 43.8991C204.496 43.7713 205.01 43.679 205.54 43.6222C206.179 43.5559 206.698 43.4967 207.096 43.4446C207.493 43.3878 207.782 43.3026 207.962 43.1889C208.147 43.0705 208.239 42.8883 208.239 42.642V42.5994C208.239 42.0644 208.08 41.6501 207.763 41.3565C207.446 41.063 206.989 40.9162 206.392 40.9162C205.763 40.9162 205.263 41.0535 204.894 41.3281C204.529 41.6027 204.283 41.9271 204.155 42.3011L201.755 41.9602C201.944 41.2973 202.257 40.7434 202.692 40.2983C203.128 39.8485 203.66 39.5123 204.29 39.2898C204.92 39.0625 205.616 38.9489 206.378 38.9489C206.904 38.9489 207.427 39.0104 207.948 39.1335C208.469 39.2566 208.944 39.4602 209.375 39.7443C209.806 40.0237 210.152 40.4048 210.412 40.8878C210.677 41.3707 210.81 41.9744 210.81 42.6989V50H208.338V48.5014H208.253C208.097 48.8045 207.877 49.0885 207.593 49.3537C207.313 49.6141 206.961 49.8248 206.534 49.9858C206.113 50.142 205.618 50.2202 205.05 50.2202ZM205.718 48.331C206.234 48.331 206.681 48.2292 207.06 48.0256C207.439 47.8172 207.73 47.5426 207.934 47.2017C208.142 46.8608 208.246 46.4891 208.246 46.0866V44.8011C208.166 44.8674 208.028 44.929 207.834 44.9858C207.645 45.0426 207.432 45.0923 207.195 45.1349C206.958 45.1776 206.724 45.2154 206.492 45.2486C206.26 45.2817 206.059 45.3101 205.888 45.3338C205.505 45.3859 205.161 45.4711 204.858 45.5895C204.555 45.7079 204.316 45.8736 204.141 46.0866C203.966 46.295 203.878 46.5649 203.878 46.8963C203.878 47.3698 204.051 47.7273 204.397 47.9688C204.742 48.2102 205.183 48.331 205.718 48.331ZM222.017 41.9744L219.674 42.2301C219.607 41.9934 219.491 41.7708 219.326 41.5625C219.165 41.3542 218.947 41.1861 218.672 41.0582C218.398 40.9304 218.061 40.8665 217.664 40.8665C217.129 40.8665 216.679 40.9825 216.314 41.2145C215.954 41.4465 215.777 41.7472 215.782 42.1165C215.777 42.4337 215.893 42.6918 216.13 42.8906C216.371 43.0895 216.769 43.2528 217.323 43.3807L219.184 43.7784C220.216 44.0009 220.983 44.3537 221.485 44.8366C221.991 45.3196 222.247 45.9517 222.252 46.733C222.247 47.4195 222.046 48.0256 221.648 48.5511C221.255 49.072 220.708 49.4792 220.007 49.7727C219.307 50.0663 218.502 50.2131 217.593 50.2131C216.257 50.2131 215.183 49.9337 214.368 49.375C213.554 48.8116 213.069 48.0279 212.912 47.0241L215.419 46.7827C215.533 47.2751 215.775 47.6468 216.144 47.8977C216.513 48.1487 216.994 48.2741 217.586 48.2741C218.196 48.2741 218.686 48.1487 219.056 47.8977C219.43 47.6468 219.617 47.3366 219.617 46.9673C219.617 46.6548 219.496 46.3968 219.255 46.1932C219.018 45.9896 218.649 45.8333 218.147 45.7244L216.286 45.3338C215.239 45.116 214.465 44.7491 213.963 44.233C213.462 43.7121 213.213 43.054 213.218 42.2585C213.213 41.5862 213.395 41.0038 213.765 40.5114C214.139 40.0142 214.657 39.6307 215.32 39.3608C215.988 39.0862 216.757 38.9489 217.628 38.9489C218.907 38.9489 219.913 39.2211 220.647 39.7656C221.385 40.3101 221.842 41.0464 222.017 41.9744ZM232.994 41.9744L230.65 42.2301C230.584 41.9934 230.468 41.7708 230.302 41.5625C230.141 41.3542 229.923 41.1861 229.649 41.0582C229.374 40.9304 229.038 40.8665 228.64 40.8665C228.105 40.8665 227.655 40.9825 227.291 41.2145C226.931 41.4465 226.753 41.7472 226.758 42.1165C226.753 42.4337 226.869 42.6918 227.106 42.8906C227.348 43.0895 227.745 43.2528 228.299 43.3807L230.16 43.7784C231.192 44.0009 231.959 44.3537 232.461 44.8366C232.968 45.3196 233.224 45.9517 233.228 46.733C233.224 47.4195 233.022 48.0256 232.625 48.5511C232.232 49.072 231.685 49.4792 230.984 49.7727C230.283 50.0663 229.478 50.2131 228.569 50.2131C227.234 50.2131 226.159 49.9337 225.345 49.375C224.53 48.8116 224.045 48.0279 223.889 47.0241L226.396 46.7827C226.51 47.2751 226.751 47.6468 227.12 47.8977C227.49 48.1487 227.97 48.2741 228.562 48.2741C229.173 48.2741 229.663 48.1487 230.032 47.8977C230.406 47.6468 230.593 47.3366 230.593 46.9673C230.593 46.6548 230.473 46.3968 230.231 46.1932C229.994 45.9896 229.625 45.8333 229.123 45.7244L227.262 45.3338C226.216 45.116 225.442 44.7491 224.94 44.233C224.438 43.7121 224.19 43.054 224.194 42.2585C224.19 41.5862 224.372 41.0038 224.741 40.5114C225.115 40.0142 225.634 39.6307 226.297 39.3608C226.964 39.0862 227.734 38.9489 228.605 38.9489C229.883 38.9489 230.889 39.2211 231.623 39.7656C232.362 40.3101 232.819 41.0464 232.994 41.9744ZM240.178 50.2131C239.084 50.2131 238.14 49.9858 237.344 49.5312C236.553 49.072 235.945 48.4233 235.519 47.5852C235.093 46.7424 234.88 45.7505 234.88 44.6094C234.88 43.4872 235.093 42.5024 235.519 41.6548C235.95 40.8026 236.551 40.1397 237.323 39.6662C238.095 39.188 239.001 38.9489 240.043 38.9489C240.715 38.9489 241.35 39.0578 241.946 39.2756C242.548 39.4886 243.078 39.8201 243.537 40.2699C244.001 40.7197 244.366 41.2926 244.631 41.9886C244.896 42.6799 245.029 43.5038 245.029 44.4602V45.2486H236.087V43.5156H242.564C242.56 43.0232 242.453 42.5852 242.245 42.2017C242.036 41.8134 241.745 41.508 241.371 41.2855C241.002 41.063 240.571 40.9517 240.078 40.9517C239.553 40.9517 239.091 41.0795 238.694 41.3352C238.296 41.5862 237.986 41.9176 237.763 42.3295C237.545 42.7367 237.434 43.1842 237.429 43.6719V45.1847C237.429 45.8191 237.545 46.3636 237.777 46.8182C238.009 47.268 238.334 47.6136 238.75 47.8551C239.167 48.0919 239.655 48.2102 240.213 48.2102C240.587 48.2102 240.926 48.1581 241.229 48.054C241.532 47.9451 241.795 47.7865 242.017 47.5781C242.24 47.3698 242.408 47.1117 242.522 46.804L244.922 47.0739C244.771 47.7083 244.482 48.2623 244.056 48.7358C243.634 49.2045 243.095 49.5691 242.436 49.8295C241.778 50.0852 241.025 50.2131 240.178 50.2131ZM255.826 41.9744L253.482 42.2301C253.416 41.9934 253.3 41.7708 253.134 41.5625C252.973 41.3542 252.755 41.1861 252.481 41.0582C252.206 40.9304 251.87 40.8665 251.472 40.8665C250.937 40.8665 250.487 40.9825 250.123 41.2145C249.763 41.4465 249.585 41.7472 249.59 42.1165C249.585 42.4337 249.701 42.6918 249.938 42.8906C250.18 43.0895 250.577 43.2528 251.131 43.3807L252.992 43.7784C254.024 44.0009 254.791 44.3537 255.293 44.8366C255.8 45.3196 256.056 45.9517 256.06 46.733C256.056 47.4195 255.854 48.0256 255.457 48.5511C255.064 49.072 254.517 49.4792 253.816 49.7727C253.115 50.0663 252.31 50.2131 251.401 50.2131C250.066 50.2131 248.991 49.9337 248.177 49.375C247.362 48.8116 246.877 48.0279 246.721 47.0241L249.228 46.7827C249.342 47.2751 249.583 47.6468 249.952 47.8977C250.322 48.1487 250.802 48.2741 251.394 48.2741C252.005 48.2741 252.495 48.1487 252.864 47.8977C253.238 47.6468 253.425 47.3366 253.425 46.9673C253.425 46.6548 253.305 46.3968 253.063 46.1932C252.826 45.9896 252.457 45.8333 251.955 45.7244L250.094 45.3338C249.048 45.116 248.274 44.7491 247.772 44.233C247.27 43.7121 247.022 43.054 247.026 42.2585C247.022 41.5862 247.204 41.0038 247.573 40.5114C247.947 40.0142 248.466 39.6307 249.129 39.3608C249.796 39.0862 250.566 38.9489 251.437 38.9489C252.715 38.9489 253.721 39.2211 254.455 39.7656C255.194 40.3101 255.651 41.0464 255.826 41.9744ZM267.488 50.2131C266.494 50.2131 265.639 50.0331 264.924 49.6733C264.209 49.3134 263.657 48.8281 263.269 48.2173C262.886 47.6018 262.694 46.9081 262.694 46.1364C262.694 45.554 262.812 45.0379 263.049 44.5881C263.29 44.1383 263.622 43.7216 264.043 43.3381C264.469 42.9545 264.962 42.5734 265.521 42.1946L268.099 40.4403C268.478 40.1941 268.764 39.9337 268.958 39.6591C269.157 39.3845 269.256 39.0625 269.256 38.6932C269.256 38.3807 269.124 38.0848 268.859 37.8054C268.598 37.526 268.238 37.3864 267.779 37.3864C267.471 37.3864 267.199 37.4598 266.962 37.6065C266.73 37.7486 266.548 37.9356 266.415 38.1676C266.288 38.3996 266.224 38.6458 266.224 38.9062C266.224 39.2235 266.311 39.5455 266.487 39.8722C266.666 40.1989 266.898 40.5374 267.183 40.8878C267.471 41.2382 267.779 41.6098 268.106 42.0028L274.931 50H272.147L266.479 43.5085C266.058 43.0161 265.651 42.5308 265.258 42.0526C264.87 41.5743 264.55 41.0772 264.299 40.5611C264.053 40.0402 263.93 39.4768 263.93 38.8707C263.93 38.1842 264.088 37.571 264.406 37.0312C264.723 36.4867 265.165 36.0582 265.734 35.7457C266.307 35.4332 266.977 35.277 267.744 35.277C268.511 35.277 269.169 35.4285 269.718 35.7315C270.267 36.0346 270.691 36.437 270.989 36.9389C271.288 37.4408 271.437 37.9877 271.437 38.5795C271.437 39.2661 271.266 39.8816 270.925 40.4261C270.585 40.9659 270.111 41.456 269.505 41.8963L266.565 44.0483C266.082 44.3987 265.736 44.7538 265.528 45.1136C265.319 45.4687 265.215 45.7718 265.215 46.0227C265.215 46.4062 265.312 46.7543 265.506 47.0668C265.701 47.3793 265.973 47.6302 266.323 47.8196C266.678 48.0043 267.093 48.0966 267.566 48.0966C268.087 48.0966 268.601 47.9806 269.107 47.7486C269.614 47.5118 270.076 47.1757 270.492 46.7401C270.909 46.3045 271.24 45.7836 271.487 45.1776C271.733 44.5668 271.856 43.8897 271.856 43.1463H274.065C274.065 44.0649 273.963 44.8651 273.759 45.5469C273.556 46.224 273.293 46.7969 272.971 47.2656C272.649 47.7296 272.308 48.1013 271.948 48.3807C271.835 48.4612 271.726 48.5417 271.621 48.6222C271.517 48.7027 271.408 48.7831 271.295 48.8636C270.783 49.3277 270.184 49.6686 269.498 49.8864C268.816 50.1042 268.146 50.2131 267.488 50.2131ZM137.435 76V61.4545H142.889C144.007 61.4545 144.944 61.6487 145.702 62.0369C146.464 62.4252 147.039 62.9697 147.428 63.6705C147.821 64.3665 148.017 65.1785 148.017 66.1065C148.017 67.0393 147.818 67.849 147.42 68.5355C147.027 69.2173 146.447 69.7453 145.68 70.1193C144.913 70.4886 143.971 70.6733 142.854 70.6733H138.969V68.4858H142.499C143.152 68.4858 143.687 68.3958 144.104 68.2159C144.52 68.0312 144.828 67.7637 145.027 67.4134C145.231 67.0582 145.332 66.6226 145.332 66.1065C145.332 65.5904 145.231 65.1501 145.027 64.7855C144.823 64.4162 144.513 64.1368 144.097 63.9474C143.68 63.7533 143.143 63.6562 142.484 63.6562H140.07V76H137.435ZM144.949 69.4091L148.55 76H145.609L142.072 69.4091H144.949ZM155.002 76.2131C153.908 76.2131 152.964 75.9858 152.168 75.5312C151.378 75.072 150.769 74.4233 150.343 73.5852C149.917 72.7424 149.704 71.7505 149.704 70.6094C149.704 69.4872 149.917 68.5024 150.343 67.6548C150.774 66.8026 151.375 66.1397 152.147 65.6662C152.919 65.188 153.826 64.9489 154.867 64.9489C155.54 64.9489 156.174 65.0578 156.771 65.2756C157.372 65.4886 157.902 65.8201 158.362 66.2699C158.826 66.7197 159.19 67.2926 159.455 67.9886C159.72 68.6799 159.853 69.5038 159.853 70.4602V71.2486H150.911V69.5156H157.388C157.384 69.0232 157.277 68.5852 157.069 68.2017C156.861 67.8134 156.569 67.508 156.195 67.2855C155.826 67.063 155.395 66.9517 154.903 66.9517C154.377 66.9517 153.915 67.0795 153.518 67.3352C153.12 67.5862 152.81 67.9176 152.587 68.3295C152.37 68.7367 152.258 69.1842 152.254 69.6719V71.1847C152.254 71.8191 152.37 72.3636 152.602 72.8182C152.834 73.268 153.158 73.6136 153.575 73.8551C153.991 74.0919 154.479 74.2102 155.038 74.2102C155.412 74.2102 155.75 74.1581 156.053 74.054C156.356 73.9451 156.619 73.7865 156.842 73.5781C157.064 73.3698 157.232 73.1117 157.346 72.804L159.746 73.0739C159.595 73.7083 159.306 74.2623 158.88 74.7358C158.459 75.2045 157.919 75.5691 157.261 75.8295C156.603 76.0852 155.85 76.2131 155.002 76.2131ZM166.787 76.2131C165.698 76.2131 164.762 75.974 163.981 75.4957C163.205 75.0175 162.606 74.357 162.184 73.5142C161.768 72.6667 161.559 71.6913 161.559 70.5881C161.559 69.4801 161.772 68.5024 162.199 67.6548C162.625 66.8026 163.226 66.1397 164.002 65.6662C164.784 65.188 165.707 64.9489 166.772 64.9489C167.658 64.9489 168.441 65.1122 169.123 65.4389C169.81 65.7609 170.357 66.2178 170.764 66.8097C171.171 67.3968 171.403 68.0833 171.46 68.8693H169.002C168.903 68.3437 168.666 67.9058 168.292 67.5554C167.923 67.2003 167.428 67.0227 166.808 67.0227C166.282 67.0227 165.821 67.1648 165.423 67.4489C165.025 67.7282 164.715 68.1307 164.493 68.6562C164.275 69.1818 164.166 69.8116 164.166 70.5455C164.166 71.2888 164.275 71.928 164.493 72.4631C164.71 72.9934 165.016 73.4029 165.409 73.6918C165.806 73.9759 166.273 74.1179 166.808 74.1179C167.187 74.1179 167.525 74.0469 167.824 73.9048C168.127 73.758 168.38 73.5473 168.583 73.2727C168.787 72.9981 168.927 72.6643 169.002 72.2713H171.46C171.398 73.0431 171.171 73.7273 170.778 74.3239C170.385 74.9157 169.85 75.3797 169.173 75.7159C168.496 76.0473 167.7 76.2131 166.787 76.2131ZM178.33 76.2131C177.264 76.2131 176.341 75.9787 175.56 75.5099C174.778 75.0412 174.172 74.3854 173.741 73.5426C173.315 72.6998 173.102 71.715 173.102 70.5881C173.102 69.4612 173.315 68.474 173.741 67.6264C174.172 66.7789 174.778 66.1207 175.56 65.652C176.341 65.1832 177.264 64.9489 178.33 64.9489C179.395 64.9489 180.318 65.1832 181.099 65.652C181.881 66.1207 182.484 66.7789 182.911 67.6264C183.341 68.474 183.557 69.4612 183.557 70.5881C183.557 71.715 183.341 72.6998 182.911 73.5426C182.484 74.3854 181.881 75.0412 181.099 75.5099C180.318 75.9787 179.395 76.2131 178.33 76.2131ZM178.344 74.1534C178.921 74.1534 179.404 73.9948 179.793 73.6776C180.181 73.3556 180.47 72.9247 180.659 72.3849C180.853 71.8452 180.95 71.2438 180.95 70.581C180.95 69.9134 180.853 69.3097 180.659 68.7699C180.47 68.2254 180.181 67.7921 179.793 67.4702C179.404 67.1482 178.921 66.9872 178.344 66.9872C177.752 66.9872 177.259 67.1482 176.866 67.4702C176.478 67.7921 176.187 68.2254 175.993 68.7699C175.804 69.3097 175.709 69.9134 175.709 70.581C175.709 71.2438 175.804 71.8452 175.993 72.3849C176.187 72.9247 176.478 73.3556 176.866 73.6776C177.259 73.9948 177.752 74.1534 178.344 74.1534ZM185.739 76V65.0909H188.232V66.9091H188.346C188.544 66.2794 188.885 65.794 189.368 65.4531C189.856 65.1075 190.412 64.9347 191.037 64.9347C191.179 64.9347 191.338 64.9418 191.513 64.956C191.693 64.9654 191.842 64.982 191.961 65.0057V67.3707C191.852 67.3329 191.679 67.2997 191.442 67.2713C191.21 67.2382 190.985 67.2216 190.767 67.2216C190.299 67.2216 189.877 67.3234 189.503 67.527C189.134 67.7259 188.843 68.0028 188.63 68.358C188.417 68.7131 188.31 69.1226 188.31 69.5866V76H185.739ZM197.268 76.1918C196.411 76.1918 195.644 75.9716 194.967 75.5312C194.29 75.0909 193.754 74.4517 193.362 73.6136C192.969 72.7756 192.772 71.7576 192.772 70.5597C192.772 69.3475 192.971 68.3248 193.369 67.4915C193.771 66.6534 194.313 66.0213 194.995 65.5952C195.677 65.1643 196.437 64.9489 197.275 64.9489C197.914 64.9489 198.44 65.0578 198.852 65.2756C199.263 65.4886 199.59 65.7467 199.832 66.0497C200.073 66.348 200.26 66.6297 200.393 66.8949H200.499V61.4545H203.077V76H200.549V74.2812H200.393C200.26 74.5464 200.068 74.8281 199.817 75.1264C199.567 75.42 199.235 75.6709 198.823 75.8793C198.411 76.0876 197.893 76.1918 197.268 76.1918ZM197.985 74.0824C198.53 74.0824 198.994 73.9356 199.377 73.642C199.761 73.3437 200.052 72.9295 200.251 72.3991C200.45 71.8688 200.549 71.2509 200.549 70.5455C200.549 69.84 200.45 69.2268 200.251 68.706C200.057 68.1851 199.768 67.7803 199.384 67.4915C199.005 67.2027 198.539 67.0582 197.985 67.0582C197.412 67.0582 196.934 67.2074 196.55 67.5057C196.167 67.804 195.878 68.2159 195.684 68.7415C195.49 69.267 195.393 69.8684 195.393 70.5455C195.393 71.2273 195.49 71.8357 195.684 72.3707C195.883 72.901 196.174 73.3201 196.558 73.6278C196.946 73.9309 197.422 74.0824 197.985 74.0824ZM210.647 76.2131C209.553 76.2131 208.608 75.9858 207.813 75.5312C207.022 75.072 206.414 74.4233 205.988 73.5852C205.561 72.7424 205.348 71.7505 205.348 70.6094C205.348 69.4872 205.561 68.5024 205.988 67.6548C206.418 66.8026 207.02 66.1397 207.792 65.6662C208.563 65.188 209.47 64.9489 210.512 64.9489C211.184 64.9489 211.819 65.0578 212.415 65.2756C213.016 65.4886 213.547 65.8201 214.006 66.2699C214.47 66.7197 214.835 67.2926 215.1 67.9886C215.365 68.6799 215.498 69.5038 215.498 70.4602V71.2486H206.556V69.5156H213.033C213.028 69.0232 212.922 68.5852 212.713 68.2017C212.505 67.8134 212.214 67.508 211.84 67.2855C211.471 67.063 211.04 66.9517 210.547 66.9517C210.022 66.9517 209.56 67.0795 209.162 67.3352C208.765 67.5862 208.454 67.9176 208.232 68.3295C208.014 68.7367 207.903 69.1842 207.898 69.6719V71.1847C207.898 71.8191 208.014 72.3636 208.246 72.8182C208.478 73.268 208.802 73.6136 209.219 73.8551C209.636 74.0919 210.123 74.2102 210.682 74.2102C211.056 74.2102 211.395 74.1581 211.698 74.054C212.001 73.9451 212.264 73.7865 212.486 73.5781C212.709 73.3698 212.877 73.1117 212.99 72.804L215.391 73.0739C215.239 73.7083 214.951 74.2623 214.525 74.7358C214.103 75.2045 213.563 75.5691 212.905 75.8295C212.247 76.0852 211.494 76.2131 210.647 76.2131ZM221.721 76.1918C220.864 76.1918 220.097 75.9716 219.42 75.5312C218.743 75.0909 218.208 74.4517 217.815 73.6136C217.422 72.7756 217.225 71.7576 217.225 70.5597C217.225 69.3475 217.424 68.3248 217.822 67.4915C218.224 66.6534 218.766 66.0213 219.448 65.5952C220.13 65.1643 220.89 64.9489 221.728 64.9489C222.367 64.9489 222.893 65.0578 223.305 65.2756C223.717 65.4886 224.043 65.7467 224.285 66.0497C224.526 66.348 224.713 66.6297 224.846 66.8949H224.952V61.4545H227.531V76H225.002V74.2812H224.846C224.713 74.5464 224.522 74.8281 224.271 75.1264C224.02 75.42 223.688 75.6709 223.276 75.8793C222.864 76.0876 222.346 76.1918 221.721 76.1918ZM222.438 74.0824C222.983 74.0824 223.447 73.9356 223.83 73.642C224.214 73.3437 224.505 72.9295 224.704 72.3991C224.903 71.8688 225.002 71.2509 225.002 70.5455C225.002 69.84 224.903 69.2268 224.704 68.706C224.51 68.1851 224.221 67.7803 223.837 67.4915C223.459 67.2027 222.992 67.0582 222.438 67.0582C221.865 67.0582 221.387 67.2074 221.004 67.5057C220.62 67.804 220.331 68.2159 220.137 68.7415C219.943 69.267 219.846 69.8684 219.846 70.5455C219.846 71.2273 219.943 71.8357 220.137 72.3707C220.336 72.901 220.627 73.3201 221.011 73.6278C221.399 73.9309 221.875 74.0824 222.438 74.0824ZM235.345 76V61.4545H237.98V73.7912H244.386V76H235.345ZM251.389 76.2131C250.295 76.2131 249.35 75.9858 248.555 75.5312C247.764 75.072 247.156 74.4233 246.73 73.5852C246.304 72.7424 246.091 71.7505 246.091 70.6094C246.091 69.4872 246.304 68.5024 246.73 67.6548C247.161 66.8026 247.762 66.1397 248.534 65.6662C249.306 65.188 250.212 64.9489 251.254 64.9489C251.926 64.9489 252.561 65.0578 253.157 65.2756C253.759 65.4886 254.289 65.8201 254.748 66.2699C255.212 66.7197 255.577 67.2926 255.842 67.9886C256.107 68.6799 256.24 69.5038 256.24 70.4602V71.2486H247.298V69.5156H253.775C253.77 69.0232 253.664 68.5852 253.456 68.2017C253.247 67.8134 252.956 67.508 252.582 67.2855C252.213 67.063 251.782 66.9517 251.289 66.9517C250.764 66.9517 250.302 67.0795 249.904 67.3352C249.507 67.5862 249.197 67.9176 248.974 68.3295C248.756 68.7367 248.645 69.1842 248.64 69.6719V71.1847C248.64 71.8191 248.756 72.3636 248.988 72.8182C249.22 73.268 249.545 73.6136 249.961 73.8551C250.378 74.0919 250.866 74.2102 251.424 74.2102C251.798 74.2102 252.137 74.1581 252.44 74.054C252.743 73.9451 253.006 73.7865 253.228 73.5781C253.451 73.3698 253.619 73.1117 253.733 72.804L256.133 73.0739C255.982 73.7083 255.693 74.2623 255.267 74.7358C254.845 75.2045 254.306 75.5691 253.647 75.8295C252.989 76.0852 252.236 76.2131 251.389 76.2131ZM263.173 76.2131C262.084 76.2131 261.149 75.974 260.368 75.4957C259.591 75.0175 258.992 74.357 258.571 73.5142C258.154 72.6667 257.946 71.6913 257.946 70.5881C257.946 69.4801 258.159 68.5024 258.585 67.6548C259.011 66.8026 259.613 66.1397 260.389 65.6662C261.17 65.188 262.094 64.9489 263.159 64.9489C264.045 64.9489 264.828 65.1122 265.51 65.4389C266.196 65.7609 266.743 66.2178 267.151 66.8097C267.558 67.3968 267.79 68.0833 267.847 68.8693H265.389C265.29 68.3437 265.053 67.9058 264.679 67.5554C264.31 67.2003 263.815 67.0227 263.195 67.0227C262.669 67.0227 262.207 67.1648 261.81 67.4489C261.412 67.7282 261.102 68.1307 260.879 68.6562C260.661 69.1818 260.553 69.8116 260.553 70.5455C260.553 71.2888 260.661 71.928 260.879 72.4631C261.097 72.9934 261.402 73.4029 261.795 73.6918C262.193 73.9759 262.66 74.1179 263.195 74.1179C263.573 74.1179 263.912 74.0469 264.21 73.9048C264.513 73.758 264.767 73.5473 264.97 73.2727C265.174 72.9981 265.313 72.6643 265.389 72.2713H267.847C267.785 73.0431 267.558 73.7273 267.165 74.3239C266.772 74.9157 266.237 75.3797 265.56 75.7159C264.883 76.0473 264.087 76.2131 263.173 76.2131ZM275.405 65.0909V67.0795H269.134V65.0909H275.405ZM270.682 62.4773H273.253V72.7188C273.253 73.0644 273.305 73.3295 273.409 73.5142C273.518 73.6941 273.66 73.8172 273.836 73.8835C274.011 73.9498 274.205 73.983 274.418 73.983C274.579 73.983 274.726 73.9711 274.858 73.9474C274.996 73.9238 275.1 73.9025 275.171 73.8835L275.604 75.8935C275.467 75.9408 275.27 75.9929 275.015 76.0497C274.764 76.1065 274.456 76.1397 274.091 76.1491C273.447 76.1681 272.867 76.071 272.351 75.858C271.835 75.6402 271.426 75.304 271.123 74.8494C270.824 74.3949 270.677 73.8267 270.682 73.1449V62.4773ZM284.509 71.4119V65.0909H287.08V76H284.587V74.0611H284.473C284.227 74.6719 283.822 75.1714 283.259 75.5597C282.7 75.9479 282.011 76.142 281.192 76.142C280.477 76.142 279.845 75.9834 279.295 75.6662C278.751 75.3442 278.325 74.8778 278.017 74.267C277.709 73.6515 277.555 72.9081 277.555 72.0369V65.0909H280.126V71.6392C280.126 72.3305 280.316 72.8797 280.695 73.2869C281.073 73.6941 281.571 73.8977 282.186 73.8977C282.565 73.8977 282.932 73.8054 283.287 73.6207C283.642 73.4361 283.933 73.1615 284.161 72.7969C284.393 72.4276 284.509 71.9659 284.509 71.4119ZM289.723 76V65.0909H292.216V66.9091H292.33C292.529 66.2794 292.87 65.794 293.353 65.4531C293.84 65.1075 294.397 64.9347 295.022 64.9347C295.164 64.9347 295.322 64.9418 295.498 64.956C295.677 64.9654 295.827 64.982 295.945 65.0057V67.3707C295.836 67.3329 295.663 67.2997 295.426 67.2713C295.194 67.2382 294.97 67.2216 294.752 67.2216C294.283 67.2216 293.862 67.3234 293.488 67.527C293.118 67.7259 292.827 68.0028 292.614 68.358C292.401 68.7131 292.294 69.1226 292.294 69.5866V76H289.723ZM302.033 76.2131C300.94 76.2131 299.995 75.9858 299.2 75.5312C298.409 75.072 297.8 74.4233 297.374 73.5852C296.948 72.7424 296.735 71.7505 296.735 70.6094C296.735 69.4872 296.948 68.5024 297.374 67.6548C297.805 66.8026 298.406 66.1397 299.178 65.6662C299.95 65.188 300.857 64.9489 301.898 64.9489C302.571 64.9489 303.205 65.0578 303.802 65.2756C304.403 65.4886 304.933 65.8201 305.393 66.2699C305.857 66.7197 306.221 67.2926 306.487 67.9886C306.752 68.6799 306.884 69.5038 306.884 70.4602V71.2486H297.942V69.5156H304.42C304.415 69.0232 304.308 68.5852 304.1 68.2017C303.892 67.8134 303.601 67.508 303.227 67.2855C302.857 67.063 302.426 66.9517 301.934 66.9517C301.408 66.9517 300.947 67.0795 300.549 67.3352C300.151 67.5862 299.841 67.9176 299.619 68.3295C299.401 68.7367 299.29 69.1842 299.285 69.6719V71.1847C299.285 71.8191 299.401 72.3636 299.633 72.8182C299.865 73.268 300.189 73.6136 300.606 73.8551C301.022 74.0919 301.51 74.2102 302.069 74.2102C302.443 74.2102 302.781 74.1581 303.085 74.054C303.388 73.9451 303.65 73.7865 303.873 73.5781C304.095 73.3698 304.263 73.1117 304.377 72.804L306.778 73.0739C306.626 73.7083 306.337 74.2623 305.911 74.7358C305.49 75.2045 304.95 75.5691 304.292 75.8295C303.634 76.0852 302.881 76.2131 302.033 76.2131ZM317.681 67.9744L315.338 68.2301C315.271 67.9934 315.155 67.7708 314.99 67.5625C314.829 67.3542 314.611 67.1861 314.336 67.0582C314.062 66.9304 313.725 66.8665 313.328 66.8665C312.793 66.8665 312.343 66.9825 311.978 67.2145C311.618 67.4465 311.441 67.7472 311.446 68.1165C311.441 68.4337 311.557 68.6918 311.794 68.8906C312.035 69.0895 312.433 69.2528 312.987 69.3807L314.848 69.7784C315.88 70.0009 316.647 70.3537 317.149 70.8366C317.655 71.3196 317.911 71.9517 317.916 72.733C317.911 73.4195 317.71 74.0256 317.312 74.5511C316.919 75.072 316.372 75.4792 315.672 75.7727C314.971 76.0663 314.166 76.2131 313.257 76.2131C311.922 76.2131 310.847 75.9337 310.032 75.375C309.218 74.8116 308.733 74.0279 308.576 73.0241L311.083 72.7827C311.197 73.2751 311.439 73.6468 311.808 73.8977C312.177 74.1487 312.658 74.2741 313.25 74.2741C313.86 74.2741 314.35 74.1487 314.72 73.8977C315.094 73.6468 315.281 73.3366 315.281 72.9673C315.281 72.6548 315.16 72.3968 314.919 72.1932C314.682 71.9896 314.313 71.8333 313.811 71.7244L311.95 71.3338C310.904 71.116 310.129 70.7491 309.627 70.233C309.126 69.7121 308.877 69.054 308.882 68.2585C308.877 67.5862 309.059 67.0038 309.429 66.5114C309.803 66.0142 310.321 65.6307 310.984 65.3608C311.652 65.0862 312.421 64.9489 313.292 64.9489C314.571 64.9489 315.577 65.2211 316.311 65.7656C317.049 66.3101 317.506 67.0464 317.681 67.9744Z" fill="#0A2134"/>
<path d="M137.321 106V95.0909H141.135C141.895 95.0909 142.522 95.2223 143.015 95.4851C143.509 95.7443 143.876 96.0941 144.118 96.5344C144.359 96.9712 144.48 97.456 144.48 97.9886C144.48 98.4574 144.397 98.8445 144.23 99.1499C144.066 99.4553 143.85 99.6967 143.58 99.8743C143.314 100.052 143.024 100.183 142.712 100.268V100.375C143.045 100.396 143.381 100.513 143.718 100.727C144.056 100.94 144.338 101.245 144.565 101.643C144.793 102.04 144.906 102.527 144.906 103.102C144.906 103.649 144.782 104.141 144.533 104.578C144.285 105.015 143.892 105.361 143.356 105.616C142.82 105.872 142.122 106 141.263 106H137.321ZM138.642 104.828H141.263C142.126 104.828 142.738 104.661 143.1 104.327C143.466 103.99 143.649 103.582 143.649 103.102C143.649 102.733 143.555 102.392 143.367 102.08C143.179 101.763 142.911 101.511 142.562 101.323C142.214 101.131 141.803 101.036 141.327 101.036H138.642V104.828ZM138.642 99.8849H141.092C141.49 99.8849 141.849 99.8068 142.168 99.6506C142.491 99.4943 142.747 99.2741 142.935 98.9901C143.127 98.706 143.223 98.3722 143.223 97.9886C143.223 97.5092 143.056 97.1026 142.722 96.7688C142.388 96.4315 141.859 96.2628 141.135 96.2628H138.642V99.8849ZM150.337 106.17C149.548 106.17 148.868 105.996 148.297 105.648C147.729 105.297 147.29 104.807 146.981 104.178C146.676 103.546 146.523 102.811 146.523 101.973C146.523 101.135 146.676 100.396 146.981 99.7571C147.29 99.1143 147.72 98.6136 148.27 98.255C148.824 97.8928 149.47 97.7116 150.209 97.7116C150.635 97.7116 151.056 97.7827 151.471 97.9247C151.887 98.0668 152.265 98.2976 152.606 98.6172C152.947 98.9332 153.219 99.3523 153.421 99.8743C153.623 100.396 153.725 101.039 153.725 101.803V102.335H147.418V101.249H152.446C152.446 100.787 152.354 100.375 152.169 100.013C151.988 99.6506 151.729 99.3647 151.392 99.1552C151.058 98.9457 150.664 98.8409 150.209 98.8409C149.708 98.8409 149.275 98.9652 148.909 99.2138C148.547 99.4588 148.268 99.7784 148.073 100.173C147.878 100.567 147.78 100.989 147.78 101.44V102.165C147.78 102.783 147.887 103.306 148.1 103.736C148.316 104.162 148.616 104.487 149 104.711C149.383 104.931 149.829 105.041 150.337 105.041C150.667 105.041 150.965 104.995 151.232 104.903C151.502 104.807 151.734 104.665 151.93 104.477C152.125 104.285 152.276 104.047 152.382 103.763L153.597 104.104C153.469 104.516 153.254 104.878 152.952 105.19C152.65 105.499 152.278 105.741 151.834 105.915C151.39 106.085 150.891 106.17 150.337 106.17ZM161.432 99.6506L160.303 99.9702C160.232 99.782 160.127 99.5991 159.989 99.4215C159.854 99.2404 159.669 99.0913 159.435 98.9741C159.2 98.8569 158.9 98.7983 158.535 98.7983C158.034 98.7983 157.617 98.9137 157.283 99.1445C156.953 99.3718 156.787 99.6612 156.787 100.013C156.787 100.325 156.901 100.572 157.128 100.753C157.356 100.934 157.711 101.085 158.194 101.206L159.408 101.504C160.14 101.682 160.685 101.953 161.044 102.319C161.402 102.681 161.581 103.148 161.581 103.72C161.581 104.189 161.447 104.608 161.177 104.977C160.91 105.347 160.537 105.638 160.058 105.851C159.579 106.064 159.021 106.17 158.385 106.17C157.551 106.17 156.86 105.989 156.313 105.627C155.767 105.265 155.42 104.736 155.275 104.04L156.468 103.741C156.581 104.182 156.796 104.512 157.112 104.732C157.432 104.952 157.849 105.062 158.364 105.062C158.95 105.062 159.415 104.938 159.76 104.69C160.108 104.437 160.282 104.136 160.282 103.784C160.282 103.5 160.182 103.262 159.983 103.07C159.785 102.875 159.479 102.729 159.067 102.634L157.704 102.314C156.954 102.136 156.404 101.861 156.052 101.488C155.704 101.112 155.53 100.641 155.53 100.077C155.53 99.6151 155.66 99.2067 155.919 98.8516C156.182 98.4964 156.539 98.2177 156.99 98.0153C157.444 97.8129 157.959 97.7116 158.535 97.7116C159.344 97.7116 159.98 97.8892 160.442 98.2443C160.907 98.5994 161.237 99.0682 161.432 99.6506ZM167.032 97.8182V98.8835H162.792V97.8182H167.032ZM164.028 95.858H165.285V103.656C165.285 104.011 165.336 104.278 165.439 104.455C165.546 104.629 165.681 104.746 165.844 104.807C166.011 104.864 166.187 104.892 166.372 104.892C166.51 104.892 166.624 104.885 166.712 104.871C166.801 104.853 166.872 104.839 166.926 104.828L167.181 105.957C167.096 105.989 166.977 106.021 166.824 106.053C166.672 106.089 166.478 106.107 166.244 106.107C165.889 106.107 165.541 106.03 165.2 105.877C164.862 105.725 164.582 105.492 164.358 105.18C164.138 104.867 164.028 104.473 164.028 103.997V95.858ZM176.466 106.17C175.727 106.17 175.079 105.995 174.521 105.643C173.967 105.292 173.534 104.8 173.222 104.168C172.913 103.536 172.758 102.797 172.758 101.952C172.758 101.099 172.913 100.355 173.222 99.7198C173.534 99.0842 173.967 98.5906 174.521 98.239C175.079 97.8874 175.727 97.7116 176.466 97.7116C177.204 97.7116 177.851 97.8874 178.405 98.239C178.962 98.5906 179.395 99.0842 179.704 99.7198C180.017 100.355 180.173 101.099 180.173 101.952C180.173 102.797 180.017 103.536 179.704 104.168C179.395 104.8 178.962 105.292 178.405 105.643C177.851 105.995 177.204 106.17 176.466 106.17ZM176.466 105.041C177.027 105.041 177.488 104.897 177.851 104.61C178.213 104.322 178.481 103.944 178.655 103.475C178.829 103.006 178.916 102.499 178.916 101.952C178.916 101.405 178.829 100.895 178.655 100.423C178.481 99.9506 178.213 99.5689 177.851 99.2777C177.488 98.9865 177.027 98.8409 176.466 98.8409C175.905 98.8409 175.443 98.9865 175.081 99.2777C174.718 99.5689 174.45 99.9506 174.276 100.423C174.102 100.895 174.015 101.405 174.015 101.952C174.015 102.499 174.102 103.006 174.276 103.475C174.45 103.944 174.718 104.322 175.081 104.61C175.443 104.897 175.905 105.041 176.466 105.041ZM185.735 97.8182V98.8835H181.325V97.8182H185.735ZM182.646 106V96.6889C182.646 96.2202 182.756 95.8295 182.976 95.517C183.196 95.2045 183.482 94.9702 183.834 94.8139C184.185 94.6577 184.556 94.5795 184.947 94.5795C185.256 94.5795 185.508 94.6044 185.703 94.6541C185.899 94.7038 186.044 94.75 186.14 94.7926L185.778 95.8793C185.714 95.858 185.625 95.8313 185.512 95.7994C185.402 95.7674 185.256 95.7514 185.075 95.7514C184.659 95.7514 184.359 95.8562 184.175 96.0657C183.994 96.2752 183.903 96.5824 183.903 96.9872V106H182.646ZM191.886 106V95.0909H193.144V99.1179H193.25C193.342 98.9759 193.47 98.7947 193.634 98.5746C193.801 98.3509 194.038 98.152 194.347 97.978C194.66 97.8004 195.082 97.7116 195.615 97.7116C196.304 97.7116 196.911 97.8839 197.437 98.2283C197.962 98.5728 198.373 99.0611 198.667 99.6932C198.962 100.325 199.109 101.071 199.109 101.93C199.109 102.797 198.962 103.548 198.667 104.184C198.373 104.816 197.964 105.306 197.442 105.654C196.92 105.998 196.318 106.17 195.636 106.17C195.111 106.17 194.69 106.083 194.374 105.909C194.058 105.732 193.815 105.531 193.644 105.308C193.474 105.08 193.342 104.892 193.25 104.743H193.101V106H191.886ZM193.122 101.909C193.122 102.527 193.213 103.072 193.394 103.544C193.575 104.013 193.84 104.381 194.188 104.647C194.536 104.91 194.962 105.041 195.466 105.041C195.992 105.041 196.43 104.903 196.782 104.626C197.137 104.345 197.403 103.969 197.581 103.496C197.762 103.021 197.852 102.491 197.852 101.909C197.852 101.334 197.764 100.815 197.586 100.354C197.412 99.8885 197.147 99.521 196.792 99.2511C196.441 98.9776 195.999 98.8409 195.466 98.8409C194.955 98.8409 194.525 98.9705 194.177 99.2298C193.829 99.4854 193.566 99.8441 193.389 100.306C193.211 100.764 193.122 101.298 193.122 101.909ZM204.356 106.17C203.618 106.17 202.97 105.995 202.412 105.643C201.858 105.292 201.425 104.8 201.112 104.168C200.803 103.536 200.649 102.797 200.649 101.952C200.649 101.099 200.803 100.355 201.112 99.7198C201.425 99.0842 201.858 98.5906 202.412 98.239C202.97 97.8874 203.618 97.7116 204.356 97.7116C205.095 97.7116 205.741 97.8874 206.295 98.239C206.853 98.5906 207.286 99.0842 207.595 99.7198C207.907 100.355 208.064 101.099 208.064 101.952C208.064 102.797 207.907 103.536 207.595 104.168C207.286 104.8 206.853 105.292 206.295 105.643C205.741 105.995 205.095 106.17 204.356 106.17ZM204.356 105.041C204.917 105.041 205.379 104.897 205.741 104.61C206.103 104.322 206.372 103.944 206.546 103.475C206.72 103.006 206.807 102.499 206.807 101.952C206.807 101.405 206.72 100.895 206.546 100.423C206.372 99.9506 206.103 99.5689 205.741 99.2777C205.379 98.9865 204.917 98.8409 204.356 98.8409C203.795 98.8409 203.334 98.9865 202.971 99.2777C202.609 99.5689 202.341 99.9506 202.167 100.423C201.993 100.895 201.906 101.405 201.906 101.952C201.906 102.499 201.993 103.006 202.167 103.475C202.341 103.944 202.609 104.322 202.971 104.61C203.334 104.897 203.795 105.041 204.356 105.041ZM213.541 97.8182V98.8835H209.301V97.8182H213.541ZM210.537 95.858H211.794V103.656C211.794 104.011 211.845 104.278 211.948 104.455C212.055 104.629 212.19 104.746 212.353 104.807C212.52 104.864 212.696 104.892 212.88 104.892C213.019 104.892 213.132 104.885 213.221 104.871C213.31 104.853 213.381 104.839 213.434 104.828L213.69 105.957C213.605 105.989 213.486 106.021 213.333 106.053C213.18 106.089 212.987 106.107 212.752 106.107C212.397 106.107 212.049 106.03 211.708 105.877C211.371 105.725 211.091 105.492 210.867 105.18C210.647 104.867 210.537 104.473 210.537 103.997V95.858ZM216.865 101.078V106H215.608V95.0909H216.865V99.0966H216.971C217.163 98.674 217.451 98.3384 217.834 98.0898C218.221 97.8377 218.736 97.7116 219.379 97.7116C219.936 97.7116 220.425 97.8235 220.844 98.0472C221.263 98.2674 221.588 98.6065 221.819 99.0646C222.053 99.5192 222.17 100.098 222.17 100.801V106H220.913V100.886C220.913 100.237 220.744 99.734 220.407 99.3789C220.073 99.0202 219.61 98.8409 219.017 98.8409C218.605 98.8409 218.235 98.9279 217.909 99.1019C217.586 99.2759 217.33 99.5298 217.142 99.8636C216.957 100.197 216.865 100.602 216.865 101.078ZM230.542 106L228.049 97.8182H229.37L231.139 104.082H231.224L232.971 97.8182H234.314L236.04 104.061H236.125L237.893 97.8182H239.214L236.721 106H235.486L233.696 99.7145H233.568L231.778 106H230.542ZM243.922 106.17C243.183 106.17 242.535 105.995 241.977 105.643C241.423 105.292 240.99 104.8 240.678 104.168C240.369 103.536 240.214 102.797 240.214 101.952C240.214 101.099 240.369 100.355 240.678 99.7198C240.99 99.0842 241.423 98.5906 241.977 98.239C242.535 97.8874 243.183 97.7116 243.922 97.7116C244.66 97.7116 245.307 97.8874 245.861 98.239C246.418 98.5906 246.851 99.0842 247.16 99.7198C247.473 100.355 247.629 101.099 247.629 101.952C247.629 102.797 247.473 103.536 247.16 104.168C246.851 104.8 246.418 105.292 245.861 105.643C245.307 105.995 244.66 106.17 243.922 106.17ZM243.922 105.041C244.483 105.041 244.944 104.897 245.307 104.61C245.669 104.322 245.937 103.944 246.111 103.475C246.285 103.006 246.372 102.499 246.372 101.952C246.372 101.405 246.285 100.895 246.111 100.423C245.937 99.9506 245.669 99.5689 245.307 99.2777C244.944 98.9865 244.483 98.8409 243.922 98.8409C243.361 98.8409 242.899 98.9865 242.537 99.2777C242.175 99.5689 241.906 99.9506 241.732 100.423C241.558 100.895 241.471 101.405 241.471 101.952C241.471 102.499 241.558 103.006 241.732 103.475C241.906 103.944 242.175 104.322 242.537 104.61C242.899 104.897 243.361 105.041 243.922 105.041ZM249.548 106V97.8182H250.763V99.054H250.848C250.997 98.6491 251.267 98.3207 251.657 98.0685C252.048 97.8164 252.488 97.6903 252.978 97.6903C253.071 97.6903 253.186 97.6921 253.325 97.6957C253.463 97.6992 253.568 97.7045 253.639 97.7116V98.9901C253.596 98.9794 253.499 98.9634 253.346 98.9421C253.197 98.9173 253.039 98.9048 252.872 98.9048C252.474 98.9048 252.119 98.9883 251.807 99.1552C251.498 99.3185 251.253 99.5458 251.071 99.837C250.894 100.125 250.805 100.453 250.805 100.822V106H249.548ZM256.386 95.0909V106H255.129V95.0909H256.386ZM261.778 106.17C261.096 106.17 260.494 105.998 259.972 105.654C259.45 105.306 259.042 104.816 258.747 104.184C258.453 103.548 258.305 102.797 258.305 101.93C258.305 101.071 258.453 100.325 258.747 99.6932C259.042 99.0611 259.452 98.5728 259.978 98.2283C260.503 97.8839 261.111 97.7116 261.799 97.7116C262.332 97.7116 262.753 97.8004 263.062 97.978C263.374 98.152 263.612 98.3509 263.776 98.5746C263.943 98.7947 264.072 98.9759 264.165 99.1179H264.271V95.0909H265.528V106H264.314V104.743H264.165C264.072 104.892 263.941 105.08 263.77 105.308C263.6 105.531 263.357 105.732 263.041 105.909C262.725 106.083 262.304 106.17 261.778 106.17ZM261.949 105.041C262.453 105.041 262.879 104.91 263.227 104.647C263.575 104.381 263.84 104.013 264.021 103.544C264.202 103.072 264.292 102.527 264.292 101.909C264.292 101.298 264.204 100.764 264.026 100.306C263.848 99.8441 263.586 99.4854 263.238 99.2298C262.89 98.9705 262.46 98.8409 261.949 98.8409C261.416 98.8409 260.972 98.9776 260.617 99.2511C260.265 99.521 260.001 99.8885 259.823 100.354C259.649 100.815 259.562 101.334 259.562 101.909C259.562 102.491 259.651 103.021 259.829 103.496C260.01 103.969 260.276 104.345 260.628 104.626C260.983 104.903 261.423 105.041 261.949 105.041ZM273.801 99.6506L272.671 99.9702C272.6 99.782 272.495 99.5991 272.357 99.4215C272.222 99.2404 272.037 99.0913 271.803 98.9741C271.569 98.8569 271.269 98.7983 270.903 98.7983C270.402 98.7983 269.985 98.9137 269.651 99.1445C269.321 99.3718 269.156 99.6612 269.156 100.013C269.156 100.325 269.269 100.572 269.497 100.753C269.724 100.934 270.079 101.085 270.562 101.206L271.776 101.504C272.508 101.682 273.053 101.953 273.412 102.319C273.77 102.681 273.95 103.148 273.95 103.72C273.95 104.189 273.815 104.608 273.545 104.977C273.278 105.347 272.906 105.638 272.426 105.851C271.947 106.064 271.389 106.17 270.754 106.17C269.919 106.17 269.228 105.989 268.682 105.627C268.135 105.265 267.788 104.736 267.643 104.04L268.836 103.741C268.95 104.182 269.165 104.512 269.481 104.732C269.8 104.952 270.217 105.062 270.732 105.062C271.318 105.062 271.783 104.938 272.128 104.69C272.476 104.437 272.65 104.136 272.65 103.784C272.65 103.5 272.551 103.262 272.352 103.07C272.153 102.875 271.847 102.729 271.435 102.634L270.072 102.314C269.323 102.136 268.772 101.861 268.421 101.488C268.073 101.112 267.899 100.641 267.899 100.077C267.899 99.6151 268.028 99.2067 268.287 98.8516C268.55 98.4964 268.907 98.2177 269.358 98.0153C269.813 97.8129 270.328 97.7116 270.903 97.7116C271.712 97.7116 272.348 97.8892 272.81 98.2443C273.275 98.5994 273.605 99.0682 273.801 99.6506ZM283.385 106.17C282.646 106.17 281.998 105.995 281.44 105.643C280.886 105.292 280.453 104.8 280.141 104.168C279.832 103.536 279.677 102.797 279.677 101.952C279.677 101.099 279.832 100.355 280.141 99.7198C280.453 99.0842 280.886 98.5906 281.44 98.239C281.998 97.8874 282.646 97.7116 283.385 97.7116C284.123 97.7116 284.77 97.8874 285.324 98.239C285.881 98.5906 286.314 99.0842 286.623 99.7198C286.936 100.355 287.092 101.099 287.092 101.952C287.092 102.797 286.936 103.536 286.623 104.168C286.314 104.8 285.881 105.292 285.324 105.643C284.77 105.995 284.123 106.17 283.385 106.17ZM283.385 105.041C283.946 105.041 284.407 104.897 284.77 104.61C285.132 104.322 285.4 103.944 285.574 103.475C285.748 103.006 285.835 102.499 285.835 101.952C285.835 101.405 285.748 100.895 285.574 100.423C285.4 99.9506 285.132 99.5689 284.77 99.2777C284.407 98.9865 283.946 98.8409 283.385 98.8409C282.824 98.8409 282.362 98.9865 282 99.2777C281.637 99.5689 281.369 99.9506 281.195 100.423C281.021 100.895 280.934 101.405 280.934 101.952C280.934 102.499 281.021 103.006 281.195 103.475C281.369 103.944 281.637 104.322 282 104.61C282.362 104.897 282.824 105.041 283.385 105.041ZM292.654 97.8182V98.8835H288.244V97.8182H292.654ZM289.565 106V96.6889C289.565 96.2202 289.675 95.8295 289.895 95.517C290.115 95.2045 290.401 94.9702 290.753 94.8139C291.104 94.6577 291.475 94.5795 291.866 94.5795C292.175 94.5795 292.427 94.6044 292.622 94.6541C292.818 94.7038 292.963 94.75 293.059 94.7926L292.697 95.8793C292.633 95.858 292.544 95.8313 292.431 95.7994C292.321 95.7674 292.175 95.7514 291.994 95.7514C291.578 95.7514 291.278 95.8562 291.094 96.0657C290.913 96.2752 290.822 96.5824 290.822 96.9872V106H289.565ZM299.892 95.0909V106H298.635V95.0909H299.892ZM305.625 106.17C304.837 106.17 304.157 105.996 303.585 105.648C303.017 105.297 302.578 104.807 302.269 104.178C301.964 103.546 301.811 102.811 301.811 101.973C301.811 101.135 301.964 100.396 302.269 99.7571C302.578 99.1143 303.008 98.6136 303.558 98.255C304.112 97.8928 304.758 97.7116 305.497 97.7116C305.923 97.7116 306.344 97.7827 306.759 97.9247C307.175 98.0668 307.553 98.2976 307.894 98.6172C308.235 98.9332 308.507 99.3523 308.709 99.8743C308.911 100.396 309.013 101.039 309.013 101.803V102.335H302.706V101.249H307.734C307.734 100.787 307.642 100.375 307.457 100.013C307.276 99.6506 307.017 99.3647 306.68 99.1552C306.346 98.9457 305.952 98.8409 305.497 98.8409C304.996 98.8409 304.563 98.9652 304.197 99.2138C303.835 99.4588 303.556 99.7784 303.361 100.173C303.166 100.567 303.068 100.989 303.068 101.44V102.165C303.068 102.783 303.175 103.306 303.388 103.736C303.604 104.162 303.904 104.487 304.288 104.711C304.671 104.931 305.117 105.041 305.625 105.041C305.955 105.041 306.253 104.995 306.52 104.903C306.79 104.807 307.022 104.665 307.218 104.477C307.413 104.285 307.564 104.047 307.67 103.763L308.885 104.104C308.757 104.516 308.542 104.878 308.24 105.19C307.938 105.499 307.566 105.741 307.122 105.915C306.678 106.085 306.179 106.17 305.625 106.17ZM313.333 106.192C312.814 106.192 312.344 106.094 311.921 105.899C311.498 105.7 311.163 105.414 310.914 105.041C310.666 104.665 310.541 104.21 310.541 103.678C310.541 103.209 310.634 102.829 310.818 102.538C311.003 102.243 311.25 102.012 311.559 101.845C311.868 101.678 312.209 101.554 312.582 101.472C312.958 101.387 313.336 101.32 313.716 101.27C314.213 101.206 314.616 101.158 314.925 101.126C315.238 101.091 315.465 101.032 315.607 100.95C315.753 100.869 315.826 100.727 315.826 100.524V100.482C315.826 99.956 315.682 99.5476 315.394 99.2564C315.11 98.9652 314.679 98.8196 314.1 98.8196C313.5 98.8196 313.029 98.951 312.688 99.2138C312.347 99.4766 312.108 99.7571 311.969 100.055L310.776 99.6293C310.989 99.1321 311.273 98.745 311.628 98.468C311.987 98.1875 312.377 97.9922 312.8 97.8821C313.226 97.7685 313.645 97.7116 314.057 97.7116C314.32 97.7116 314.622 97.7436 314.963 97.8075C315.307 97.8679 315.639 97.994 315.959 98.1857C316.282 98.3775 316.55 98.6669 316.763 99.054C316.976 99.4411 317.083 99.9595 317.083 100.609V106H315.826V104.892H315.762C315.676 105.07 315.534 105.26 315.335 105.462C315.137 105.664 314.872 105.837 314.542 105.979C314.212 106.121 313.809 106.192 313.333 106.192ZM313.524 105.062C314.022 105.062 314.441 104.965 314.782 104.77C315.126 104.574 315.385 104.322 315.559 104.013C315.737 103.704 315.826 103.379 315.826 103.038V101.888C315.772 101.952 315.655 102.01 315.474 102.064C315.296 102.113 315.09 102.158 314.856 102.197C314.625 102.232 314.4 102.264 314.18 102.293C313.963 102.317 313.787 102.339 313.652 102.357C313.326 102.399 313.02 102.468 312.736 102.564C312.456 102.657 312.228 102.797 312.054 102.985C311.884 103.17 311.799 103.422 311.799 103.741C311.799 104.178 311.96 104.509 312.283 104.732C312.61 104.952 313.024 105.062 313.524 105.062ZM319.377 106V97.8182H320.592V99.054H320.677C320.826 98.6491 321.096 98.3207 321.487 98.0685C321.877 97.8164 322.317 97.6903 322.808 97.6903C322.9 97.6903 323.015 97.6921 323.154 97.6957C323.292 97.6992 323.397 97.7045 323.468 97.7116V98.9901C323.425 98.9794 323.328 98.9634 323.175 98.9421C323.026 98.9173 322.868 98.9048 322.701 98.9048C322.303 98.9048 321.948 98.9883 321.636 99.1552C321.327 99.3185 321.082 99.5458 320.901 99.837C320.723 100.125 320.634 100.453 320.634 100.822V106H319.377ZM326.215 101.078V106H324.958V97.8182H326.173V99.0966H326.279C326.471 98.6811 326.762 98.3473 327.153 98.0952C327.543 97.8395 328.048 97.7116 328.666 97.7116C329.22 97.7116 329.704 97.8253 330.12 98.0526C330.535 98.2763 330.858 98.6172 331.089 99.0753C331.32 99.5298 331.435 100.105 331.435 100.801V106H330.178V100.886C330.178 100.244 330.011 99.7429 329.678 99.3842C329.344 99.022 328.886 98.8409 328.303 98.8409C327.902 98.8409 327.543 98.9279 327.227 99.1019C326.915 99.2759 326.668 99.5298 326.487 99.8636C326.306 100.197 326.215 100.602 326.215 101.078ZM333.733 106V97.8182H334.99V106H333.733ZM334.372 96.4545C334.127 96.4545 333.915 96.3711 333.738 96.2042C333.564 96.0373 333.477 95.8366 333.477 95.6023C333.477 95.3679 333.564 95.1673 333.738 95.0004C333.915 94.8335 334.127 94.75 334.372 94.75C334.617 94.75 334.826 94.8335 335 95.0004C335.178 95.1673 335.267 95.3679 335.267 95.6023C335.267 95.8366 335.178 96.0373 335 96.2042C334.826 96.3711 334.617 96.4545 334.372 96.4545ZM338.549 101.078V106H337.292V97.8182H338.507V99.0966H338.613C338.805 98.6811 339.096 98.3473 339.487 98.0952C339.877 97.8395 340.382 97.7116 341 97.7116C341.554 97.7116 342.038 97.8253 342.454 98.0526C342.869 98.2763 343.192 98.6172 343.423 99.0753C343.654 99.5298 343.769 100.105 343.769 100.801V106H342.512V100.886C342.512 100.244 342.345 99.7429 342.012 99.3842C341.678 99.022 341.22 98.8409 340.637 98.8409C340.236 98.8409 339.877 98.9279 339.561 99.1019C339.249 99.2759 339.002 99.5298 338.821 99.8636C338.64 100.197 338.549 100.602 338.549 101.078ZM349.369 109.239C348.762 109.239 348.24 109.161 347.803 109.004C347.366 108.852 347.002 108.649 346.711 108.397C346.423 108.148 346.194 107.882 346.024 107.598L347.025 106.895C347.139 107.044 347.283 107.214 347.457 107.406C347.631 107.602 347.869 107.77 348.171 107.912C348.476 108.058 348.876 108.131 349.369 108.131C350.03 108.131 350.575 107.971 351.004 107.651C351.434 107.332 351.649 106.831 351.649 106.149V104.487H351.542C351.45 104.636 351.319 104.821 351.148 105.041C350.981 105.258 350.74 105.451 350.424 105.622C350.111 105.789 349.689 105.872 349.156 105.872C348.496 105.872 347.903 105.716 347.377 105.403C346.855 105.091 346.441 104.636 346.136 104.04C345.834 103.443 345.683 102.719 345.683 101.866C345.683 101.028 345.83 100.299 346.125 99.6772C346.42 99.0522 346.83 98.5692 347.356 98.2283C347.881 97.8839 348.488 97.7116 349.177 97.7116C349.71 97.7116 350.133 97.8004 350.445 97.978C350.761 98.152 351.003 98.3509 351.17 98.5746C351.34 98.7947 351.471 98.9759 351.564 99.1179H351.692V97.8182H352.906V106.234C352.906 106.938 352.746 107.509 352.427 107.95C352.111 108.393 351.684 108.718 351.148 108.924C350.616 109.134 350.023 109.239 349.369 109.239ZM349.327 104.743C349.831 104.743 350.257 104.627 350.605 104.397C350.953 104.166 351.218 103.834 351.399 103.401C351.58 102.967 351.67 102.449 351.67 101.845C351.67 101.256 351.581 100.735 351.404 100.284C351.226 99.8335 350.964 99.4801 350.616 99.2244C350.268 98.9687 349.838 98.8409 349.327 98.8409C348.794 98.8409 348.35 98.9759 347.995 99.2457C347.643 99.5156 347.379 99.8778 347.201 100.332C347.027 100.787 346.94 101.291 346.94 101.845C346.94 102.413 347.029 102.916 347.206 103.353C347.388 103.786 347.654 104.127 348.006 104.375C348.361 104.62 348.801 104.743 349.327 104.743Z" fill="#43505B"/>
<defs>
<filter id="filter0_d_4411_1623" x="0" y="0" width="406" height="154" filterUnits="userSpaceOnUse" color-interpolation-filters="sRGB">
<feFlood flood-opacity="0" result="BackgroundImageFix"/>
<feColorMatrix in="SourceAlpha" type="matrix" values="0 0 0 0 0 0 0 0 0 0 0 0 0 0 0 0 0 0 127 0" result="hardAlpha"/>
<feMorphology radius="2" operator="erode" in="SourceAlpha" result="effect1_dropShadow_4411_1623"/>
<feOffset dy="4"/>
<feGaussianBlur stdDeviation="10"/>
<feColorMatrix type="matrix" values="0 0 0 0 0 0 0 0 0 0.184314 0 0 0 0 0.345098 0 0 0 0.08 0"/>
<feBlend mode="normal" in2="BackgroundImageFix" result="effect1_dropShadow_4411_1623"/>
<feBlend mode="normal" in="SourceGraphic" in2="effect1_dropShadow_4411_1623" result="shape"/>
</filter>
</defs>
</svg>
