<svg width="406" height="154" viewBox="0 0 406 154" fill="none" xmlns="http://www.w3.org/2000/svg">
<g filter="url(#filter0_d_4411_1665)">
<rect x="18" y="14" width="370" height="118" rx="8" fill="white"/>
</g>
<rect x="34" y="30" width="86" height="86" rx="8" fill="#FDEFEF"/>
<path d="M84.8789 73.8259H84.8969" stroke="#EF6767" stroke-width="2.5" stroke-linecap="round" stroke-linejoin="round"/>
<path d="M76.8604 73.8262H76.8784" stroke="#EF6767" stroke-width="2.5" stroke-linecap="round" stroke-linejoin="round"/>
<path d="M68.8428 73.8259H68.8608" stroke="#EF6767" stroke-width="2.5" stroke-linecap="round" stroke-linejoin="round"/>
<path fill-rule="evenodd" clip-rule="evenodd" d="M91.1421 87.1397C85.0319 93.2527 75.9792 94.5734 68.5726 91.148C67.4792 90.7078 60.4023 92.6677 58.8667 91.134C57.3311 89.5982 59.2928 82.5203 58.8526 81.4267C55.4257 74.0211 56.7482 64.9652 62.8604 58.8542C70.6629 51.0486 83.3395 51.0486 91.1421 58.8542C98.9607 66.6719 98.9446 79.3361 91.1421 87.1397Z" stroke="#EF6767" stroke-width="2.5" stroke-linecap="round" stroke-linejoin="round"/>
<path d="M137.03 47.3011V45.206L143.202 35.4545H144.949V38.4375H143.884L139.729 45.0213V45.1349H148.344V47.3011H137.03ZM143.969 50V46.6619L143.997 45.7244V35.4545H146.483V50H143.969ZM155.716 50V35.4545H158.351V47.7912H164.757V50H155.716ZM166.93 50V39.0909H169.501V50H166.93ZM168.223 37.5426C167.816 37.5426 167.465 37.4077 167.172 37.1378C166.878 36.8632 166.732 36.5341 166.732 36.1506C166.732 35.7623 166.878 35.4332 167.172 35.1634C167.465 34.8887 167.816 34.7514 168.223 34.7514C168.635 34.7514 168.985 34.8887 169.274 35.1634C169.568 35.4332 169.714 35.7623 169.714 36.1506C169.714 36.5341 169.568 36.8632 169.274 37.1378C168.985 37.4077 168.635 37.5426 168.223 37.5426ZM181.89 39.0909L178.005 50H175.164L171.279 39.0909H174.02L176.527 47.1946H176.641L179.155 39.0909H181.89ZM188.127 50.2131C187.033 50.2131 186.089 49.9858 185.293 49.5312C184.503 49.072 183.894 48.4233 183.468 47.5852C183.042 46.7424 182.829 45.7505 182.829 44.6094C182.829 43.4872 183.042 42.5024 183.468 41.6548C183.899 40.8026 184.5 40.1397 185.272 39.6662C186.044 39.188 186.951 38.9489 187.992 38.9489C188.665 38.9489 189.299 39.0578 189.896 39.2756C190.497 39.4886 191.027 39.8201 191.487 40.2699C191.951 40.7197 192.315 41.2926 192.58 41.9886C192.845 42.6799 192.978 43.5038 192.978 44.4602V45.2486H184.036V43.5156H190.513C190.509 43.0232 190.402 42.5852 190.194 42.2017C189.986 41.8134 189.694 41.508 189.32 41.2855C188.951 41.063 188.52 40.9517 188.028 40.9517C187.502 40.9517 187.04 41.0795 186.643 41.3352C186.245 41.5862 185.935 41.9176 185.712 42.3295C185.495 42.7367 185.383 43.1842 185.379 43.6719V45.1847C185.379 45.8191 185.495 46.3636 185.727 46.8182C185.959 47.268 186.283 47.6136 186.7 47.8551C187.116 48.0919 187.604 48.2102 188.163 48.2102C188.537 48.2102 188.875 48.1581 189.178 48.054C189.481 47.9451 189.744 47.7865 189.967 47.5781C190.189 47.3698 190.357 47.1117 190.471 46.804L192.871 47.0739C192.72 47.7083 192.431 48.2623 192.005 48.7358C191.584 49.2045 191.044 49.5691 190.386 49.8295C189.728 50.0852 188.975 50.2131 188.127 50.2131ZM205.157 50H200.228V35.4545H205.256C206.7 35.4545 207.941 35.7457 208.978 36.3281C210.019 36.9058 210.819 37.7367 211.378 38.821C211.937 39.9053 212.216 41.2027 212.216 42.7131C212.216 44.2282 211.935 45.5303 211.371 46.6193C210.812 47.7083 210.005 48.544 208.949 49.1264C207.898 49.7088 206.634 50 205.157 50ZM202.863 47.7202H205.029C206.042 47.7202 206.887 47.5355 207.564 47.1662C208.241 46.7921 208.75 46.2358 209.091 45.4972C209.432 44.7538 209.603 43.8258 209.603 42.7131C209.603 41.6004 209.432 40.6771 209.091 39.9432C208.75 39.2045 208.246 38.6529 207.578 38.2884C206.916 37.919 206.092 37.7344 205.107 37.7344H202.863V47.7202ZM219.365 50.2131C218.299 50.2131 217.376 49.9787 216.595 49.5099C215.814 49.0412 215.208 48.3854 214.777 47.5426C214.35 46.6998 214.137 45.715 214.137 44.5881C214.137 43.4612 214.35 42.474 214.777 41.6264C215.208 40.7789 215.814 40.1207 216.595 39.652C217.376 39.1832 218.299 38.9489 219.365 38.9489C220.43 38.9489 221.353 39.1832 222.135 39.652C222.916 40.1207 223.52 40.7789 223.946 41.6264C224.377 42.474 224.592 43.4612 224.592 44.5881C224.592 45.715 224.377 46.6998 223.946 47.5426C223.52 48.3854 222.916 49.0412 222.135 49.5099C221.353 49.9787 220.43 50.2131 219.365 50.2131ZM219.379 48.1534C219.957 48.1534 220.44 47.9948 220.828 47.6776C221.216 47.3556 221.505 46.9247 221.694 46.3849C221.888 45.8452 221.985 45.2438 221.985 44.581C221.985 43.9134 221.888 43.3097 221.694 42.7699C221.505 42.2254 221.216 41.7921 220.828 41.4702C220.44 41.1482 219.957 40.9872 219.379 40.9872C218.787 40.9872 218.295 41.1482 217.902 41.4702C217.513 41.7921 217.222 42.2254 217.028 42.7699C216.839 43.3097 216.744 43.9134 216.744 44.581C216.744 45.2438 216.839 45.8452 217.028 46.3849C217.222 46.9247 217.513 47.3556 217.902 47.6776C218.295 47.9948 218.787 48.1534 219.379 48.1534ZM233.727 45.4119V39.0909H236.298V50H233.805V48.0611H233.692C233.446 48.6719 233.041 49.1714 232.477 49.5597C231.919 49.9479 231.23 50.142 230.411 50.142C229.696 50.142 229.063 49.9834 228.514 49.6662C227.97 49.3442 227.544 48.8778 227.236 48.267C226.928 47.6515 226.774 46.9081 226.774 46.0369V39.0909H229.345V45.6392C229.345 46.3305 229.535 46.8797 229.913 47.2869C230.292 47.6941 230.789 47.8977 231.405 47.8977C231.784 47.8977 232.151 47.8054 232.506 47.6207C232.861 47.4361 233.152 47.1615 233.379 46.7969C233.611 46.4276 233.727 45.9659 233.727 45.4119ZM239.056 50V35.4545H241.627V40.8949H241.733C241.866 40.6297 242.053 40.348 242.294 40.0497C242.536 39.7467 242.863 39.4886 243.275 39.2756C243.686 39.0578 244.212 38.9489 244.851 38.9489C245.694 38.9489 246.454 39.1643 247.131 39.5952C247.813 40.0213 248.353 40.6534 248.75 41.4915C249.153 42.3248 249.354 43.3475 249.354 44.5597C249.354 45.7576 249.158 46.7756 248.765 47.6136C248.372 48.4517 247.837 49.0909 247.159 49.5312C246.482 49.9716 245.715 50.1918 244.858 50.1918C244.233 50.1918 243.715 50.0876 243.303 49.8793C242.891 49.6709 242.56 49.42 242.309 49.1264C242.062 48.8281 241.871 48.5464 241.733 48.2812H241.584V50H239.056ZM241.577 44.5455C241.577 45.2509 241.676 45.8688 241.875 46.3991C242.079 46.9295 242.37 47.3437 242.749 47.642C243.132 47.9356 243.596 48.0824 244.141 48.0824C244.709 48.0824 245.185 47.9309 245.569 47.6278C245.952 47.3201 246.241 46.901 246.435 46.3707C246.634 45.8357 246.733 45.2273 246.733 44.5455C246.733 43.8684 246.636 43.267 246.442 42.7415C246.248 42.2159 245.959 41.804 245.576 41.5057C245.192 41.2074 244.714 41.0582 244.141 41.0582C243.592 41.0582 243.125 41.2027 242.742 41.4915C242.358 41.7803 242.067 42.1851 241.868 42.706C241.674 43.2268 241.577 43.84 241.577 44.5455ZM256.987 39.0909V41.0795H250.716V39.0909H256.987ZM252.264 36.4773H254.835V46.7188C254.835 47.0644 254.887 47.3295 254.991 47.5142C255.1 47.6941 255.242 47.8172 255.418 47.8835C255.593 47.9498 255.787 47.983 256 47.983C256.161 47.983 256.308 47.9711 256.44 47.9474C256.578 47.9238 256.682 47.9025 256.753 47.8835L257.186 49.8935C257.049 49.9408 256.852 49.9929 256.597 50.0497C256.346 50.1065 256.038 50.1397 255.673 50.1491C255.029 50.1681 254.449 50.071 253.933 49.858C253.417 49.6402 253.008 49.304 252.705 48.8494C252.406 48.3949 252.259 47.8267 252.264 47.1449V36.4773ZM276.662 40.3622H274.006C273.93 39.9266 273.791 39.5407 273.587 39.2045C273.383 38.8636 273.13 38.5748 272.827 38.3381C272.524 38.1013 272.178 37.9238 271.79 37.8054C271.407 37.6823 270.992 37.6207 270.547 37.6207C269.757 37.6207 269.056 37.8196 268.445 38.2173C267.834 38.6103 267.356 39.188 267.01 39.9503C266.665 40.7079 266.492 41.6335 266.492 42.7273C266.492 43.84 266.665 44.7775 267.01 45.5398C267.361 46.2973 267.839 46.8703 268.445 47.2585C269.056 47.642 269.754 47.8338 270.54 47.8338C270.976 47.8338 271.383 47.777 271.762 47.6634C272.145 47.545 272.489 47.3722 272.792 47.1449C273.099 46.9176 273.357 46.6383 273.566 46.3068C273.779 45.9754 273.926 45.5966 274.006 45.1705L276.662 45.1847C276.563 45.8759 276.347 46.5246 276.016 47.1307C275.689 47.7367 275.261 48.2718 274.73 48.7358C274.2 49.1951 273.58 49.5549 272.87 49.8153C272.159 50.071 271.371 50.1989 270.505 50.1989C269.226 50.1989 268.085 49.9029 267.081 49.3111C266.078 48.7192 265.287 47.8646 264.709 46.7472C264.132 45.6297 263.843 44.2898 263.843 42.7273C263.843 41.16 264.134 39.8201 264.716 38.7074C265.299 37.59 266.092 36.7353 267.096 36.1435C268.099 35.5516 269.236 35.2557 270.505 35.2557C271.314 35.2557 272.067 35.3693 272.763 35.5966C273.459 35.8239 274.079 36.1577 274.624 36.598C275.168 37.0336 275.616 37.5687 275.966 38.2031C276.321 38.8329 276.553 39.5526 276.662 40.3622ZM281.533 35.4545V50H278.962V35.4545H281.533ZM289.006 50.2131C287.912 50.2131 286.968 49.9858 286.172 49.5312C285.382 49.072 284.773 48.4233 284.347 47.5852C283.921 46.7424 283.708 45.7505 283.708 44.6094C283.708 43.4872 283.921 42.5024 284.347 41.6548C284.778 40.8026 285.379 40.1397 286.151 39.6662C286.923 39.188 287.829 38.9489 288.871 38.9489C289.543 38.9489 290.178 39.0578 290.775 39.2756C291.376 39.4886 291.906 39.8201 292.365 40.2699C292.829 40.7197 293.194 41.2926 293.459 41.9886C293.724 42.6799 293.857 43.5038 293.857 44.4602V45.2486H284.915V43.5156H291.392C291.388 43.0232 291.281 42.5852 291.073 42.2017C290.864 41.8134 290.573 41.508 290.199 41.2855C289.83 41.063 289.399 40.9517 288.907 40.9517C288.381 40.9517 287.919 41.0795 287.522 41.3352C287.124 41.5862 286.814 41.9176 286.591 42.3295C286.373 42.7367 286.262 43.1842 286.257 43.6719V45.1847C286.257 45.8191 286.373 46.3636 286.605 46.8182C286.837 47.268 287.162 47.6136 287.578 47.8551C287.995 48.0919 288.483 48.2102 289.042 48.2102C289.416 48.2102 289.754 48.1581 290.057 48.054C290.36 47.9451 290.623 47.7865 290.846 47.5781C291.068 47.3698 291.236 47.1117 291.35 46.804L293.75 47.0739C293.599 47.7083 293.31 48.2623 292.884 48.7358C292.462 49.2045 291.923 49.5691 291.265 49.8295C290.606 50.0852 289.854 50.2131 289.006 50.2131ZM299.171 50.2202C298.48 50.2202 297.857 50.0971 297.303 49.8509C296.754 49.5999 296.318 49.2306 295.996 48.7429C295.679 48.2552 295.521 47.6539 295.521 46.9389C295.521 46.3234 295.634 45.8144 295.862 45.4119C296.089 45.0095 296.399 44.6875 296.792 44.446C297.185 44.2045 297.628 44.0223 298.12 43.8991C298.617 43.7713 299.131 43.679 299.661 43.6222C300.3 43.5559 300.819 43.4967 301.217 43.4446C301.614 43.3878 301.903 43.3026 302.083 43.1889C302.268 43.0705 302.36 42.8883 302.36 42.642V42.5994C302.36 42.0644 302.201 41.6501 301.884 41.3565C301.567 41.063 301.11 40.9162 300.513 40.9162C299.884 40.9162 299.384 41.0535 299.015 41.3281C298.65 41.6027 298.404 41.9271 298.276 42.3011L295.876 41.9602C296.065 41.2973 296.378 40.7434 296.813 40.2983C297.249 39.8485 297.781 39.5123 298.411 39.2898C299.041 39.0625 299.737 38.9489 300.499 38.9489C301.025 38.9489 301.548 39.0104 302.069 39.1335C302.59 39.2566 303.066 39.4602 303.496 39.7443C303.927 40.0237 304.273 40.4048 304.533 40.8878C304.799 41.3707 304.931 41.9744 304.931 42.6989V50H302.46V48.5014H302.374C302.218 48.8045 301.998 49.0885 301.714 49.3537C301.434 49.6141 301.082 49.8248 300.656 49.9858C300.234 50.142 299.739 50.2202 299.171 50.2202ZM299.839 48.331C300.355 48.331 300.802 48.2292 301.181 48.0256C301.56 47.8172 301.851 47.5426 302.055 47.2017C302.263 46.8608 302.367 46.4891 302.367 46.0866V44.8011C302.287 44.8674 302.149 44.929 301.955 44.9858C301.766 45.0426 301.553 45.0923 301.316 45.1349C301.079 45.1776 300.845 45.2154 300.613 45.2486C300.381 45.2817 300.18 45.3101 300.009 45.3338C299.626 45.3859 299.282 45.4711 298.979 45.5895C298.676 45.7079 298.437 45.8736 298.262 46.0866C298.087 46.295 297.999 46.5649 297.999 46.8963C297.999 47.3698 298.172 47.7273 298.518 47.9688C298.863 48.2102 299.304 48.331 299.839 48.331ZM307.516 50V39.0909H310.009V40.9091H310.123C310.322 40.2794 310.663 39.794 311.146 39.4531C311.633 39.1075 312.19 38.9347 312.815 38.9347C312.957 38.9347 313.115 38.9418 313.29 38.956C313.47 38.9654 313.62 38.982 313.738 39.0057V41.3707C313.629 41.3329 313.456 41.2997 313.219 41.2713C312.987 41.2382 312.763 41.2216 312.545 41.2216C312.076 41.2216 311.655 41.3234 311.281 41.527C310.911 41.7259 310.62 42.0028 310.407 42.358C310.194 42.7131 310.087 43.1226 310.087 43.5866V50H307.516ZM315.446 50V39.0909H318.017V50H315.446ZM316.739 37.5426C316.331 37.5426 315.981 37.4077 315.688 37.1378C315.394 36.8632 315.247 36.5341 315.247 36.1506C315.247 35.7623 315.394 35.4332 315.688 35.1634C315.981 34.8887 316.331 34.7514 316.739 34.7514C317.151 34.7514 317.501 34.8887 317.79 35.1634C318.083 35.4332 318.23 35.7623 318.23 36.1506C318.23 36.5341 318.083 36.8632 317.79 37.1378C317.501 37.4077 317.151 37.5426 316.739 37.5426ZM323.232 43.608V50H320.661V39.0909H323.118V40.9446H323.246C323.497 40.3338 323.897 39.8485 324.446 39.4886C325 39.1288 325.685 38.9489 326.499 38.9489C327.252 38.9489 327.908 39.1098 328.466 39.4318C329.03 39.7538 329.465 40.2202 329.773 40.831C330.086 41.4418 330.239 42.1828 330.235 43.054V50H327.664V43.4517C327.664 42.7225 327.474 42.152 327.096 41.7401C326.721 41.3281 326.203 41.1222 325.54 41.1222C325.09 41.1222 324.69 41.2216 324.34 41.4205C323.994 41.6146 323.722 41.8963 323.523 42.2656C323.329 42.6349 323.232 43.0824 323.232 43.608ZM337.593 54.3182C336.669 54.3182 335.876 54.1927 335.213 53.9418C334.551 53.6955 334.018 53.3641 333.615 52.9474C333.213 52.5308 332.934 52.0691 332.777 51.5625L335.093 51.0014C335.197 51.2145 335.348 51.4252 335.547 51.6335C335.746 51.8466 336.014 52.0218 336.35 52.1591C336.691 52.3011 337.119 52.3722 337.635 52.3722C338.364 52.3722 338.968 52.1946 339.446 51.8395C339.925 51.4891 340.164 50.9115 340.164 50.1065V48.0398H340.036C339.903 48.3049 339.709 48.5772 339.453 48.8565C339.203 49.1359 338.869 49.3703 338.452 49.5597C338.04 49.7491 337.522 49.8438 336.897 49.8438C336.059 49.8438 335.299 49.6473 334.617 49.2543C333.94 48.8565 333.4 48.2647 332.998 47.4787C332.6 46.688 332.401 45.6984 332.401 44.5099C332.401 43.312 332.6 42.3011 332.998 41.4773C333.4 40.6487 333.942 40.0213 334.624 39.5952C335.306 39.1643 336.066 38.9489 336.904 38.9489C337.543 38.9489 338.069 39.0578 338.48 39.2756C338.897 39.4886 339.229 39.7467 339.475 40.0497C339.721 40.348 339.908 40.6297 340.036 40.8949H340.178V39.0909H342.713V50.1776C342.713 51.1103 342.491 51.8821 342.046 52.4929C341.601 53.1037 340.992 53.5606 340.221 53.8636C339.449 54.1667 338.573 54.3182 337.593 54.3182ZM337.614 47.8267C338.158 47.8267 338.623 47.6941 339.006 47.429C339.39 47.1638 339.681 46.7827 339.88 46.2855C340.078 45.7884 340.178 45.1918 340.178 44.4957C340.178 43.8092 340.078 43.2079 339.88 42.6918C339.685 42.1757 339.397 41.7756 339.013 41.4915C338.634 41.2027 338.168 41.0582 337.614 41.0582C337.041 41.0582 336.563 41.2074 336.179 41.5057C335.796 41.804 335.507 42.2135 335.313 42.7344C335.119 43.2505 335.022 43.8376 335.022 44.4957C335.022 45.1634 335.119 45.7481 335.313 46.25C335.512 46.7472 335.803 47.1354 336.186 47.4148C336.575 47.6894 337.051 47.8267 337.614 47.8267ZM145.339 65.4531C145.273 64.8329 144.994 64.3499 144.501 64.0043C144.014 63.6586 143.379 63.4858 142.598 63.4858C142.049 63.4858 141.578 63.5687 141.185 63.7344C140.792 63.9001 140.491 64.125 140.283 64.4091C140.074 64.6932 139.968 65.0175 139.963 65.3821C139.963 65.6851 140.032 65.9479 140.169 66.1705C140.311 66.393 140.503 66.5824 140.744 66.7386C140.986 66.8902 141.253 67.018 141.547 67.1222C141.84 67.2263 142.136 67.3139 142.435 67.3849L143.798 67.7259C144.348 67.8537 144.875 68.0265 145.382 68.2443C145.893 68.4621 146.35 68.7367 146.753 69.0682C147.16 69.3996 147.482 69.7997 147.719 70.2685C147.955 70.7372 148.074 71.2865 148.074 71.9162C148.074 72.7685 147.856 73.5189 147.42 74.1676C146.985 74.8116 146.355 75.3158 145.531 75.6804C144.712 76.0402 143.72 76.2202 142.555 76.2202C141.424 76.2202 140.441 76.045 139.608 75.6946C138.779 75.3442 138.131 74.8329 137.662 74.1605C137.198 73.4882 136.947 72.669 136.909 71.7031H139.501C139.539 72.2098 139.696 72.6312 139.97 72.9673C140.245 73.3035 140.602 73.5545 141.043 73.7202C141.488 73.8859 141.985 73.9688 142.534 73.9688C143.107 73.9688 143.609 73.8835 144.04 73.7131C144.475 73.5379 144.816 73.2964 145.062 72.9886C145.309 72.6761 145.434 72.3116 145.439 71.8949C145.434 71.5161 145.323 71.2036 145.105 70.9574C144.887 70.7064 144.582 70.4981 144.189 70.3324C143.801 70.1619 143.346 70.0104 142.825 69.8778L141.17 69.4517C139.973 69.1439 139.026 68.6776 138.33 68.0526C137.638 67.4228 137.293 66.5871 137.293 65.5455C137.293 64.6884 137.525 63.938 137.989 63.294C138.457 62.6501 139.094 62.1506 139.899 61.7955C140.704 61.4356 141.616 61.2557 142.634 61.2557C143.666 61.2557 144.57 61.4356 145.347 61.7955C146.128 62.1506 146.741 62.6454 147.186 63.2798C147.631 63.9096 147.861 64.634 147.875 65.4531H145.339ZM155.139 76.2131C154.045 76.2131 153.1 75.9858 152.305 75.5312C151.514 75.072 150.906 74.4233 150.48 73.5852C150.054 72.7424 149.841 71.7505 149.841 70.6094C149.841 69.4872 150.054 68.5024 150.48 67.6548C150.911 66.8026 151.512 66.1397 152.284 65.6662C153.056 65.188 153.962 64.9489 155.004 64.9489C155.676 64.9489 156.311 65.0578 156.907 65.2756C157.509 65.4886 158.039 65.8201 158.498 66.2699C158.962 66.7197 159.327 67.2926 159.592 67.9886C159.857 68.6799 159.99 69.5038 159.99 70.4602V71.2486H151.048V69.5156H157.525C157.52 69.0232 157.414 68.5852 157.206 68.2017C156.997 67.8134 156.706 67.508 156.332 67.2855C155.963 67.063 155.532 66.9517 155.039 66.9517C154.514 66.9517 154.052 67.0795 153.654 67.3352C153.257 67.5862 152.947 67.9176 152.724 68.3295C152.506 68.7367 152.395 69.1842 152.39 69.6719V71.1847C152.39 71.8191 152.506 72.3636 152.738 72.8182C152.97 73.268 153.295 73.6136 153.711 73.8551C154.128 74.0919 154.616 74.2102 155.174 74.2102C155.548 74.2102 155.887 74.1581 156.19 74.054C156.493 73.9451 156.756 73.7865 156.978 73.5781C157.201 73.3698 157.369 73.1117 157.483 72.804L159.883 73.0739C159.732 73.7083 159.443 74.2623 159.017 74.7358C158.595 75.2045 158.056 75.5691 157.397 75.8295C156.739 76.0852 155.986 76.2131 155.139 76.2131ZM170.787 67.9744L168.443 68.2301C168.377 67.9934 168.261 67.7708 168.095 67.5625C167.934 67.3542 167.716 67.1861 167.442 67.0582C167.167 66.9304 166.831 66.8665 166.433 66.8665C165.898 66.8665 165.448 66.9825 165.084 67.2145C164.724 67.4465 164.546 67.7472 164.551 68.1165C164.546 68.4337 164.662 68.6918 164.899 68.8906C165.141 69.0895 165.538 69.2528 166.092 69.3807L167.953 69.7784C168.985 70.0009 169.752 70.3537 170.254 70.8366C170.761 71.3196 171.017 71.9517 171.021 72.733C171.017 73.4195 170.815 74.0256 170.418 74.5511C170.025 75.072 169.478 75.4792 168.777 75.7727C168.076 76.0663 167.271 76.2131 166.362 76.2131C165.027 76.2131 163.952 75.9337 163.138 75.375C162.323 74.8116 161.838 74.0279 161.682 73.0241L164.189 72.7827C164.303 73.2751 164.544 73.6468 164.913 73.8977C165.283 74.1487 165.763 74.2741 166.355 74.2741C166.966 74.2741 167.456 74.1487 167.825 73.8977C168.199 73.6468 168.386 73.3366 168.386 72.9673C168.386 72.6548 168.266 72.3968 168.024 72.1932C167.787 71.9896 167.418 71.8333 166.916 71.7244L165.055 71.3338C164.009 71.116 163.235 70.7491 162.733 70.233C162.231 69.7121 161.982 69.054 161.987 68.2585C161.982 67.5862 162.165 67.0038 162.534 66.5114C162.908 66.0142 163.427 65.6307 164.089 65.3608C164.757 65.0862 165.527 64.9489 166.398 64.9489C167.676 64.9489 168.682 65.2211 169.416 65.7656C170.155 66.3101 170.612 67.0464 170.787 67.9744ZM181.763 67.9744L179.42 68.2301C179.353 67.9934 179.237 67.7708 179.072 67.5625C178.911 67.3542 178.693 67.1861 178.418 67.0582C178.144 66.9304 177.808 66.8665 177.41 66.8665C176.875 66.8665 176.425 66.9825 176.06 67.2145C175.701 67.4465 175.523 67.7472 175.528 68.1165C175.523 68.4337 175.639 68.6918 175.876 68.8906C176.117 69.0895 176.515 69.2528 177.069 69.3807L178.93 69.7784C179.962 70.0009 180.729 70.3537 181.231 70.8366C181.737 71.3196 181.993 71.9517 181.998 72.733C181.993 73.4195 181.792 74.0256 181.394 74.5511C181.001 75.072 180.454 75.4792 179.754 75.7727C179.053 76.0663 178.248 76.2131 177.339 76.2131C176.004 76.2131 174.929 75.9337 174.114 75.375C173.3 74.8116 172.815 74.0279 172.658 73.0241L175.165 72.7827C175.279 73.2751 175.521 73.6468 175.89 73.8977C176.259 74.1487 176.74 74.2741 177.332 74.2741C177.942 74.2741 178.433 74.1487 178.802 73.8977C179.176 73.6468 179.363 73.3366 179.363 72.9673C179.363 72.6548 179.242 72.3968 179.001 72.1932C178.764 71.9896 178.395 71.8333 177.893 71.7244L176.032 71.3338C174.986 71.116 174.211 70.7491 173.71 70.233C173.208 69.7121 172.959 69.054 172.964 68.2585C172.959 67.5862 173.141 67.0038 173.511 66.5114C173.885 66.0142 174.403 65.6307 175.066 65.3608C175.734 65.0862 176.503 64.9489 177.374 64.9489C178.653 64.9489 179.659 65.2211 180.393 65.7656C181.131 66.3101 181.588 67.0464 181.763 67.9744ZM184.118 76V65.0909H186.689V76H184.118ZM185.411 63.5426C185.003 63.5426 184.653 63.4077 184.359 63.1378C184.066 62.8632 183.919 62.5341 183.919 62.1506C183.919 61.7623 184.066 61.4332 184.359 61.1634C184.653 60.8887 185.003 60.7514 185.411 60.7514C185.822 60.7514 186.173 60.8887 186.462 61.1634C186.755 61.4332 186.902 61.7623 186.902 62.1506C186.902 62.5341 186.755 62.8632 186.462 63.1378C186.173 63.4077 185.822 63.5426 185.411 63.5426ZM194.091 76.2131C193.026 76.2131 192.103 75.9787 191.321 75.5099C190.54 75.0412 189.934 74.3854 189.503 73.5426C189.077 72.6998 188.864 71.715 188.864 70.5881C188.864 69.4612 189.077 68.474 189.503 67.6264C189.934 66.7789 190.54 66.1207 191.321 65.652C192.103 65.1832 193.026 64.9489 194.091 64.9489C195.157 64.9489 196.08 65.1832 196.861 65.652C197.642 66.1207 198.246 66.7789 198.672 67.6264C199.103 68.474 199.319 69.4612 199.319 70.5881C199.319 71.715 199.103 72.6998 198.672 73.5426C198.246 74.3854 197.642 75.0412 196.861 75.5099C196.08 75.9787 195.157 76.2131 194.091 76.2131ZM194.105 74.1534C194.683 74.1534 195.166 73.9948 195.554 73.6776C195.943 73.3556 196.231 72.9247 196.421 72.3849C196.615 71.8452 196.712 71.2438 196.712 70.581C196.712 69.9134 196.615 69.3097 196.421 68.7699C196.231 68.2254 195.943 67.7921 195.554 67.4702C195.166 67.1482 194.683 66.9872 194.105 66.9872C193.514 66.9872 193.021 67.1482 192.628 67.4702C192.24 67.7921 191.949 68.2254 191.755 68.7699C191.565 69.3097 191.471 69.9134 191.471 70.581C191.471 71.2438 191.565 71.8452 191.755 72.3849C191.949 72.9247 192.24 73.3556 192.628 73.6776C193.021 73.9948 193.514 74.1534 194.105 74.1534ZM204.072 69.608V76H201.501V65.0909H203.958V66.9446H204.086C204.337 66.3338 204.737 65.8485 205.286 65.4886C205.84 65.1288 206.524 64.9489 207.339 64.9489C208.092 64.9489 208.747 65.1098 209.306 65.4318C209.87 65.7538 210.305 66.2202 210.613 66.831C210.925 67.4418 211.079 68.1828 211.075 69.054V76H208.504V69.4517C208.504 68.7225 208.314 68.152 207.935 67.7401C207.561 67.3281 207.043 67.1222 206.38 67.1222C205.93 67.1222 205.53 67.2216 205.18 67.4205C204.834 67.6146 204.562 67.8963 204.363 68.2656C204.169 68.6349 204.072 69.0824 204.072 69.608Z" fill="#0A2134"/>
<path d="M144.778 98.5C144.661 98.1413 144.507 97.82 144.315 97.5359C144.127 97.2482 143.901 97.0032 143.638 96.8008C143.379 96.5984 143.085 96.4439 142.754 96.3374C142.424 96.2308 142.062 96.1776 141.668 96.1776C141.021 96.1776 140.434 96.3445 139.904 96.6783C139.375 97.0121 138.955 97.5039 138.642 98.1538C138.33 98.8036 138.173 99.6009 138.173 100.545C138.173 101.49 138.331 102.287 138.647 102.937C138.963 103.587 139.391 104.079 139.931 104.413C140.471 104.746 141.078 104.913 141.753 104.913C142.378 104.913 142.928 104.78 143.404 104.514C143.884 104.244 144.256 103.864 144.523 103.374C144.793 102.88 144.928 102.3 144.928 101.632L145.332 101.717H142.051V100.545H146.206V101.717C146.206 102.616 146.014 103.397 145.631 104.061C145.251 104.725 144.725 105.24 144.054 105.606C143.386 105.968 142.619 106.149 141.753 106.149C140.787 106.149 139.938 105.922 139.207 105.467C138.479 105.013 137.911 104.366 137.502 103.528C137.097 102.69 136.895 101.696 136.895 100.545C136.895 99.6825 137.01 98.9066 137.241 98.2177C137.475 97.5252 137.806 96.9357 138.232 96.4492C138.658 95.9627 139.162 95.5898 139.745 95.3306C140.327 95.0714 140.968 94.9418 141.668 94.9418C142.243 94.9418 142.779 95.0288 143.276 95.2028C143.777 95.3732 144.223 95.6165 144.613 95.9325C145.007 96.245 145.336 96.6197 145.599 97.0565C145.862 97.4897 146.043 97.9709 146.142 98.5H144.778ZM150.706 106.192C150.187 106.192 149.717 106.094 149.294 105.899C148.872 105.7 148.536 105.414 148.287 105.041C148.039 104.665 147.915 104.21 147.915 103.678C147.915 103.209 148.007 102.829 148.191 102.538C148.376 102.243 148.623 102.012 148.932 101.845C149.241 101.678 149.582 101.554 149.955 101.472C150.331 101.387 150.709 101.32 151.089 101.27C151.586 101.206 151.989 101.158 152.298 101.126C152.611 101.091 152.838 101.032 152.98 100.95C153.126 100.869 153.199 100.727 153.199 100.524V100.482C153.199 99.956 153.055 99.5476 152.767 99.2564C152.483 98.9652 152.052 98.8196 151.473 98.8196C150.873 98.8196 150.402 98.951 150.061 99.2138C149.72 99.4766 149.481 99.7571 149.342 100.055L148.149 99.6293C148.362 99.1321 148.646 98.745 149.001 98.468C149.36 98.1875 149.75 97.9922 150.173 97.8821C150.599 97.7685 151.018 97.7116 151.43 97.7116C151.693 97.7116 151.995 97.7436 152.336 97.8075C152.68 97.8679 153.012 97.994 153.332 98.1857C153.655 98.3775 153.923 98.6669 154.136 99.054C154.349 99.4411 154.456 99.9595 154.456 100.609V106H153.199V104.892H153.135C153.049 105.07 152.907 105.26 152.709 105.462C152.51 105.664 152.245 105.837 151.915 105.979C151.585 106.121 151.182 106.192 150.706 106.192ZM150.897 105.062C151.395 105.062 151.814 104.965 152.155 104.77C152.499 104.574 152.758 104.322 152.932 104.013C153.11 103.704 153.199 103.379 153.199 103.038V101.888C153.145 101.952 153.028 102.01 152.847 102.064C152.669 102.113 152.464 102.158 152.229 102.197C151.998 102.232 151.773 102.264 151.553 102.293C151.336 102.317 151.16 102.339 151.025 102.357C150.699 102.399 150.393 102.468 150.109 102.564C149.829 102.657 149.601 102.797 149.427 102.985C149.257 103.17 149.172 103.422 149.172 103.741C149.172 104.178 149.333 104.509 149.656 104.732C149.983 104.952 150.397 105.062 150.897 105.062ZM156.75 106V97.8182H158.007V106H156.75ZM157.389 96.4545C157.144 96.4545 156.933 96.3711 156.756 96.2042C156.581 96.0373 156.494 95.8366 156.494 95.6023C156.494 95.3679 156.581 95.1673 156.756 95.0004C156.933 94.8335 157.144 94.75 157.389 94.75C157.634 94.75 157.844 94.8335 158.018 95.0004C158.195 95.1673 158.284 95.3679 158.284 95.6023C158.284 95.8366 158.195 96.0373 158.018 96.2042C157.844 96.3711 157.634 96.4545 157.389 96.4545ZM161.567 101.078V106H160.31V97.8182H161.524V99.0966H161.631C161.823 98.6811 162.114 98.3473 162.504 98.0952C162.895 97.8395 163.399 97.7116 164.017 97.7116C164.571 97.7116 165.056 97.8253 165.471 98.0526C165.887 98.2763 166.21 98.6172 166.441 99.0753C166.672 99.5298 166.787 100.105 166.787 100.801V106H165.53V100.886C165.53 100.244 165.363 99.7429 165.029 99.3842C164.695 99.022 164.237 98.8409 163.655 98.8409C163.254 98.8409 162.895 98.9279 162.579 99.1019C162.266 99.2759 162.02 99.5298 161.839 99.8636C161.657 100.197 161.567 100.602 161.567 101.078ZM175.711 106.192C175.192 106.192 174.722 106.094 174.299 105.899C173.876 105.7 173.541 105.414 173.292 105.041C173.044 104.665 172.919 104.21 172.919 103.678C172.919 103.209 173.012 102.829 173.196 102.538C173.381 102.243 173.628 102.012 173.937 101.845C174.246 101.678 174.587 101.554 174.96 101.472C175.336 101.387 175.714 101.32 176.094 101.27C176.591 101.206 176.994 101.158 177.303 101.126C177.616 101.091 177.843 101.032 177.985 100.95C178.131 100.869 178.203 100.727 178.203 100.524V100.482C178.203 99.956 178.06 99.5476 177.772 99.2564C177.488 98.9652 177.056 98.8196 176.478 98.8196C175.877 98.8196 175.407 98.951 175.066 99.2138C174.725 99.4766 174.485 99.7571 174.347 100.055L173.154 99.6293C173.367 99.1321 173.651 98.745 174.006 98.468C174.365 98.1875 174.755 97.9922 175.178 97.8821C175.604 97.7685 176.023 97.7116 176.435 97.7116C176.698 97.7116 177 97.7436 177.341 97.8075C177.685 97.8679 178.017 97.994 178.337 98.1857C178.66 98.3775 178.928 98.6669 179.141 99.054C179.354 99.4411 179.461 99.9595 179.461 100.609V106H178.203V104.892H178.14C178.054 105.07 177.912 105.26 177.713 105.462C177.515 105.664 177.25 105.837 176.92 105.979C176.589 106.121 176.186 106.192 175.711 106.192ZM175.902 105.062C176.4 105.062 176.819 104.965 177.159 104.77C177.504 104.574 177.763 104.322 177.937 104.013C178.115 103.704 178.203 103.379 178.203 103.038V101.888C178.15 101.952 178.033 102.01 177.852 102.064C177.674 102.113 177.468 102.158 177.234 102.197C177.003 102.232 176.778 102.264 176.558 102.293C176.341 102.317 176.165 102.339 176.03 102.357C175.703 102.399 175.398 102.468 175.114 102.564C174.833 102.657 174.606 102.797 174.432 102.985C174.262 103.17 174.176 103.422 174.176 103.741C174.176 104.178 174.338 104.509 174.661 104.732C174.988 104.952 175.402 105.062 175.902 105.062ZM189.298 106.17C188.531 106.17 187.87 105.989 187.316 105.627C186.762 105.265 186.336 104.766 186.038 104.13C185.739 103.495 185.59 102.768 185.59 101.952C185.59 101.121 185.743 100.387 186.048 99.7518C186.357 99.1126 186.787 98.6136 187.337 98.255C187.891 97.8928 188.538 97.7116 189.276 97.7116C189.852 97.7116 190.37 97.8182 190.832 98.0312C191.293 98.2443 191.672 98.5426 191.966 98.9261C192.261 99.3097 192.444 99.7571 192.515 100.268H191.258C191.162 99.8956 190.949 99.5653 190.619 99.2777C190.292 98.9865 189.852 98.8409 189.298 98.8409C188.808 98.8409 188.378 98.9687 188.009 99.2244C187.643 99.4766 187.357 99.8335 187.151 100.295C186.949 100.753 186.847 101.291 186.847 101.909C186.847 102.541 186.947 103.092 187.146 103.56C187.348 104.029 187.632 104.393 187.998 104.652C188.367 104.912 188.801 105.041 189.298 105.041C189.624 105.041 189.921 104.984 190.187 104.871C190.454 104.757 190.679 104.594 190.864 104.381C191.048 104.168 191.18 103.912 191.258 103.614H192.515C192.444 104.097 192.268 104.532 191.988 104.919C191.711 105.302 191.343 105.608 190.885 105.835C190.43 106.059 189.901 106.17 189.298 106.17ZM195.61 95.0909V106H194.353V95.0909H195.61ZM201.343 106.17C200.554 106.17 199.874 105.996 199.303 105.648C198.734 105.297 198.296 104.807 197.987 104.178C197.681 103.546 197.529 102.811 197.529 101.973C197.529 101.135 197.681 100.396 197.987 99.7571C198.296 99.1143 198.725 98.6136 199.276 98.255C199.83 97.8928 200.476 97.7116 201.215 97.7116C201.641 97.7116 202.062 97.7827 202.477 97.9247C202.893 98.0668 203.271 98.2976 203.612 98.6172C203.953 98.9332 204.224 99.3523 204.427 99.8743C204.629 100.396 204.73 101.039 204.73 101.803V102.335H198.424V101.249H203.452C203.452 100.787 203.36 100.375 203.175 100.013C202.994 99.6506 202.735 99.3647 202.397 99.1552C202.064 98.9457 201.669 98.8409 201.215 98.8409C200.714 98.8409 200.281 98.9652 199.915 99.2138C199.553 99.4588 199.274 99.7784 199.079 100.173C198.884 100.567 198.786 100.989 198.786 101.44V102.165C198.786 102.783 198.892 103.306 199.105 103.736C199.322 104.162 199.622 104.487 200.006 104.711C200.389 104.931 200.835 105.041 201.343 105.041C201.673 105.041 201.971 104.995 202.238 104.903C202.507 104.807 202.74 104.665 202.935 104.477C203.131 104.285 203.282 104.047 203.388 103.763L204.603 104.104C204.475 104.516 204.26 104.878 203.958 105.19C203.656 105.499 203.283 105.741 202.839 105.915C202.396 106.085 201.897 106.17 201.343 106.17ZM209.05 106.192C208.532 106.192 208.061 106.094 207.639 105.899C207.216 105.7 206.881 105.414 206.632 105.041C206.384 104.665 206.259 104.21 206.259 103.678C206.259 103.209 206.352 102.829 206.536 102.538C206.721 102.243 206.968 102.012 207.277 101.845C207.586 101.678 207.926 101.554 208.299 101.472C208.676 101.387 209.054 101.32 209.434 101.27C209.931 101.206 210.334 101.158 210.643 101.126C210.956 101.091 211.183 101.032 211.325 100.95C211.471 100.869 211.543 100.727 211.543 100.524V100.482C211.543 99.956 211.4 99.5476 211.112 99.2564C210.828 98.9652 210.396 98.8196 209.817 98.8196C209.217 98.8196 208.747 98.951 208.406 99.2138C208.065 99.4766 207.825 99.7571 207.687 100.055L206.494 99.6293C206.707 99.1321 206.991 98.745 207.346 98.468C207.705 98.1875 208.095 97.9922 208.518 97.8821C208.944 97.7685 209.363 97.7116 209.775 97.7116C210.038 97.7116 210.339 97.7436 210.68 97.8075C211.025 97.8679 211.357 97.994 211.676 98.1857C212 98.3775 212.268 98.6669 212.481 99.054C212.694 99.4411 212.8 99.9595 212.8 100.609V106H211.543V104.892H211.479C211.394 105.07 211.252 105.26 211.053 105.462C210.854 105.664 210.59 105.837 210.26 105.979C209.929 106.121 209.526 106.192 209.05 106.192ZM209.242 105.062C209.739 105.062 210.158 104.965 210.499 104.77C210.844 104.574 211.103 104.322 211.277 104.013C211.455 103.704 211.543 103.379 211.543 103.038V101.888C211.49 101.952 211.373 102.01 211.192 102.064C211.014 102.113 210.808 102.158 210.574 102.197C210.343 102.232 210.118 102.264 209.897 102.293C209.681 102.317 209.505 102.339 209.37 102.357C209.043 102.399 208.738 102.468 208.454 102.564C208.173 102.657 207.946 102.797 207.772 102.985C207.602 103.17 207.516 103.422 207.516 103.741C207.516 104.178 207.678 104.509 208.001 104.732C208.328 104.952 208.741 105.062 209.242 105.062ZM215.095 106V97.8182H216.309V99.054H216.395C216.544 98.6491 216.814 98.3207 217.204 98.0685C217.595 97.8164 218.035 97.6903 218.525 97.6903C218.618 97.6903 218.733 97.6921 218.872 97.6957C219.01 97.6992 219.115 97.7045 219.186 97.7116V98.9901C219.143 98.9794 219.046 98.9634 218.893 98.9421C218.744 98.9173 218.586 98.9048 218.419 98.9048C218.021 98.9048 217.666 98.9883 217.353 99.1552C217.044 99.3185 216.799 99.5458 216.618 99.837C216.441 100.125 216.352 100.453 216.352 100.822V106H215.095ZM230.051 102.655V97.8182H231.308V106H230.051V104.615H229.966C229.774 105.031 229.476 105.384 229.071 105.675C228.666 105.963 228.155 106.107 227.537 106.107C227.025 106.107 226.571 105.995 226.173 105.771C225.775 105.544 225.463 105.203 225.236 104.748C225.008 104.29 224.895 103.713 224.895 103.017V97.8182H226.152V102.932C226.152 103.528 226.319 104.004 226.653 104.359C226.99 104.714 227.42 104.892 227.942 104.892C228.254 104.892 228.572 104.812 228.895 104.652C229.222 104.493 229.495 104.248 229.715 103.917C229.939 103.587 230.051 103.166 230.051 102.655ZM234.868 101.078V106H233.611V97.8182H234.825V99.0966H234.932C235.123 98.6811 235.415 98.3473 235.805 98.0952C236.196 97.8395 236.7 97.7116 237.318 97.7116C237.872 97.7116 238.357 97.8253 238.772 98.0526C239.188 98.2763 239.511 98.6172 239.742 99.0753C239.972 99.5298 240.088 100.105 240.088 100.801V106H238.831V100.886C238.831 100.244 238.664 99.7429 238.33 99.3842C237.996 99.022 237.538 98.8409 236.956 98.8409C236.554 98.8409 236.196 98.9279 235.88 99.1019C235.567 99.2759 235.32 99.5298 235.139 99.8636C234.958 100.197 234.868 100.602 234.868 101.078ZM245.474 106.17C244.793 106.17 244.191 105.998 243.669 105.654C243.147 105.306 242.738 104.816 242.444 104.184C242.149 103.548 242.001 102.797 242.001 101.93C242.001 101.071 242.149 100.325 242.444 99.6932C242.738 99.0611 243.148 98.5728 243.674 98.2283C244.2 97.8839 244.807 97.7116 245.496 97.7116C246.028 97.7116 246.449 97.8004 246.758 97.978C247.071 98.152 247.309 98.3509 247.472 98.5746C247.639 98.7947 247.768 98.9759 247.861 99.1179H247.967V95.0909H249.224V106H248.01V104.743H247.861C247.768 104.892 247.637 105.08 247.467 105.308C247.296 105.531 247.053 105.732 246.737 105.909C246.421 106.083 246 106.17 245.474 106.17ZM245.645 105.041C246.149 105.041 246.575 104.91 246.923 104.647C247.271 104.381 247.536 104.013 247.717 103.544C247.898 103.072 247.989 102.527 247.989 101.909C247.989 101.298 247.9 100.764 247.722 100.306C247.545 99.8441 247.282 99.4854 246.934 99.2298C246.586 98.9705 246.156 98.8409 245.645 98.8409C245.112 98.8409 244.668 98.9776 244.313 99.2511C243.962 99.521 243.697 99.8885 243.52 100.354C243.346 100.815 243.259 101.334 243.259 101.909C243.259 102.491 243.347 103.021 243.525 103.496C243.706 103.969 243.972 104.345 244.324 104.626C244.679 104.903 245.119 105.041 245.645 105.041ZM255.132 106.17C254.343 106.17 253.663 105.996 253.092 105.648C252.523 105.297 252.085 104.807 251.776 104.178C251.471 103.546 251.318 102.811 251.318 101.973C251.318 101.135 251.471 100.396 251.776 99.7571C252.085 99.1143 252.515 98.6136 253.065 98.255C253.619 97.8928 254.265 97.7116 255.004 97.7116C255.43 97.7116 255.851 97.7827 256.266 97.9247C256.682 98.0668 257.06 98.2976 257.401 98.6172C257.742 98.9332 258.013 99.3523 258.216 99.8743C258.418 100.396 258.52 101.039 258.52 101.803V102.335H252.213V101.249H257.241C257.241 100.787 257.149 100.375 256.964 100.013C256.783 99.6506 256.524 99.3647 256.186 99.1552C255.853 98.9457 255.458 98.8409 255.004 98.8409C254.503 98.8409 254.07 98.9652 253.704 99.2138C253.342 99.4588 253.063 99.7784 252.868 100.173C252.673 100.567 252.575 100.989 252.575 101.44V102.165C252.575 102.783 252.681 103.306 252.895 103.736C253.111 104.162 253.411 104.487 253.795 104.711C254.178 104.931 254.624 105.041 255.132 105.041C255.462 105.041 255.76 104.995 256.027 104.903C256.297 104.807 256.529 104.665 256.724 104.477C256.92 104.285 257.071 104.047 257.177 103.763L258.392 104.104C258.264 104.516 258.049 104.878 257.747 105.19C257.445 105.499 257.072 105.741 256.629 105.915C256.185 106.085 255.686 106.17 255.132 106.17ZM260.432 106V97.8182H261.646V99.054H261.732C261.881 98.6491 262.151 98.3207 262.541 98.0685C262.932 97.8164 263.372 97.6903 263.862 97.6903C263.955 97.6903 264.07 97.6921 264.208 97.6957C264.347 97.6992 264.452 97.7045 264.523 97.7116V98.9901C264.48 98.9794 264.382 98.9634 264.23 98.9421C264.081 98.9173 263.923 98.9048 263.756 98.9048C263.358 98.9048 263.003 98.9883 262.69 99.1552C262.381 99.3185 262.136 99.5458 261.955 99.837C261.778 100.125 261.689 100.453 261.689 100.822V106H260.432ZM271.808 99.6506L270.679 99.9702C270.608 99.782 270.503 99.5991 270.365 99.4215C270.23 99.2404 270.045 99.0913 269.811 98.9741C269.576 98.8569 269.276 98.7983 268.911 98.7983C268.41 98.7983 267.993 98.9137 267.659 99.1445C267.329 99.3718 267.163 99.6612 267.163 100.013C267.163 100.325 267.277 100.572 267.504 100.753C267.732 100.934 268.087 101.085 268.57 101.206L269.784 101.504C270.516 101.682 271.061 101.953 271.419 102.319C271.778 102.681 271.957 103.148 271.957 103.72C271.957 104.189 271.823 104.608 271.553 104.977C271.286 105.347 270.913 105.638 270.434 105.851C269.955 106.064 269.397 106.17 268.761 106.17C267.927 106.17 267.236 105.989 266.689 105.627C266.142 105.265 265.796 104.736 265.651 104.04L266.844 103.741C266.957 104.182 267.172 104.512 267.488 104.732C267.808 104.952 268.225 105.062 268.74 105.062C269.326 105.062 269.791 104.938 270.136 104.69C270.484 104.437 270.658 104.136 270.658 103.784C270.658 103.5 270.558 103.262 270.359 103.07C270.161 102.875 269.855 102.729 269.443 102.634L268.08 102.314C267.33 102.136 266.78 101.861 266.428 101.488C266.08 101.112 265.906 100.641 265.906 100.077C265.906 99.6151 266.036 99.2067 266.295 98.8516C266.558 98.4964 266.915 98.2177 267.366 98.0153C267.82 97.8129 268.335 97.7116 268.911 97.7116C269.72 97.7116 270.356 97.8892 270.818 98.2443C271.283 98.5994 271.613 99.0682 271.808 99.6506ZM277.408 97.8182V98.8835H273.168V97.8182H277.408ZM274.404 95.858H275.661V103.656C275.661 104.011 275.712 104.278 275.815 104.455C275.922 104.629 276.057 104.746 276.22 104.807C276.387 104.864 276.563 104.892 276.748 104.892C276.886 104.892 277 104.885 277.088 104.871C277.177 104.853 277.248 104.839 277.301 104.828L277.557 105.957C277.472 105.989 277.353 106.021 277.2 106.053C277.048 106.089 276.854 106.107 276.62 106.107C276.265 106.107 275.917 106.03 275.576 105.877C275.238 105.725 274.958 105.492 274.734 105.18C274.514 104.867 274.404 104.473 274.404 103.997V95.858ZM281.707 106.192C281.188 106.192 280.718 106.094 280.295 105.899C279.873 105.7 279.537 105.414 279.288 105.041C279.04 104.665 278.915 104.21 278.915 103.678C278.915 103.209 279.008 102.829 279.192 102.538C279.377 102.243 279.624 102.012 279.933 101.845C280.242 101.678 280.583 101.554 280.956 101.472C281.332 101.387 281.71 101.32 282.09 101.27C282.587 101.206 282.99 101.158 283.299 101.126C283.612 101.091 283.839 101.032 283.981 100.95C284.127 100.869 284.2 100.727 284.2 100.524V100.482C284.2 99.956 284.056 99.5476 283.768 99.2564C283.484 98.9652 283.053 98.8196 282.474 98.8196C281.874 98.8196 281.403 98.951 281.062 99.2138C280.721 99.4766 280.482 99.7571 280.343 100.055L279.15 99.6293C279.363 99.1321 279.647 98.745 280.002 98.468C280.361 98.1875 280.751 97.9922 281.174 97.8821C281.6 97.7685 282.019 97.7116 282.431 97.7116C282.694 97.7116 282.996 97.7436 283.337 97.8075C283.681 97.8679 284.013 97.994 284.333 98.1857C284.656 98.3775 284.924 98.6669 285.137 99.054C285.35 99.4411 285.457 99.9595 285.457 100.609V106H284.2V104.892H284.136C284.05 105.07 283.908 105.26 283.71 105.462C283.511 105.664 283.246 105.837 282.916 105.979C282.586 106.121 282.183 106.192 281.707 106.192ZM281.898 105.062C282.396 105.062 282.815 104.965 283.156 104.77C283.5 104.574 283.759 104.322 283.933 104.013C284.111 103.704 284.2 103.379 284.2 103.038V101.888C284.146 101.952 284.029 102.01 283.848 102.064C283.67 102.113 283.464 102.158 283.23 102.197C282.999 102.232 282.774 102.264 282.554 102.293C282.337 102.317 282.161 102.339 282.026 102.357C281.7 102.399 281.394 102.468 281.11 102.564C280.83 102.657 280.602 102.797 280.428 102.985C280.258 103.17 280.173 103.422 280.173 103.741C280.173 104.178 280.334 104.509 280.657 104.732C280.984 104.952 281.398 105.062 281.898 105.062ZM289.008 101.078V106H287.751V97.8182H288.966V99.0966H289.072C289.264 98.6811 289.555 98.3473 289.946 98.0952C290.336 97.8395 290.841 97.7116 291.459 97.7116C292.013 97.7116 292.497 97.8253 292.913 98.0526C293.328 98.2763 293.651 98.6172 293.882 99.0753C294.113 99.5298 294.228 100.105 294.228 100.801V106H292.971V100.886C292.971 100.244 292.804 99.7429 292.471 99.3842C292.137 99.022 291.679 98.8409 291.096 98.8409C290.695 98.8409 290.336 98.9279 290.02 99.1019C289.708 99.2759 289.461 99.5298 289.28 99.8636C289.099 100.197 289.008 100.602 289.008 101.078ZM299.615 106.17C298.933 106.17 298.331 105.998 297.809 105.654C297.287 105.306 296.879 104.816 296.584 104.184C296.289 103.548 296.142 102.797 296.142 101.93C296.142 101.071 296.289 100.325 296.584 99.6932C296.879 99.0611 297.289 98.5728 297.815 98.2283C298.34 97.8839 298.947 97.7116 299.636 97.7116C300.169 97.7116 300.59 97.8004 300.899 97.978C301.211 98.152 301.449 98.3509 301.613 98.5746C301.779 98.7947 301.909 98.9759 302.001 99.1179H302.108V95.0909H303.365V106H302.151V104.743H302.001C301.909 104.892 301.778 105.08 301.607 105.308C301.437 105.531 301.194 105.732 300.877 105.909C300.561 106.083 300.141 106.17 299.615 106.17ZM299.786 105.041C300.29 105.041 300.716 104.91 301.064 104.647C301.412 104.381 301.676 104.013 301.858 103.544C302.039 103.072 302.129 102.527 302.129 101.909C302.129 101.298 302.04 100.764 301.863 100.306C301.685 99.8441 301.423 99.4854 301.075 99.2298C300.727 98.9705 300.297 98.8409 299.786 98.8409C299.253 98.8409 298.809 98.9776 298.454 99.2511C298.102 99.521 297.838 99.8885 297.66 100.354C297.486 100.815 297.399 101.334 297.399 101.909C297.399 102.491 297.488 103.021 297.665 103.496C297.847 103.969 298.113 104.345 298.464 104.626C298.82 104.903 299.26 105.041 299.786 105.041ZM305.842 106V97.8182H307.099V106H305.842ZM306.481 96.4545C306.236 96.4545 306.025 96.3711 305.847 96.2042C305.673 96.0373 305.586 95.8366 305.586 95.6023C305.586 95.3679 305.673 95.1673 305.847 95.0004C306.025 94.8335 306.236 94.75 306.481 94.75C306.726 94.75 306.936 94.8335 307.11 95.0004C307.287 95.1673 307.376 95.3679 307.376 95.6023C307.376 95.8366 307.287 96.0373 307.11 96.2042C306.936 96.3711 306.726 96.4545 306.481 96.4545ZM310.659 101.078V106H309.402V97.8182H310.616V99.0966H310.723C310.914 98.6811 311.206 98.3473 311.596 98.0952C311.987 97.8395 312.491 97.7116 313.109 97.7116C313.663 97.7116 314.148 97.8253 314.563 98.0526C314.979 98.2763 315.302 98.6172 315.533 99.0753C315.763 99.5298 315.879 100.105 315.879 100.801V106H314.622V100.886C314.622 100.244 314.455 99.7429 314.121 99.3842C313.787 99.022 313.329 98.8409 312.747 98.8409C312.345 98.8409 311.987 98.9279 311.671 99.1019C311.358 99.2759 311.111 99.5298 310.93 99.8636C310.749 100.197 310.659 100.602 310.659 101.078ZM321.479 109.239C320.871 109.239 320.349 109.161 319.912 109.004C319.476 108.852 319.112 108.649 318.82 108.397C318.533 108.148 318.304 107.882 318.133 107.598L319.135 106.895C319.248 107.044 319.392 107.214 319.566 107.406C319.74 107.602 319.978 107.77 320.28 107.912C320.585 108.058 320.985 108.131 321.479 108.131C322.139 108.131 322.684 107.971 323.114 107.651C323.544 107.332 323.758 106.831 323.758 106.149V104.487H323.652C323.559 104.636 323.428 104.821 323.258 105.041C323.091 105.258 322.849 105.451 322.533 105.622C322.221 105.789 321.798 105.872 321.265 105.872C320.605 105.872 320.012 105.716 319.486 105.403C318.964 105.091 318.551 104.636 318.245 104.04C317.943 103.443 317.792 102.719 317.792 101.866C317.792 101.028 317.94 100.299 318.235 99.6772C318.529 99.0522 318.939 98.5692 319.465 98.2283C319.991 97.8839 320.598 97.7116 321.287 97.7116C321.819 97.7116 322.242 97.8004 322.555 97.978C322.871 98.152 323.112 98.3509 323.279 98.5746C323.449 98.7947 323.581 98.9759 323.673 99.1179H323.801V97.8182H325.015V106.234C325.015 106.938 324.856 107.509 324.536 107.95C324.22 108.393 323.794 108.718 323.258 108.924C322.725 109.134 322.132 109.239 321.479 109.239ZM321.436 104.743C321.94 104.743 322.366 104.627 322.714 104.397C323.062 104.166 323.327 103.834 323.508 103.401C323.689 102.967 323.78 102.449 323.78 101.845C323.78 101.256 323.691 100.735 323.513 100.284C323.336 99.8335 323.073 99.4801 322.725 99.2244C322.377 98.9687 321.947 98.8409 321.436 98.8409C320.903 98.8409 320.459 98.9759 320.104 99.2457C319.753 99.5156 319.488 99.8778 319.311 100.332C319.137 100.787 319.05 101.291 319.05 101.845C319.05 102.413 319.138 102.916 319.316 103.353C319.497 103.786 319.763 104.127 320.115 104.375C320.47 104.62 320.91 104.743 321.436 104.743Z" fill="#43505B"/>
<defs>
<filter id="filter0_d_4411_1665" x="0" y="0" width="406" height="154" filterUnits="userSpaceOnUse" color-interpolation-filters="sRGB">
<feFlood flood-opacity="0" result="BackgroundImageFix"/>
<feColorMatrix in="SourceAlpha" type="matrix" values="0 0 0 0 0 0 0 0 0 0 0 0 0 0 0 0 0 0 127 0" result="hardAlpha"/>
<feMorphology radius="2" operator="erode" in="SourceAlpha" result="effect1_dropShadow_4411_1665"/>
<feOffset dy="4"/>
<feGaussianBlur stdDeviation="10"/>
<feColorMatrix type="matrix" values="0 0 0 0 0 0 0 0 0 0.184314 0 0 0 0 0.345098 0 0 0 0.08 0"/>
<feBlend mode="normal" in2="BackgroundImageFix" result="effect1_dropShadow_4411_1665"/>
<feBlend mode="normal" in="SourceGraphic" in2="effect1_dropShadow_4411_1665" result="shape"/>
</filter>
</defs>
</svg>
