<svg width="406" height="154" viewBox="0 0 406 154" fill="none" xmlns="http://www.w3.org/2000/svg">
<g filter="url(#filter0_d_4411_1636)">
<rect x="18" y="14" width="370" height="118" rx="8" fill="white"/>
</g>
<rect x="34" y="30" width="86" height="86" rx="8" fill="#F0FCF6"/>
<path d="M76.7588 78.582V54.5" stroke="#61DD9C" stroke-width="2.5" stroke-linecap="round" stroke-linejoin="round"/>
<path d="M82.5908 72.7285L76.7588 78.5845L70.9268 72.7285" stroke="#61DD9C" stroke-width="2.5" stroke-linecap="round" stroke-linejoin="round"/>
<path d="M85.741 63.5173C92.899 64.1773 95.501 66.8573 95.501 77.5173C95.501 91.7173 90.879 91.7173 77.001 91.7173C63.119 91.7173 58.501 91.7173 58.501 77.5173C58.501 66.8573 61.101 64.1773 68.261 63.5173" stroke="#61DD9C" stroke-width="2.5" stroke-linecap="round" stroke-linejoin="round"/>
<path d="M142.364 50H137.435V35.4545H142.463C143.907 35.4545 145.148 35.7457 146.185 36.3281C147.226 36.9058 148.027 37.7367 148.585 38.821C149.144 39.9053 149.423 41.2027 149.423 42.7131C149.423 44.2282 149.142 45.5303 148.578 46.6193C148.019 47.7083 147.212 48.544 146.156 49.1264C145.105 49.7088 143.841 50 142.364 50ZM140.07 47.7202H142.236C143.249 47.7202 144.094 47.5355 144.771 47.1662C145.448 46.7921 145.957 46.2358 146.298 45.4972C146.639 44.7538 146.81 43.8258 146.81 42.7131C146.81 41.6004 146.639 40.6771 146.298 39.9432C145.957 39.2045 145.453 38.6529 144.786 38.2884C144.123 37.919 143.299 37.7344 142.314 37.7344H140.07V47.7202ZM156.572 50.2131C155.506 50.2131 154.583 49.9787 153.802 49.5099C153.021 49.0412 152.415 48.3854 151.984 47.5426C151.558 46.6998 151.344 45.715 151.344 44.5881C151.344 43.4612 151.558 42.474 151.984 41.6264C152.415 40.7789 153.021 40.1207 153.802 39.652C154.583 39.1832 155.506 38.9489 156.572 38.9489C157.637 38.9489 158.56 39.1832 159.342 39.652C160.123 40.1207 160.727 40.7789 161.153 41.6264C161.584 42.474 161.799 43.4612 161.799 44.5881C161.799 45.715 161.584 46.6998 161.153 47.5426C160.727 48.3854 160.123 49.0412 159.342 49.5099C158.56 49.9787 157.637 50.2131 156.572 50.2131ZM156.586 48.1534C157.164 48.1534 157.647 47.9948 158.035 47.6776C158.423 47.3556 158.712 46.9247 158.901 46.3849C159.095 45.8452 159.192 45.2438 159.192 44.581C159.192 43.9134 159.095 43.3097 158.901 42.7699C158.712 42.2254 158.423 41.7921 158.035 41.4702C157.647 41.1482 157.164 40.9872 156.586 40.9872C155.994 40.9872 155.502 41.1482 155.109 41.4702C154.72 41.7921 154.429 42.2254 154.235 42.7699C154.046 43.3097 153.951 43.9134 153.951 44.581C153.951 45.2438 154.046 45.8452 154.235 46.3849C154.429 46.9247 154.72 47.3556 155.109 47.6776C155.502 47.9948 155.994 48.1534 156.586 48.1534ZM165.92 50L162.838 39.0909H165.458L167.376 46.7614H167.475L169.436 39.0909H172.028L173.988 46.7188H174.095L175.984 39.0909H178.612L175.522 50H172.845L170.799 42.6278H170.65L168.605 50H165.92ZM182.978 43.608V50H180.407V39.0909H182.864V40.9446H182.992C183.243 40.3338 183.643 39.8485 184.192 39.4886C184.746 39.1288 185.431 38.9489 186.245 38.9489C186.998 38.9489 187.654 39.1098 188.212 39.4318C188.776 39.7538 189.211 40.2202 189.519 40.831C189.832 41.4418 189.986 42.1828 189.981 43.054V50H187.41V43.4517C187.41 42.7225 187.22 42.152 186.842 41.7401C186.468 41.3281 185.949 41.1222 185.286 41.1222C184.836 41.1222 184.436 41.2216 184.086 41.4205C183.74 41.6146 183.468 41.8963 183.269 42.2656C183.075 42.6349 182.978 43.0824 182.978 43.608ZM195.165 35.4545V50H192.594V35.4545H195.165ZM202.568 50.2131C201.502 50.2131 200.579 49.9787 199.798 49.5099C199.017 49.0412 198.411 48.3854 197.98 47.5426C197.554 46.6998 197.341 45.715 197.341 44.5881C197.341 43.4612 197.554 42.474 197.98 41.6264C198.411 40.7789 199.017 40.1207 199.798 39.652C200.579 39.1832 201.502 38.9489 202.568 38.9489C203.633 38.9489 204.556 39.1832 205.338 39.652C206.119 40.1207 206.723 40.7789 207.149 41.6264C207.58 42.474 207.795 43.4612 207.795 44.5881C207.795 45.715 207.58 46.6998 207.149 47.5426C206.723 48.3854 206.119 49.0412 205.338 49.5099C204.556 49.9787 203.633 50.2131 202.568 50.2131ZM202.582 48.1534C203.16 48.1534 203.643 47.9948 204.031 47.6776C204.419 47.3556 204.708 46.9247 204.897 46.3849C205.092 45.8452 205.189 45.2438 205.189 44.581C205.189 43.9134 205.092 43.3097 204.897 42.7699C204.708 42.2254 204.419 41.7921 204.031 41.4702C203.643 41.1482 203.16 40.9872 202.582 40.9872C201.99 40.9872 201.498 41.1482 201.105 41.4702C200.717 41.7921 200.425 42.2254 200.231 42.7699C200.042 43.3097 199.947 43.9134 199.947 44.581C199.947 45.2438 200.042 45.8452 200.231 46.3849C200.425 46.9247 200.717 47.3556 201.105 47.6776C201.498 47.9948 201.99 48.1534 202.582 48.1534ZM213.116 50.2202C212.425 50.2202 211.803 50.0971 211.249 49.8509C210.699 49.5999 210.264 49.2306 209.942 48.7429C209.625 48.2552 209.466 47.6539 209.466 46.9389C209.466 46.3234 209.58 45.8144 209.807 45.4119C210.034 45.0095 210.344 44.6875 210.737 44.446C211.13 44.2045 211.573 44.0223 212.065 43.8991C212.563 43.7713 213.076 43.679 213.607 43.6222C214.246 43.5559 214.764 43.4967 215.162 43.4446C215.56 43.3878 215.848 43.3026 216.028 43.1889C216.213 43.0705 216.305 42.8883 216.305 42.642V42.5994C216.305 42.0644 216.147 41.6501 215.83 41.3565C215.512 41.063 215.055 40.9162 214.459 40.9162C213.829 40.9162 213.33 41.0535 212.96 41.3281C212.596 41.6027 212.349 41.9271 212.222 42.3011L209.821 41.9602C210.01 41.2973 210.323 40.7434 210.759 40.2983C211.194 39.8485 211.727 39.5123 212.357 39.2898C212.986 39.0625 213.682 38.9489 214.445 38.9489C214.97 38.9489 215.493 39.0104 216.014 39.1335C216.535 39.2566 217.011 39.4602 217.442 39.7443C217.873 40.0237 218.218 40.4048 218.479 40.8878C218.744 41.3707 218.876 41.9744 218.876 42.6989V50H216.405V48.5014H216.32C216.163 48.8045 215.943 49.0885 215.659 49.3537C215.38 49.6141 215.027 49.8248 214.601 49.9858C214.179 50.142 213.685 50.2202 213.116 50.2202ZM213.784 48.331C214.3 48.331 214.748 48.2292 215.126 48.0256C215.505 47.8172 215.796 47.5426 216 47.2017C216.208 46.8608 216.312 46.4891 216.312 46.0866V44.8011C216.232 44.8674 216.095 44.929 215.901 44.9858C215.711 45.0426 215.498 45.0923 215.261 45.1349C215.025 45.1776 214.79 45.2154 214.558 45.2486C214.326 45.2817 214.125 45.3101 213.955 45.3338C213.571 45.3859 213.228 45.4711 212.925 45.5895C212.622 45.7079 212.383 45.8736 212.207 46.0866C212.032 46.295 211.945 46.5649 211.945 46.8963C211.945 47.3698 212.117 47.7273 212.463 47.9688C212.809 48.2102 213.249 48.331 213.784 48.331ZM225.51 50.1918C224.653 50.1918 223.886 49.9716 223.209 49.5312C222.532 49.0909 221.997 48.4517 221.604 47.6136C221.211 46.7756 221.014 45.7576 221.014 44.5597C221.014 43.3475 221.213 42.3248 221.611 41.4915C222.013 40.6534 222.555 40.0213 223.237 39.5952C223.919 39.1643 224.679 38.9489 225.517 38.9489C226.156 38.9489 226.682 39.0578 227.094 39.2756C227.506 39.4886 227.832 39.7467 228.074 40.0497C228.315 40.348 228.502 40.6297 228.635 40.8949H228.741V35.4545H231.32V50H228.791V48.2812H228.635C228.502 48.5464 228.311 48.8281 228.06 49.1264C227.809 49.42 227.477 49.6709 227.065 49.8793C226.653 50.0876 226.135 50.1918 225.51 50.1918ZM226.227 48.0824C226.772 48.0824 227.236 47.9356 227.619 47.642C228.003 47.3437 228.294 46.9295 228.493 46.3991C228.692 45.8688 228.791 45.2509 228.791 44.5455C228.791 43.84 228.692 43.2268 228.493 42.706C228.299 42.1851 228.01 41.7803 227.626 41.4915C227.248 41.2027 226.781 41.0582 226.227 41.0582C225.654 41.0582 225.176 41.2074 224.793 41.5057C224.409 41.804 224.12 42.2159 223.926 42.7415C223.732 43.267 223.635 43.8684 223.635 44.5455C223.635 45.2273 223.732 45.8357 223.926 46.3707C224.125 46.901 224.416 47.3201 224.8 47.6278C225.188 47.9309 225.664 48.0824 226.227 48.0824ZM237.199 50.2202C236.507 50.2202 235.885 50.0971 235.331 49.8509C234.781 49.5999 234.346 49.2306 234.024 48.7429C233.707 48.2552 233.548 47.6539 233.548 46.9389C233.548 46.3234 233.662 45.8144 233.889 45.4119C234.116 45.0095 234.426 44.6875 234.819 44.446C235.212 44.2045 235.655 44.0223 236.147 43.8991C236.645 43.7713 237.158 43.679 237.689 43.6222C238.328 43.5559 238.846 43.4967 239.244 43.4446C239.642 43.3878 239.931 43.3026 240.11 43.1889C240.295 43.0705 240.387 42.8883 240.387 42.642V42.5994C240.387 42.0644 240.229 41.6501 239.912 41.3565C239.594 41.063 239.137 40.9162 238.541 40.9162C237.911 40.9162 237.412 41.0535 237.042 41.3281C236.678 41.6027 236.431 41.9271 236.304 42.3011L233.903 41.9602C234.092 41.2973 234.405 40.7434 234.841 40.2983C235.276 39.8485 235.809 39.5123 236.439 39.2898C237.068 39.0625 237.764 38.9489 238.527 38.9489C239.052 38.9489 239.575 39.0104 240.096 39.1335C240.617 39.2566 241.093 39.4602 241.524 39.7443C241.955 40.0237 242.3 40.4048 242.561 40.8878C242.826 41.3707 242.958 41.9744 242.958 42.6989V50H240.487V48.5014H240.402C240.245 48.8045 240.025 49.0885 239.741 49.3537C239.462 49.6141 239.109 49.8248 238.683 49.9858C238.261 50.142 237.767 50.2202 237.199 50.2202ZM237.866 48.331C238.382 48.331 238.83 48.2292 239.208 48.0256C239.587 47.8172 239.878 47.5426 240.082 47.2017C240.29 46.8608 240.395 46.4891 240.395 46.0866V44.8011C240.314 44.8674 240.177 44.929 239.983 44.9858C239.793 45.0426 239.58 45.0923 239.343 45.1349C239.107 45.1776 238.872 45.2154 238.64 45.2486C238.408 45.2817 238.207 45.3101 238.037 45.3338C237.653 45.3859 237.31 45.4711 237.007 45.5895C236.704 45.7079 236.465 45.8736 236.289 46.0866C236.114 46.295 236.027 46.5649 236.027 46.8963C236.027 47.3698 236.199 47.7273 236.545 47.9688C236.891 48.2102 237.331 48.331 237.866 48.331ZM245.657 50V35.4545H248.228V40.8949H248.335C248.467 40.6297 248.654 40.348 248.896 40.0497C249.137 39.7467 249.464 39.4886 249.876 39.2756C250.288 39.0578 250.814 38.9489 251.453 38.9489C252.296 38.9489 253.056 39.1643 253.733 39.5952C254.414 40.0213 254.954 40.6534 255.352 41.4915C255.754 42.3248 255.956 43.3475 255.956 44.5597C255.956 45.7576 255.759 46.7756 255.366 47.6136C254.973 48.4517 254.438 49.0909 253.761 49.5312C253.084 49.9716 252.317 50.1918 251.46 50.1918C250.835 50.1918 250.316 50.0876 249.904 49.8793C249.493 49.6709 249.161 49.42 248.91 49.1264C248.664 48.8281 248.472 48.5464 248.335 48.2812H248.186V50H245.657ZM248.179 44.5455C248.179 45.2509 248.278 45.8688 248.477 46.3991C248.681 46.9295 248.972 47.3437 249.35 47.642C249.734 47.9356 250.198 48.0824 250.743 48.0824C251.311 48.0824 251.787 47.9309 252.17 47.6278C252.554 47.3201 252.842 46.901 253.037 46.3707C253.235 45.8357 253.335 45.2273 253.335 44.5455C253.335 43.8684 253.238 43.267 253.044 42.7415C252.85 42.2159 252.561 41.804 252.177 41.5057C251.794 41.2074 251.315 41.0582 250.743 41.0582C250.193 41.0582 249.727 41.2027 249.343 41.4915C248.96 41.7803 248.669 42.1851 248.47 42.706C248.276 43.2268 248.179 43.84 248.179 44.5455ZM260.712 35.4545V50H258.141V35.4545H260.712ZM268.186 50.2131C267.092 50.2131 266.147 49.9858 265.352 49.5312C264.561 49.072 263.953 48.4233 263.527 47.5852C263.1 46.7424 262.887 45.7505 262.887 44.6094C262.887 43.4872 263.1 42.5024 263.527 41.6548C263.958 40.8026 264.559 40.1397 265.331 39.6662C266.102 39.188 267.009 38.9489 268.051 38.9489C268.723 38.9489 269.358 39.0578 269.954 39.2756C270.556 39.4886 271.086 39.8201 271.545 40.2699C272.009 40.7197 272.374 41.2926 272.639 41.9886C272.904 42.6799 273.037 43.5038 273.037 44.4602V45.2486H264.095V43.5156H270.572C270.567 43.0232 270.461 42.5852 270.252 42.2017C270.044 41.8134 269.753 41.508 269.379 41.2855C269.01 41.063 268.579 40.9517 268.086 40.9517C267.561 40.9517 267.099 41.0795 266.701 41.3352C266.304 41.5862 265.993 41.9176 265.771 42.3295C265.553 42.7367 265.442 43.1842 265.437 43.6719V45.1847C265.437 45.8191 265.553 46.3636 265.785 46.8182C266.017 47.268 266.342 47.6136 266.758 47.8551C267.175 48.0919 267.663 48.2102 268.221 48.2102C268.595 48.2102 268.934 48.1581 269.237 48.054C269.54 47.9451 269.803 47.7865 270.025 47.5781C270.248 47.3698 270.416 47.1117 270.529 46.804L272.93 47.0739C272.779 47.7083 272.49 48.2623 272.064 48.7358C271.642 49.2045 271.102 49.5691 270.444 49.8295C269.786 50.0852 269.033 50.2131 268.186 50.2131ZM149.885 66.3622H147.229C147.153 65.9266 147.013 65.5407 146.81 65.2045C146.606 64.8636 146.353 64.5748 146.05 64.3381C145.747 64.1013 145.401 63.9238 145.013 63.8054C144.629 63.6823 144.215 63.6207 143.77 63.6207C142.979 63.6207 142.278 63.8196 141.668 64.2173C141.057 64.6103 140.579 65.188 140.233 65.9503C139.887 66.7079 139.714 67.6335 139.714 68.7273C139.714 69.84 139.887 70.7775 140.233 71.5398C140.583 72.2973 141.062 72.8703 141.668 73.2585C142.278 73.642 142.977 73.8338 143.763 73.8338C144.198 73.8338 144.606 73.777 144.984 73.6634C145.368 73.545 145.711 73.3722 146.014 73.1449C146.322 72.9176 146.58 72.6383 146.788 72.3068C147.001 71.9754 147.148 71.5966 147.229 71.1705L149.885 71.1847C149.786 71.8759 149.57 72.5246 149.239 73.1307C148.912 73.7367 148.483 74.2718 147.953 74.7358C147.423 75.1951 146.803 75.5549 146.092 75.8153C145.382 76.071 144.594 76.1989 143.727 76.1989C142.449 76.1989 141.308 75.9029 140.304 75.3111C139.3 74.7192 138.509 73.8646 137.932 72.7472C137.354 71.6297 137.065 70.2898 137.065 68.7273C137.065 67.16 137.357 65.8201 137.939 64.7074C138.521 63.59 139.314 62.7353 140.318 62.1435C141.322 61.5516 142.458 61.2557 143.727 61.2557C144.537 61.2557 145.29 61.3693 145.986 61.5966C146.682 61.8239 147.302 62.1577 147.847 62.598C148.391 63.0336 148.839 63.5687 149.189 64.2031C149.544 64.8329 149.776 65.5526 149.885 66.3622ZM156.943 76.2131C155.877 76.2131 154.954 75.9787 154.173 75.5099C153.392 75.0412 152.786 74.3854 152.355 73.5426C151.929 72.6998 151.716 71.715 151.716 70.5881C151.716 69.4612 151.929 68.474 152.355 67.6264C152.786 66.7789 153.392 66.1207 154.173 65.652C154.954 65.1832 155.877 64.9489 156.943 64.9489C158.008 64.9489 158.931 65.1832 159.713 65.652C160.494 66.1207 161.098 66.7789 161.524 67.6264C161.955 68.474 162.17 69.4612 162.17 70.5881C162.17 71.715 161.955 72.6998 161.524 73.5426C161.098 74.3854 160.494 75.0412 159.713 75.5099C158.931 75.9787 158.008 76.2131 156.943 76.2131ZM156.957 74.1534C157.535 74.1534 158.018 73.9948 158.406 73.6776C158.794 73.3556 159.083 72.9247 159.272 72.3849C159.467 71.8452 159.564 71.2438 159.564 70.581C159.564 69.9134 159.467 69.3097 159.272 68.7699C159.083 68.2254 158.794 67.7921 158.406 67.4702C158.018 67.1482 157.535 66.9872 156.957 66.9872C156.365 66.9872 155.873 67.1482 155.48 67.4702C155.092 67.7921 154.8 68.2254 154.606 68.7699C154.417 69.3097 154.322 69.9134 154.322 70.581C154.322 71.2438 154.417 71.8452 154.606 72.3849C154.8 72.9247 155.092 73.3556 155.48 73.6776C155.873 73.9948 156.365 74.1534 156.957 74.1534ZM166.923 69.608V76H164.352V65.0909H166.81V66.9446H166.938C167.188 66.3338 167.589 65.8485 168.138 65.4886C168.692 65.1288 169.376 64.9489 170.19 64.9489C170.943 64.9489 171.599 65.1098 172.158 65.4318C172.721 65.7538 173.157 66.2202 173.464 66.831C173.777 67.4418 173.931 68.1828 173.926 69.054V76H171.355V69.4517C171.355 68.7225 171.166 68.152 170.787 67.7401C170.413 67.3281 169.894 67.1222 169.232 67.1222C168.782 67.1222 168.382 67.2216 168.031 67.4205C167.686 67.6146 167.413 67.8963 167.214 68.2656C167.02 68.6349 166.923 69.0824 166.923 69.608ZM181.987 65.0909V67.0795H175.716V65.0909H181.987ZM177.264 62.4773H179.835V72.7188C179.835 73.0644 179.887 73.3295 179.991 73.5142C180.1 73.6941 180.242 73.8172 180.418 73.8835C180.593 73.9498 180.787 73.983 181 73.983C181.161 73.983 181.308 73.9711 181.44 73.9474C181.578 73.9238 181.682 73.9025 181.753 73.8835L182.186 75.8935C182.049 75.9408 181.852 75.9929 181.597 76.0497C181.346 76.1065 181.038 76.1397 180.673 76.1491C180.029 76.1681 179.449 76.071 178.933 75.858C178.417 75.6402 178.008 75.304 177.705 74.8494C177.406 74.3949 177.259 73.8267 177.264 73.1449V62.4773ZM188.85 76.2131C187.756 76.2131 186.811 75.9858 186.016 75.5312C185.225 75.072 184.617 74.4233 184.191 73.5852C183.765 72.7424 183.551 71.7505 183.551 70.6094C183.551 69.4872 183.765 68.5024 184.191 67.6548C184.622 66.8026 185.223 66.1397 185.995 65.6662C186.766 65.188 187.673 64.9489 188.715 64.9489C189.387 64.9489 190.022 65.0578 190.618 65.2756C191.22 65.4886 191.75 65.8201 192.209 66.2699C192.673 66.7197 193.038 67.2926 193.303 67.9886C193.568 68.6799 193.701 69.5038 193.701 70.4602V71.2486H184.759V69.5156H191.236C191.231 69.0232 191.125 68.5852 190.917 68.2017C190.708 67.8134 190.417 67.508 190.043 67.2855C189.674 67.063 189.243 66.9517 188.75 66.9517C188.225 66.9517 187.763 67.0795 187.365 67.3352C186.968 67.5862 186.658 67.9176 186.435 68.3295C186.217 68.7367 186.106 69.1842 186.101 69.6719V71.1847C186.101 71.8191 186.217 72.3636 186.449 72.8182C186.681 73.268 187.006 73.6136 187.422 73.8551C187.839 74.0919 188.327 74.2102 188.885 74.2102C189.259 74.2102 189.598 74.1581 189.901 74.054C190.204 73.9451 190.467 73.7865 190.689 73.5781C190.912 73.3698 191.08 73.1117 191.194 72.804L193.594 73.0739C193.443 73.7083 193.154 74.2623 192.728 74.7358C192.306 75.2045 191.766 75.5691 191.108 75.8295C190.45 76.0852 189.697 76.2131 188.85 76.2131ZM198.447 69.608V76H195.876V65.0909H198.333V66.9446H198.461C198.712 66.3338 199.112 65.8485 199.661 65.4886C200.215 65.1288 200.899 64.9489 201.714 64.9489C202.467 64.9489 203.122 65.1098 203.681 65.4318C204.245 65.7538 204.68 66.2202 204.988 66.831C205.3 67.4418 205.454 68.1828 205.45 69.054V76H202.879V69.4517C202.879 68.7225 202.689 68.152 202.31 67.7401C201.936 67.3281 201.418 67.1222 200.755 67.1222C200.305 67.1222 199.905 67.2216 199.555 67.4205C199.209 67.6146 198.937 67.8963 198.738 68.2656C198.544 68.6349 198.447 69.0824 198.447 69.608ZM213.511 65.0909V67.0795H207.239V65.0909H213.511ZM208.788 62.4773H211.359V72.7188C211.359 73.0644 211.411 73.3295 211.515 73.5142C211.624 73.6941 211.766 73.8172 211.941 73.8835C212.116 73.9498 212.31 73.983 212.523 73.983C212.684 73.983 212.831 73.9711 212.964 73.9474C213.101 73.9238 213.205 73.9025 213.276 73.8835L213.71 75.8935C213.572 75.9408 213.376 75.9929 213.12 76.0497C212.869 76.1065 212.561 76.1397 212.197 76.1491C211.553 76.1681 210.973 76.071 210.457 75.858C209.941 75.6402 209.531 75.304 209.228 74.8494C208.93 74.3949 208.783 73.8267 208.788 73.1449V62.4773Z" fill="#0A2134"/>
<path d="M139.303 106L136.32 95.0909H137.662L139.942 103.976H140.048L142.371 95.0909H143.862L146.185 103.976H146.291L148.571 95.0909H149.913L146.93 106H145.567L143.159 97.3068H143.074L140.666 106H139.303ZM151.389 106V97.8182H152.646V106H151.389ZM152.028 96.4545C151.783 96.4545 151.572 96.3711 151.394 96.2042C151.22 96.0373 151.133 95.8366 151.133 95.6023C151.133 95.3679 151.22 95.1673 151.394 95.0004C151.572 94.8335 151.783 94.75 152.028 94.75C152.273 94.75 152.483 94.8335 152.657 95.0004C152.834 95.1673 152.923 95.3679 152.923 95.6023C152.923 95.8366 152.834 96.0373 152.657 96.2042C152.483 96.3711 152.273 96.4545 152.028 96.4545ZM158.507 97.8182V98.8835H154.267V97.8182H158.507ZM155.502 95.858H156.759V103.656C156.759 104.011 156.811 104.278 156.914 104.455C157.021 104.629 157.155 104.746 157.319 104.807C157.486 104.864 157.661 104.892 157.846 104.892C157.985 104.892 158.098 104.885 158.187 104.871C158.276 104.853 158.347 104.839 158.4 104.828L158.656 105.957C158.571 105.989 158.452 106.021 158.299 106.053C158.146 106.089 157.953 106.107 157.718 106.107C157.363 106.107 157.015 106.03 156.674 105.877C156.337 105.725 156.056 105.492 155.833 105.18C155.612 104.867 155.502 104.473 155.502 103.997V95.858ZM161.831 101.078V106H160.573V95.0909H161.831V99.0966H161.937C162.129 98.674 162.416 98.3384 162.8 98.0898C163.187 97.8377 163.702 97.7116 164.345 97.7116C164.902 97.7116 165.391 97.8235 165.81 98.0472C166.229 98.2674 166.554 98.6065 166.784 99.0646C167.019 99.5192 167.136 100.098 167.136 100.801V106H165.879V100.886C165.879 100.237 165.71 99.734 165.373 99.3789C165.039 99.0202 164.576 98.8409 163.983 98.8409C163.571 98.8409 163.201 98.9279 162.875 99.1019C162.551 99.2759 162.296 99.5298 162.108 99.8636C161.923 100.197 161.831 100.602 161.831 101.078ZM174.912 95.0909V106H173.654V95.0909H174.912ZM177.214 106V97.8182H178.471V106H177.214ZM177.853 96.4545C177.608 96.4545 177.397 96.3711 177.219 96.2042C177.045 96.0373 176.958 95.8366 176.958 95.6023C176.958 95.3679 177.045 95.1673 177.219 95.0004C177.397 94.8335 177.608 94.75 177.853 94.75C178.098 94.75 178.308 94.8335 178.482 95.0004C178.659 95.1673 178.748 95.3679 178.748 95.6023C178.748 95.8366 178.659 96.0373 178.482 96.2042C178.308 96.3711 178.098 96.4545 177.853 96.4545ZM184.417 97.8182V98.8835H180.007V97.8182H184.417ZM181.328 106V96.6889C181.328 96.2202 181.438 95.8295 181.658 95.517C181.878 95.2045 182.164 94.9702 182.515 94.8139C182.867 94.6577 183.238 94.5795 183.629 94.5795C183.938 94.5795 184.19 94.6044 184.385 94.6541C184.58 94.7038 184.726 94.75 184.822 94.7926L184.46 95.8793C184.396 95.858 184.307 95.8313 184.193 95.7994C184.083 95.7674 183.938 95.7514 183.757 95.7514C183.341 95.7514 183.041 95.8562 182.856 96.0657C182.675 96.2752 182.585 96.5824 182.585 96.9872V106H181.328ZM189.272 106.17C188.484 106.17 187.804 105.996 187.232 105.648C186.664 105.297 186.225 104.807 185.917 104.178C185.611 103.546 185.458 102.811 185.458 101.973C185.458 101.135 185.611 100.396 185.917 99.7571C186.225 99.1143 186.655 98.6136 187.206 98.255C187.76 97.8928 188.406 97.7116 189.145 97.7116C189.571 97.7116 189.991 97.7827 190.407 97.9247C190.822 98.0668 191.201 98.2976 191.542 98.6172C191.882 98.9332 192.154 99.3523 192.357 99.8743C192.559 100.396 192.66 101.039 192.66 101.803V102.335H186.353V101.249H191.382C191.382 100.787 191.289 100.375 191.105 100.013C190.924 99.6506 190.664 99.3647 190.327 99.1552C189.993 98.9457 189.599 98.8409 189.145 98.8409C188.644 98.8409 188.211 98.9652 187.845 99.2138C187.483 99.4588 187.204 99.7784 187.009 100.173C186.813 100.567 186.716 100.989 186.716 101.44V102.165C186.716 102.783 186.822 103.306 187.035 103.736C187.252 104.162 187.552 104.487 187.935 104.711C188.319 104.931 188.765 105.041 189.272 105.041C189.603 105.041 189.901 104.995 190.167 104.903C190.437 104.807 190.67 104.665 190.865 104.477C191.06 104.285 191.211 104.047 191.318 103.763L192.532 104.104C192.404 104.516 192.19 104.878 191.888 105.19C191.586 105.499 191.213 105.741 190.769 105.915C190.325 106.085 189.826 106.17 189.272 106.17ZM198.131 97.8182V98.8835H193.891V97.8182H198.131ZM195.126 95.858H196.384V103.656C196.384 104.011 196.435 104.278 196.538 104.455C196.645 104.629 196.779 104.746 196.943 104.807C197.11 104.864 197.286 104.892 197.47 104.892C197.609 104.892 197.722 104.885 197.811 104.871C197.9 104.853 197.971 104.839 198.024 104.828L198.28 105.957C198.195 105.989 198.076 106.021 197.923 106.053C197.77 106.089 197.577 106.107 197.342 106.107C196.987 106.107 196.639 106.03 196.298 105.877C195.961 105.725 195.68 105.492 195.457 105.18C195.237 104.867 195.126 104.473 195.126 103.997V95.858ZM200.022 106V97.8182H201.279V106H200.022ZM200.661 96.4545C200.416 96.4545 200.205 96.3711 200.027 96.2042C199.853 96.0373 199.766 95.8366 199.766 95.6023C199.766 95.3679 199.853 95.1673 200.027 95.0004C200.205 94.8335 200.416 94.75 200.661 94.75C200.906 94.75 201.115 94.8335 201.289 95.0004C201.467 95.1673 201.556 95.3679 201.556 95.6023C201.556 95.8366 201.467 96.0373 201.289 96.2042C201.115 96.3711 200.906 96.4545 200.661 96.4545ZM203.581 106V97.8182H204.796V99.0966H204.902C205.073 98.6598 205.348 98.3207 205.728 98.0792C206.108 97.8342 206.564 97.7116 207.097 97.7116C207.637 97.7116 208.086 97.8342 208.445 98.0792C208.807 98.3207 209.089 98.6598 209.291 99.0966H209.377C209.586 98.674 209.9 98.3384 210.32 98.0898C210.739 97.8377 211.241 97.7116 211.827 97.7116C212.559 97.7116 213.157 97.9407 213.622 98.3988C214.087 98.8533 214.32 99.5618 214.32 100.524V106H213.063V100.524C213.063 99.9205 212.898 99.489 212.567 99.2298C212.237 98.9705 211.848 98.8409 211.401 98.8409C210.826 98.8409 210.38 99.0149 210.064 99.3629C209.748 99.7074 209.59 100.144 209.59 100.673V106H208.311V100.396C208.311 99.9311 208.16 99.5565 207.859 99.2724C207.557 98.9847 207.168 98.8409 206.692 98.8409C206.365 98.8409 206.06 98.9279 205.776 99.1019C205.495 99.2759 205.268 99.5174 205.094 99.8263C204.924 100.132 204.838 100.485 204.838 100.886V106H203.581ZM220.049 106.17C219.26 106.17 218.58 105.996 218.009 105.648C217.44 105.297 217.002 104.807 216.693 104.178C216.388 103.546 216.235 102.811 216.235 101.973C216.235 101.135 216.388 100.396 216.693 99.7571C217.002 99.1143 217.432 98.6136 217.982 98.255C218.536 97.8928 219.182 97.7116 219.921 97.7116C220.347 97.7116 220.768 97.7827 221.183 97.9247C221.599 98.0668 221.977 98.2976 222.318 98.6172C222.659 98.9332 222.93 99.3523 223.133 99.8743C223.335 100.396 223.437 101.039 223.437 101.803V102.335H217.13V101.249H222.158C222.158 100.787 222.066 100.375 221.881 100.013C221.7 99.6506 221.441 99.3647 221.103 99.1552C220.77 98.9457 220.375 98.8409 219.921 98.8409C219.42 98.8409 218.987 98.9652 218.621 99.2138C218.259 99.4588 217.98 99.7784 217.785 100.173C217.59 100.567 217.492 100.989 217.492 101.44V102.165C217.492 102.783 217.598 103.306 217.812 103.736C218.028 104.162 218.328 104.487 218.712 104.711C219.095 104.931 219.541 105.041 220.049 105.041C220.379 105.041 220.677 104.995 220.944 104.903C221.214 104.807 221.446 104.665 221.641 104.477C221.837 104.285 221.988 104.047 222.094 103.763L223.309 104.104C223.181 104.516 222.966 104.878 222.664 105.19C222.362 105.499 221.989 105.741 221.546 105.915C221.102 106.085 220.603 106.17 220.049 106.17ZM231.975 106.192C231.457 106.192 230.986 106.094 230.564 105.899C230.141 105.7 229.805 105.414 229.557 105.041C229.308 104.665 229.184 104.21 229.184 103.678C229.184 103.209 229.276 102.829 229.461 102.538C229.646 102.243 229.892 102.012 230.201 101.845C230.51 101.678 230.851 101.554 231.224 101.472C231.601 101.387 231.979 101.32 232.359 101.27C232.856 101.206 233.259 101.158 233.568 101.126C233.88 101.091 234.108 101.032 234.25 100.95C234.395 100.869 234.468 100.727 234.468 100.524V100.482C234.468 99.956 234.324 99.5476 234.037 99.2564C233.753 98.9652 233.321 98.8196 232.742 98.8196C232.142 98.8196 231.672 98.951 231.331 99.2138C230.99 99.4766 230.75 99.7571 230.612 100.055L229.418 99.6293C229.631 99.1321 229.916 98.745 230.271 98.468C230.629 98.1875 231.02 97.9922 231.443 97.8821C231.869 97.7685 232.288 97.7116 232.7 97.7116C232.962 97.7116 233.264 97.7436 233.605 97.8075C233.95 97.8679 234.282 97.994 234.601 98.1857C234.924 98.3775 235.193 98.6669 235.406 99.054C235.619 99.4411 235.725 99.9595 235.725 100.609V106H234.468V104.892H234.404C234.319 105.07 234.177 105.26 233.978 105.462C233.779 105.664 233.515 105.837 233.184 105.979C232.854 106.121 232.451 106.192 231.975 106.192ZM232.167 105.062C232.664 105.062 233.083 104.965 233.424 104.77C233.769 104.574 234.028 104.322 234.202 104.013C234.379 103.704 234.468 103.379 234.468 103.038V101.888C234.415 101.952 234.298 102.01 234.117 102.064C233.939 102.113 233.733 102.158 233.499 102.197C233.268 102.232 233.042 102.264 232.822 102.293C232.606 102.317 232.43 102.339 232.295 102.357C231.968 102.399 231.663 102.468 231.379 102.564C231.098 102.657 230.871 102.797 230.697 102.985C230.526 103.17 230.441 103.422 230.441 103.741C230.441 104.178 230.603 104.509 230.926 104.732C231.253 104.952 231.666 105.062 232.167 105.062ZM241.344 106.17C240.577 106.17 239.916 105.989 239.362 105.627C238.808 105.265 238.382 104.766 238.084 104.13C237.785 103.495 237.636 102.768 237.636 101.952C237.636 101.121 237.789 100.387 238.094 99.7518C238.403 99.1126 238.833 98.6136 239.383 98.255C239.937 97.8928 240.584 97.7116 241.322 97.7116C241.898 97.7116 242.416 97.8182 242.878 98.0312C243.339 98.2443 243.718 98.5426 244.012 98.9261C244.307 99.3097 244.49 99.7571 244.561 100.268H243.304C243.208 99.8956 242.995 99.5653 242.665 99.2777C242.338 98.9865 241.898 98.8409 241.344 98.8409C240.854 98.8409 240.424 98.9687 240.055 99.2244C239.689 99.4766 239.403 99.8335 239.197 100.295C238.994 100.753 238.893 101.291 238.893 101.909C238.893 102.541 238.993 103.092 239.192 103.56C239.394 104.029 239.678 104.393 240.044 104.652C240.413 104.912 240.846 105.041 241.344 105.041C241.67 105.041 241.967 104.984 242.233 104.871C242.499 104.757 242.725 104.594 242.91 104.381C243.094 104.168 243.226 103.912 243.304 103.614H244.561C244.49 104.097 244.314 104.532 244.034 104.919C243.757 105.302 243.389 105.608 242.931 105.835C242.476 106.059 241.947 106.17 241.344 106.17ZM249.722 106.17C248.955 106.17 248.295 105.989 247.741 105.627C247.187 105.265 246.761 104.766 246.463 104.13C246.164 103.495 246.015 102.768 246.015 101.952C246.015 101.121 246.168 100.387 246.473 99.7518C246.782 99.1126 247.212 98.6136 247.762 98.255C248.316 97.8928 248.963 97.7116 249.701 97.7116C250.276 97.7116 250.795 97.8182 251.257 98.0312C251.718 98.2443 252.096 98.5426 252.391 98.9261C252.686 99.3097 252.869 99.7571 252.94 100.268H251.683C251.587 99.8956 251.374 99.5653 251.044 99.2777C250.717 98.9865 250.276 98.8409 249.722 98.8409C249.232 98.8409 248.803 98.9687 248.433 99.2244C248.068 99.4766 247.782 99.8335 247.576 100.295C247.373 100.753 247.272 101.291 247.272 101.909C247.272 102.541 247.372 103.092 247.57 103.56C247.773 104.029 248.057 104.393 248.423 104.652C248.792 104.912 249.225 105.041 249.722 105.041C250.049 105.041 250.346 104.984 250.612 104.871C250.878 104.757 251.104 104.594 251.289 104.381C251.473 104.168 251.605 103.912 251.683 103.614H252.94C252.869 104.097 252.693 104.532 252.412 104.919C252.135 105.302 251.768 105.608 251.31 105.835C250.855 106.059 250.326 106.17 249.722 106.17ZM258.208 106.17C257.42 106.17 256.74 105.996 256.168 105.648C255.6 105.297 255.161 104.807 254.852 104.178C254.547 103.546 254.394 102.811 254.394 101.973C254.394 101.135 254.547 100.396 254.852 99.7571C255.161 99.1143 255.591 98.6136 256.141 98.255C256.695 97.8928 257.341 97.7116 258.08 97.7116C258.506 97.7116 258.927 97.7827 259.343 97.9247C259.758 98.0668 260.136 98.2976 260.477 98.6172C260.818 98.9332 261.09 99.3523 261.292 99.8743C261.494 100.396 261.596 101.039 261.596 101.803V102.335H255.289V101.249H260.317C260.317 100.787 260.225 100.375 260.04 100.013C259.859 99.6506 259.6 99.3647 259.263 99.1552C258.929 98.9457 258.535 98.8409 258.08 98.8409C257.579 98.8409 257.146 98.9652 256.78 99.2138C256.418 99.4588 256.139 99.7784 255.944 100.173C255.749 100.567 255.651 100.989 255.651 101.44V102.165C255.651 102.783 255.758 103.306 255.971 103.736C256.187 104.162 256.487 104.487 256.871 104.711C257.254 104.931 257.7 105.041 258.208 105.041C258.538 105.041 258.836 104.995 259.103 104.903C259.373 104.807 259.605 104.665 259.801 104.477C259.996 104.285 260.147 104.047 260.253 103.763L261.468 104.104C261.34 104.516 261.125 104.878 260.823 105.19C260.521 105.499 260.149 105.741 259.705 105.915C259.261 106.085 258.762 106.17 258.208 106.17ZM269.303 99.6506L268.174 99.9702C268.103 99.782 267.998 99.5991 267.86 99.4215C267.725 99.2404 267.54 99.0913 267.306 98.9741C267.072 98.8569 266.771 98.7983 266.406 98.7983C265.905 98.7983 265.488 98.9137 265.154 99.1445C264.824 99.3718 264.659 99.6612 264.659 100.013C264.659 100.325 264.772 100.572 264.999 100.753C265.227 100.934 265.582 101.085 266.065 101.206L267.279 101.504C268.011 101.682 268.556 101.953 268.915 102.319C269.273 102.681 269.453 103.148 269.453 103.72C269.453 104.189 269.318 104.608 269.048 104.977C268.781 105.347 268.409 105.638 267.929 105.851C267.45 106.064 266.892 106.17 266.257 106.17C265.422 106.17 264.731 105.989 264.184 105.627C263.638 105.265 263.291 104.736 263.146 104.04L264.339 103.741C264.453 104.182 264.667 104.512 264.983 104.732C265.303 104.952 265.72 105.062 266.235 105.062C266.821 105.062 267.286 104.938 267.631 104.69C267.979 104.437 268.153 104.136 268.153 103.784C268.153 103.5 268.053 103.262 267.855 103.07C267.656 102.875 267.35 102.729 266.938 102.634L265.575 102.314C264.825 102.136 264.275 101.861 263.923 101.488C263.575 101.112 263.401 100.641 263.401 100.077C263.401 99.6151 263.531 99.2067 263.79 98.8516C264.053 98.4964 264.41 98.2177 264.861 98.0153C265.316 97.8129 265.83 97.7116 266.406 97.7116C267.215 97.7116 267.851 97.8892 268.313 98.2443C268.778 98.5994 269.108 99.0682 269.303 99.6506ZM277.14 99.6506L276.011 99.9702C275.94 99.782 275.835 99.5991 275.697 99.4215C275.562 99.2404 275.377 99.0913 275.143 98.9741C274.908 98.8569 274.608 98.7983 274.243 98.7983C273.742 98.7983 273.325 98.9137 272.991 99.1445C272.661 99.3718 272.495 99.6612 272.495 100.013C272.495 100.325 272.609 100.572 272.836 100.753C273.064 100.934 273.419 101.085 273.902 101.206L275.116 101.504C275.848 101.682 276.393 101.953 276.752 102.319C277.11 102.681 277.29 103.148 277.29 103.72C277.29 104.189 277.155 104.608 276.885 104.977C276.618 105.347 276.245 105.638 275.766 105.851C275.287 106.064 274.729 106.17 274.093 106.17C273.259 106.17 272.568 105.989 272.021 105.627C271.475 105.265 271.128 104.736 270.983 104.04L272.176 103.741C272.29 104.182 272.504 104.512 272.82 104.732C273.14 104.952 273.557 105.062 274.072 105.062C274.658 105.062 275.123 104.938 275.468 104.69C275.816 104.437 275.99 104.136 275.99 103.784C275.99 103.5 275.89 103.262 275.691 103.07C275.493 102.875 275.187 102.729 274.775 102.634L273.412 102.314C272.662 102.136 272.112 101.861 271.76 101.488C271.412 101.112 271.238 100.641 271.238 100.077C271.238 99.6151 271.368 99.2067 271.627 98.8516C271.89 98.4964 272.247 98.2177 272.698 98.0153C273.152 97.8129 273.667 97.7116 274.243 97.7116C275.052 97.7116 275.688 97.8892 276.15 98.2443C276.615 98.5994 276.945 99.0682 277.14 99.6506Z" fill="#43505B"/>
<defs>
<filter id="filter0_d_4411_1636" x="0" y="0" width="406" height="154" filterUnits="userSpaceOnUse" color-interpolation-filters="sRGB">
<feFlood flood-opacity="0" result="BackgroundImageFix"/>
<feColorMatrix in="SourceAlpha" type="matrix" values="0 0 0 0 0 0 0 0 0 0 0 0 0 0 0 0 0 0 127 0" result="hardAlpha"/>
<feMorphology radius="2" operator="erode" in="SourceAlpha" result="effect1_dropShadow_4411_1636"/>
<feOffset dy="4"/>
<feGaussianBlur stdDeviation="10"/>
<feColorMatrix type="matrix" values="0 0 0 0 0 0 0 0 0 0.184314 0 0 0 0 0.345098 0 0 0 0.08 0"/>
<feBlend mode="normal" in2="BackgroundImageFix" result="effect1_dropShadow_4411_1636"/>
<feBlend mode="normal" in="SourceGraphic" in2="effect1_dropShadow_4411_1636" result="shape"/>
</filter>
</defs>
</svg>
