<svg width="406" height="154" viewBox="0 0 406 154" fill="none" xmlns="http://www.w3.org/2000/svg">
<g filter="url(#filter0_d_4411_1650)">
<rect x="18" y="14" width="370" height="118" rx="8" fill="white"/>
</g>
<rect x="34" y="30" width="86" height="86" rx="8" fill="#F1F1FC"/>
<path d="M84.191 80.3926H69.751" stroke="#4540E1" stroke-width="2.5" stroke-linecap="round" stroke-linejoin="round"/>
<path d="M84.191 72.873H69.751" stroke="#4540E1" stroke-width="2.5" stroke-linecap="round" stroke-linejoin="round"/>
<path d="M75.262 65.3535H69.752" stroke="#4540E1" stroke-width="2.5" stroke-linecap="round" stroke-linejoin="round"/>
<path fill-rule="evenodd" clip-rule="evenodd" d="M60.2197 73C60.2197 86.874 64.4157 91.5 77.0017 91.5C89.5897 91.5 93.7837 86.874 93.7837 73C93.7837 59.126 89.5897 54.5 77.0017 54.5C64.4157 54.5 60.2197 59.126 60.2197 73Z" stroke="#4540E1" stroke-width="2.5" stroke-linecap="round" stroke-linejoin="round"/>
<path d="M142.619 50.1989C141.923 50.1941 141.244 50.0734 140.581 49.8366C139.918 49.5952 139.321 49.2045 138.791 48.6648C138.261 48.1203 137.839 47.3982 137.527 46.4986C137.214 45.5942 137.061 44.4744 137.065 43.1392C137.065 41.8939 137.198 40.7836 137.463 39.8082C137.728 38.8329 138.109 38.009 138.607 37.3366C139.104 36.6596 139.703 36.1435 140.403 35.7884C141.109 35.4332 141.897 35.2557 142.768 35.2557C143.682 35.2557 144.492 35.4356 145.197 35.7955C145.908 36.1553 146.481 36.6477 146.916 37.2727C147.352 37.893 147.622 38.5938 147.726 39.375H145.134C145.001 38.8163 144.729 38.3712 144.317 38.0398C143.91 37.7036 143.393 37.5355 142.768 37.5355C141.76 37.5355 140.983 37.9735 140.439 38.8494C139.899 39.7254 139.627 40.928 139.622 42.4574H139.722C139.954 42.0407 140.254 41.6832 140.624 41.3849C140.993 41.0866 141.41 40.857 141.874 40.696C142.342 40.5303 142.837 40.4474 143.358 40.4474C144.21 40.4474 144.975 40.651 145.652 41.0582C146.334 41.4654 146.874 42.0265 147.271 42.7415C147.669 43.4517 147.866 44.2661 147.861 45.1847C147.866 46.1411 147.648 47.0005 147.207 47.7628C146.767 48.5204 146.154 49.117 145.368 49.5526C144.582 49.9882 143.666 50.2036 142.619 50.1989ZM142.605 48.0682C143.121 48.0682 143.583 47.9427 143.99 47.6918C144.397 47.4408 144.719 47.1023 144.956 46.6761C145.193 46.25 145.309 45.7718 145.304 45.2415C145.309 44.7206 145.195 44.2495 144.963 43.8281C144.736 43.4067 144.421 43.0729 144.018 42.8267C143.616 42.5805 143.157 42.4574 142.641 42.4574C142.257 42.4574 141.9 42.5308 141.568 42.6776C141.237 42.8243 140.948 43.0279 140.702 43.2884C140.455 43.544 140.261 43.8423 140.119 44.1832C139.982 44.5194 139.911 44.8793 139.906 45.2628C139.911 45.7694 140.029 46.2358 140.261 46.6619C140.493 47.0881 140.813 47.429 141.22 47.6847C141.627 47.9403 142.089 48.0682 142.605 48.0682ZM157.999 35.4545V50H155.364V35.4545H157.999ZM163.31 43.608V50H160.739V39.0909H163.196V40.9446H163.324C163.575 40.3338 163.975 39.8485 164.525 39.4886C165.078 39.1288 165.763 38.9489 166.577 38.9489C167.33 38.9489 167.986 39.1098 168.544 39.4318C169.108 39.7538 169.543 40.2202 169.851 40.831C170.164 41.4418 170.318 42.1828 170.313 43.054V50H167.742V43.4517C167.742 42.7225 167.552 42.152 167.174 41.7401C166.8 41.3281 166.281 41.1222 165.618 41.1222C165.168 41.1222 164.768 41.2216 164.418 41.4205C164.072 41.6146 163.8 41.8963 163.601 42.2656C163.407 42.6349 163.31 43.0824 163.31 43.608ZM176.975 50.1918C176.118 50.1918 175.351 49.9716 174.674 49.5312C173.997 49.0909 173.462 48.4517 173.069 47.6136C172.676 46.7756 172.479 45.7576 172.479 44.5597C172.479 43.3475 172.678 42.3248 173.076 41.4915C173.478 40.6534 174.02 40.0213 174.702 39.5952C175.384 39.1643 176.144 38.9489 176.982 38.9489C177.621 38.9489 178.147 39.0578 178.559 39.2756C178.971 39.4886 179.297 39.7467 179.539 40.0497C179.78 40.348 179.967 40.6297 180.1 40.8949H180.206V35.4545H182.784V50H180.256V48.2812H180.1C179.967 48.5464 179.775 48.8281 179.525 49.1264C179.274 49.42 178.942 49.6709 178.53 49.8793C178.118 50.0876 177.6 50.1918 176.975 50.1918ZM177.692 48.0824C178.237 48.0824 178.701 47.9356 179.084 47.642C179.468 47.3437 179.759 46.9295 179.958 46.3991C180.157 45.8688 180.256 45.2509 180.256 44.5455C180.256 43.84 180.157 43.2268 179.958 42.706C179.764 42.1851 179.475 41.7803 179.091 41.4915C178.712 41.2027 178.246 41.0582 177.692 41.0582C177.119 41.0582 176.641 41.2074 176.257 41.5057C175.874 41.804 175.585 42.2159 175.391 42.7415C175.197 43.267 175.1 43.8684 175.1 44.5455C175.1 45.2273 175.197 45.8357 175.391 46.3707C175.59 46.901 175.881 47.3201 176.265 47.6278C176.653 47.9309 177.129 48.0824 177.692 48.0824ZM192.477 45.4119V39.0909H195.048V50H192.555V48.0611H192.442C192.196 48.6719 191.791 49.1714 191.227 49.5597C190.669 49.9479 189.98 50.142 189.161 50.142C188.446 50.142 187.813 49.9834 187.264 49.6662C186.72 49.3442 186.294 48.8778 185.986 48.267C185.678 47.6515 185.524 46.9081 185.524 46.0369V39.0909H188.095V45.6392C188.095 46.3305 188.285 46.8797 188.663 47.2869C189.042 47.6941 189.539 47.8977 190.155 47.8977C190.534 47.8977 190.901 47.8054 191.256 47.6207C191.611 47.4361 191.902 47.1615 192.129 46.7969C192.361 46.4276 192.477 45.9659 192.477 45.4119ZM206.314 41.9744L203.971 42.2301C203.904 41.9934 203.788 41.7708 203.623 41.5625C203.462 41.3542 203.244 41.1861 202.969 41.0582C202.694 40.9304 202.358 40.8665 201.961 40.8665C201.426 40.8665 200.976 40.9825 200.611 41.2145C200.251 41.4465 200.074 41.7472 200.078 42.1165C200.074 42.4337 200.19 42.6918 200.426 42.8906C200.668 43.0895 201.066 43.2528 201.62 43.3807L203.48 43.7784C204.513 44.0009 205.28 44.3537 205.782 44.8366C206.288 45.3196 206.544 45.9517 206.549 46.733C206.544 47.4195 206.343 48.0256 205.945 48.5511C205.552 49.072 205.005 49.4792 204.304 49.7727C203.604 50.0663 202.799 50.2131 201.89 50.2131C200.554 50.2131 199.48 49.9337 198.665 49.375C197.851 48.8116 197.365 48.0279 197.209 47.0241L199.716 46.7827C199.83 47.2751 200.071 47.6468 200.441 47.8977C200.81 48.1487 201.291 48.2741 201.882 48.2741C202.493 48.2741 202.983 48.1487 203.353 47.8977C203.727 47.6468 203.914 47.3366 203.914 46.9673C203.914 46.6548 203.793 46.3968 203.551 46.1932C203.315 45.9896 202.945 45.8333 202.444 45.7244L200.583 45.3338C199.536 45.116 198.762 44.7491 198.26 44.233C197.758 43.7121 197.51 43.054 197.515 42.2585C197.51 41.5862 197.692 41.0038 198.061 40.5114C198.435 40.0142 198.954 39.6307 199.617 39.3608C200.284 39.0862 201.054 38.9489 201.925 38.9489C203.203 38.9489 204.21 39.2211 204.944 39.7656C205.682 40.3101 206.139 41.0464 206.314 41.9744ZM214.116 39.0909V41.0795H207.845V39.0909H214.116ZM209.393 36.4773H211.964V46.7188C211.964 47.0644 212.016 47.3295 212.12 47.5142C212.229 47.6941 212.371 47.8172 212.547 47.8835C212.722 47.9498 212.916 47.983 213.129 47.983C213.29 47.983 213.437 47.9711 213.569 47.9474C213.707 47.9238 213.811 47.9025 213.882 47.8835L214.315 49.8935C214.178 49.9408 213.981 49.9929 213.725 50.0497C213.475 50.1065 213.167 50.1397 212.802 50.1491C212.158 50.1681 211.578 50.071 211.062 49.858C210.546 49.6402 210.136 49.304 209.833 48.8494C209.535 48.3949 209.388 47.8267 209.393 47.1449V36.4773ZM216.266 50V39.0909H218.759V40.9091H218.873C219.072 40.2794 219.413 39.794 219.896 39.4531C220.383 39.1075 220.94 38.9347 221.565 38.9347C221.707 38.9347 221.865 38.9418 222.04 38.956C222.22 38.9654 222.37 38.982 222.488 39.0057V41.3707C222.379 41.3329 222.206 41.2997 221.969 41.2713C221.737 41.2382 221.513 41.2216 221.295 41.2216C220.826 41.2216 220.405 41.3234 220.031 41.527C219.661 41.7259 219.37 42.0028 219.157 42.358C218.944 42.7131 218.837 43.1226 218.837 43.5866V50H216.266ZM226.126 54.0909C225.776 54.0909 225.451 54.0625 225.153 54.0057C224.859 53.9536 224.625 53.892 224.45 53.821L225.047 51.8182C225.421 51.9271 225.754 51.9792 226.048 51.9744C226.342 51.9697 226.6 51.8774 226.822 51.6974C227.049 51.5223 227.241 51.2287 227.397 50.8168L227.618 50.2273L223.662 39.0909H226.389L228.903 47.3295H229.017L231.538 39.0909H234.272L229.904 51.321C229.701 51.8987 229.431 52.3935 229.095 52.8054C228.759 53.2221 228.347 53.5393 227.859 53.7571C227.376 53.9796 226.798 54.0909 226.126 54.0909ZM241.126 50V35.4545H243.761V47.7912H250.167V50H241.126ZM257.17 50.2131C256.076 50.2131 255.132 49.9858 254.336 49.5312C253.546 49.072 252.937 48.4233 252.511 47.5852C252.085 46.7424 251.872 45.7505 251.872 44.6094C251.872 43.4872 252.085 42.5024 252.511 41.6548C252.942 40.8026 253.543 40.1397 254.315 39.6662C255.087 39.188 255.993 38.9489 257.035 38.9489C257.708 38.9489 258.342 39.0578 258.939 39.2756C259.54 39.4886 260.07 39.8201 260.529 40.2699C260.993 40.7197 261.358 41.2926 261.623 41.9886C261.888 42.6799 262.021 43.5038 262.021 44.4602V45.2486H253.079V43.5156H259.556C259.552 43.0232 259.445 42.5852 259.237 42.2017C259.029 41.8134 258.737 41.508 258.363 41.2855C257.994 41.063 257.563 40.9517 257.071 40.9517C256.545 40.9517 256.083 41.0795 255.686 41.3352C255.288 41.5862 254.978 41.9176 254.755 42.3295C254.538 42.7367 254.426 43.1842 254.422 43.6719V45.1847C254.422 45.8191 254.538 46.3636 254.77 46.8182C255.002 47.268 255.326 47.6136 255.743 47.8551C256.159 48.0919 256.647 48.2102 257.206 48.2102C257.58 48.2102 257.918 48.1581 258.221 48.054C258.524 47.9451 258.787 47.7865 259.01 47.5781C259.232 47.3698 259.4 47.1117 259.514 46.804L261.914 47.0739C261.763 47.7083 261.474 48.2623 261.048 48.7358C260.627 49.2045 260.087 49.5691 259.429 49.8295C258.77 50.0852 258.018 50.2131 257.17 50.2131ZM273.628 39.0909L269.743 50H266.902L263.017 39.0909H265.759L268.266 47.1946H268.379L270.893 39.0909H273.628ZM279.865 50.2131C278.772 50.2131 277.827 49.9858 277.032 49.5312C276.241 49.072 275.632 48.4233 275.206 47.5852C274.78 46.7424 274.567 45.7505 274.567 44.6094C274.567 43.4872 274.78 42.5024 275.206 41.6548C275.637 40.8026 276.239 40.1397 277.01 39.6662C277.782 39.188 278.689 38.9489 279.73 38.9489C280.403 38.9489 281.037 39.0578 281.634 39.2756C282.235 39.4886 282.766 39.8201 283.225 40.2699C283.689 40.7197 284.053 41.2926 284.319 41.9886C284.584 42.6799 284.716 43.5038 284.716 44.4602V45.2486H275.775V43.5156H282.252C282.247 43.0232 282.141 42.5852 281.932 42.2017C281.724 41.8134 281.433 41.508 281.059 41.2855C280.689 41.063 280.258 40.9517 279.766 40.9517C279.24 40.9517 278.779 41.0795 278.381 41.3352C277.983 41.5862 277.673 41.9176 277.451 42.3295C277.233 42.7367 277.122 43.1842 277.117 43.6719V45.1847C277.117 45.8191 277.233 46.3636 277.465 46.8182C277.697 47.268 278.021 47.6136 278.438 47.8551C278.855 48.0919 279.342 48.2102 279.901 48.2102C280.275 48.2102 280.614 48.1581 280.917 48.054C281.22 47.9451 281.482 47.7865 281.705 47.5781C281.927 47.3698 282.096 47.1117 282.209 46.804L284.61 47.0739C284.458 47.7083 284.169 48.2623 283.743 48.7358C283.322 49.2045 282.782 49.5691 282.124 49.8295C281.466 50.0852 280.713 50.2131 279.865 50.2131ZM289.462 35.4545V50H286.891V35.4545H289.462ZM137.435 76V61.4545H142.889C144.007 61.4545 144.944 61.6629 145.702 62.0795C146.464 62.4962 147.039 63.0691 147.428 63.7983C147.821 64.5227 148.017 65.3466 148.017 66.2699C148.017 67.2027 147.821 68.0312 147.428 68.7557C147.035 69.4801 146.455 70.0507 145.688 70.4673C144.92 70.8793 143.976 71.0852 142.854 71.0852H139.239V68.919H142.499C143.152 68.919 143.687 68.8054 144.104 68.5781C144.52 68.3509 144.828 68.0384 145.027 67.6406C145.231 67.2429 145.332 66.786 145.332 66.2699C145.332 65.7538 145.231 65.2992 145.027 64.9062C144.828 64.5133 144.518 64.2079 144.097 63.9901C143.68 63.7675 143.143 63.6562 142.484 63.6562H140.07V76H137.435ZM150.192 76V65.0909H152.685V66.9091H152.799C152.998 66.2794 153.338 65.794 153.821 65.4531C154.309 65.1075 154.865 64.9347 155.49 64.9347C155.632 64.9347 155.791 64.9418 155.966 64.956C156.146 64.9654 156.295 64.982 156.414 65.0057V67.3707C156.305 67.3329 156.132 67.2997 155.895 67.2713C155.663 67.2382 155.438 67.2216 155.221 67.2216C154.752 67.2216 154.33 67.3234 153.956 67.527C153.587 67.7259 153.296 68.0028 153.083 68.358C152.87 68.7131 152.763 69.1226 152.763 69.5866V76H150.192ZM162.431 76.2131C161.366 76.2131 160.442 75.9787 159.661 75.5099C158.88 75.0412 158.274 74.3854 157.843 73.5426C157.417 72.6998 157.204 71.715 157.204 70.5881C157.204 69.4612 157.417 68.474 157.843 67.6264C158.274 66.7789 158.88 66.1207 159.661 65.652C160.442 65.1832 161.366 64.9489 162.431 64.9489C163.496 64.9489 164.42 65.1832 165.201 65.652C165.982 66.1207 166.586 66.7789 167.012 67.6264C167.443 68.474 167.658 69.4612 167.658 70.5881C167.658 71.715 167.443 72.6998 167.012 73.5426C166.586 74.3854 165.982 75.0412 165.201 75.5099C164.42 75.9787 163.496 76.2131 162.431 76.2131ZM162.445 74.1534C163.023 74.1534 163.506 73.9948 163.894 73.6776C164.282 73.3556 164.571 72.9247 164.761 72.3849C164.955 71.8452 165.052 71.2438 165.052 70.581C165.052 69.9134 164.955 69.3097 164.761 68.7699C164.571 68.2254 164.282 67.7921 163.894 67.4702C163.506 67.1482 163.023 66.9872 162.445 66.9872C161.853 66.9872 161.361 67.1482 160.968 67.4702C160.58 67.7921 160.289 68.2254 160.094 68.7699C159.905 69.3097 159.81 69.9134 159.81 70.581C159.81 71.2438 159.905 71.8452 160.094 72.3849C160.289 72.9247 160.58 73.3556 160.968 73.6776C161.361 73.9948 161.853 74.1534 162.445 74.1534ZM169.841 65.0909H172.412V76.625C172.412 77.411 172.262 78.0597 171.964 78.571C171.666 79.0824 171.235 79.4635 170.672 79.7145C170.108 79.9654 169.424 80.0909 168.619 80.0909C168.524 80.0909 168.437 80.0885 168.356 80.0838C168.276 80.0838 168.188 80.0814 168.093 80.0767V77.9815C168.164 77.9863 168.228 77.9886 168.285 77.9886C168.342 77.9934 168.401 77.9957 168.463 77.9957C168.955 77.9957 169.308 77.875 169.521 77.6335C169.734 77.3968 169.841 77.0488 169.841 76.5895V65.0909ZM171.119 63.5426C170.707 63.5426 170.354 63.4077 170.061 63.1378C169.772 62.8632 169.627 62.5341 169.627 62.1506C169.627 61.7623 169.772 61.4332 170.061 61.1634C170.354 60.8887 170.707 60.7514 171.119 60.7514C171.526 60.7514 171.874 60.8887 172.163 61.1634C172.457 61.4332 172.603 61.7623 172.603 62.1506C172.603 62.5341 172.457 62.8632 172.163 63.1378C171.874 63.4077 171.526 63.5426 171.119 63.5426ZM179.885 76.2131C178.791 76.2131 177.847 75.9858 177.051 75.5312C176.26 75.072 175.652 74.4233 175.226 73.5852C174.8 72.7424 174.587 71.7505 174.587 70.6094C174.587 69.4872 174.8 68.5024 175.226 67.6548C175.657 66.8026 176.258 66.1397 177.03 65.6662C177.802 65.188 178.708 64.9489 179.75 64.9489C180.422 64.9489 181.057 65.0578 181.653 65.2756C182.255 65.4886 182.785 65.8201 183.244 66.2699C183.708 66.7197 184.073 67.2926 184.338 67.9886C184.603 68.6799 184.736 69.5038 184.736 70.4602V71.2486H175.794V69.5156H182.271C182.267 69.0232 182.16 68.5852 181.952 68.2017C181.743 67.8134 181.452 67.508 181.078 67.2855C180.709 67.063 180.278 66.9517 179.786 66.9517C179.26 66.9517 178.798 67.0795 178.401 67.3352C178.003 67.5862 177.693 67.9176 177.47 68.3295C177.252 68.7367 177.141 69.1842 177.136 69.6719V71.1847C177.136 71.8191 177.252 72.3636 177.484 72.8182C177.716 73.268 178.041 73.6136 178.457 73.8551C178.874 74.0919 179.362 74.2102 179.92 74.2102C180.295 74.2102 180.633 74.1581 180.936 74.054C181.239 73.9451 181.502 73.7865 181.724 73.5781C181.947 73.3698 182.115 73.1117 182.229 72.804L184.629 73.0739C184.478 73.7083 184.189 74.2623 183.763 74.7358C183.341 75.2045 182.802 75.5691 182.143 75.8295C181.485 76.0852 180.732 76.2131 179.885 76.2131ZM191.669 76.2131C190.58 76.2131 189.645 75.974 188.864 75.4957C188.087 75.0175 187.489 74.357 187.067 73.5142C186.65 72.6667 186.442 71.6913 186.442 70.5881C186.442 69.4801 186.655 68.5024 187.081 67.6548C187.507 66.8026 188.109 66.1397 188.885 65.6662C189.667 65.188 190.59 64.9489 191.655 64.9489C192.541 64.9489 193.324 65.1122 194.006 65.4389C194.693 65.7609 195.239 66.2178 195.647 66.8097C196.054 67.3968 196.286 68.0833 196.343 68.8693H193.885C193.786 68.3437 193.549 67.9058 193.175 67.5554C192.806 67.2003 192.311 67.0227 191.691 67.0227C191.165 67.0227 190.703 67.1648 190.306 67.4489C189.908 67.7282 189.598 68.1307 189.375 68.6562C189.158 69.1818 189.049 69.8116 189.049 70.5455C189.049 71.2888 189.158 71.928 189.375 72.4631C189.593 72.9934 189.899 73.4029 190.292 73.6918C190.689 73.9759 191.156 74.1179 191.691 74.1179C192.069 74.1179 192.408 74.0469 192.706 73.9048C193.009 73.758 193.263 73.5473 193.466 73.2727C193.67 72.9981 193.81 72.6643 193.885 72.2713H196.343C196.281 73.0431 196.054 73.7273 195.661 74.3239C195.268 74.9157 194.733 75.3797 194.056 75.7159C193.379 76.0473 192.583 76.2131 191.669 76.2131ZM203.901 65.0909V67.0795H197.63V65.0909H203.901ZM199.178 62.4773H201.749V72.7188C201.749 73.0644 201.801 73.3295 201.906 73.5142C202.014 73.6941 202.156 73.8172 202.332 73.8835C202.507 73.9498 202.701 73.983 202.914 73.983C203.075 73.983 203.222 73.9711 203.354 73.9474C203.492 73.9238 203.596 73.9025 203.667 73.8835L204.1 75.8935C203.963 75.9408 203.766 75.9929 203.511 76.0497C203.26 76.1065 202.952 76.1397 202.587 76.1491C201.943 76.1681 201.363 76.071 200.847 75.858C200.331 75.6402 199.922 75.304 199.619 74.8494C199.32 74.3949 199.174 73.8267 199.178 73.1449V62.4773ZM214.517 67.9744L212.174 68.2301C212.107 67.9934 211.991 67.7708 211.826 67.5625C211.665 67.3542 211.447 67.1861 211.172 67.0582C210.898 66.9304 210.561 66.8665 210.164 66.8665C209.629 66.8665 209.179 66.9825 208.814 67.2145C208.454 67.4465 208.277 67.7472 208.282 68.1165C208.277 68.4337 208.393 68.6918 208.63 68.8906C208.871 69.0895 209.269 69.2528 209.823 69.3807L211.684 69.7784C212.716 70.0009 213.483 70.3537 213.985 70.8366C214.491 71.3196 214.747 71.9517 214.752 72.733C214.747 73.4195 214.546 74.0256 214.148 74.5511C213.755 75.072 213.208 75.4792 212.507 75.7727C211.807 76.0663 211.002 76.2131 210.093 76.2131C208.757 76.2131 207.683 75.9337 206.868 75.375C206.054 74.8116 205.569 74.0279 205.412 73.0241L207.919 72.7827C208.033 73.2751 208.275 73.6468 208.644 73.8977C209.013 74.1487 209.494 74.2741 210.086 74.2741C210.696 74.2741 211.186 74.1487 211.556 73.8977C211.93 73.6468 212.117 73.3366 212.117 72.9673C212.117 72.6548 211.996 72.3968 211.755 72.1932C211.518 71.9896 211.149 71.8333 210.647 71.7244L208.786 71.3338C207.739 71.116 206.965 70.7491 206.463 70.233C205.962 69.7121 205.713 69.054 205.718 68.2585C205.713 67.5862 205.895 67.0038 206.265 66.5114C206.639 66.0142 207.157 65.6307 207.82 65.3608C208.488 65.0862 209.257 64.9489 210.128 64.9489C211.407 64.9489 212.413 65.2211 213.147 65.7656C213.885 66.3101 214.342 67.0464 214.517 67.9744Z" fill="#0A2134"/>
<path d="M144.778 98.5C144.661 98.1413 144.507 97.82 144.315 97.5359C144.127 97.2482 143.901 97.0032 143.638 96.8008C143.379 96.5984 143.085 96.4439 142.754 96.3374C142.424 96.2308 142.062 96.1776 141.668 96.1776C141.021 96.1776 140.434 96.3445 139.904 96.6783C139.375 97.0121 138.955 97.5039 138.642 98.1538C138.33 98.8036 138.173 99.6009 138.173 100.545C138.173 101.49 138.331 102.287 138.647 102.937C138.963 103.587 139.391 104.079 139.931 104.413C140.471 104.746 141.078 104.913 141.753 104.913C142.378 104.913 142.928 104.78 143.404 104.514C143.884 104.244 144.256 103.864 144.523 103.374C144.793 102.88 144.928 102.3 144.928 101.632L145.332 101.717H142.051V100.545H146.206V101.717C146.206 102.616 146.014 103.397 145.631 104.061C145.251 104.725 144.725 105.24 144.054 105.606C143.386 105.968 142.619 106.149 141.753 106.149C140.787 106.149 139.938 105.922 139.207 105.467C138.479 105.013 137.911 104.366 137.502 103.528C137.097 102.69 136.895 101.696 136.895 100.545C136.895 99.6825 137.01 98.9066 137.241 98.2177C137.475 97.5252 137.806 96.9357 138.232 96.4492C138.658 95.9627 139.162 95.5898 139.745 95.3306C140.327 95.0714 140.968 94.9418 141.668 94.9418C142.243 94.9418 142.779 95.0288 143.276 95.2028C143.777 95.3732 144.223 95.6165 144.613 95.9325C145.007 96.245 145.336 96.6197 145.599 97.0565C145.862 97.4897 146.043 97.9709 146.142 98.5H144.778ZM151.728 106.17C150.94 106.17 150.26 105.996 149.688 105.648C149.12 105.297 148.682 104.807 148.373 104.178C148.067 103.546 147.915 102.811 147.915 101.973C147.915 101.135 148.067 100.396 148.373 99.7571C148.682 99.1143 149.111 98.6136 149.662 98.255C150.216 97.8928 150.862 97.7116 151.601 97.7116C152.027 97.7116 152.448 97.7827 152.863 97.9247C153.278 98.0668 153.657 98.2976 153.998 98.6172C154.339 98.9332 154.61 99.3523 154.813 99.8743C155.015 100.396 155.116 101.039 155.116 101.803V102.335H148.809V101.249H153.838C153.838 100.787 153.745 100.375 153.561 100.013C153.38 99.6506 153.12 99.3647 152.783 99.1552C152.449 98.9457 152.055 98.8409 151.601 98.8409C151.1 98.8409 150.667 98.9652 150.301 99.2138C149.939 99.4588 149.66 99.7784 149.465 100.173C149.269 100.567 149.172 100.989 149.172 101.44V102.165C149.172 102.783 149.278 103.306 149.491 103.736C149.708 104.162 150.008 104.487 150.391 104.711C150.775 104.931 151.221 105.041 151.728 105.041C152.059 105.041 152.357 104.995 152.623 104.903C152.893 104.807 153.126 104.665 153.321 104.477C153.516 104.285 153.667 104.047 153.774 103.763L154.988 104.104C154.861 104.516 154.646 104.878 154.344 105.19C154.042 105.499 153.669 105.741 153.225 105.915C152.781 106.085 152.282 106.17 151.728 106.17ZM160.587 97.8182V98.8835H156.347V97.8182H160.587ZM157.582 95.858H158.84V103.656C158.84 104.011 158.891 104.278 158.994 104.455C159.101 104.629 159.236 104.746 159.399 104.807C159.566 104.864 159.742 104.892 159.926 104.892C160.065 104.892 160.178 104.885 160.267 104.871C160.356 104.853 160.427 104.839 160.48 104.828L160.736 105.957C160.651 105.989 160.532 106.021 160.379 106.053C160.226 106.089 160.033 106.107 159.798 106.107C159.443 106.107 159.095 106.03 158.754 105.877C158.417 105.725 158.136 105.492 157.913 105.18C157.693 104.867 157.582 104.473 157.582 103.997V95.858ZM166.696 109.068V97.8182H167.911V99.1179H168.06C168.152 98.9759 168.28 98.7947 168.444 98.5746C168.611 98.3509 168.848 98.152 169.157 97.978C169.47 97.8004 169.892 97.7116 170.425 97.7116C171.114 97.7116 171.721 97.8839 172.247 98.2283C172.772 98.5728 173.183 99.0611 173.477 99.6932C173.772 100.325 173.919 101.071 173.919 101.93C173.919 102.797 173.772 103.548 173.477 104.184C173.183 104.816 172.774 105.306 172.252 105.654C171.73 105.998 171.128 106.17 170.446 106.17C169.921 106.17 169.5 106.083 169.184 105.909C168.868 105.732 168.625 105.531 168.454 105.308C168.284 105.08 168.152 104.892 168.06 104.743H167.954V109.068H166.696ZM167.932 101.909C167.932 102.527 168.023 103.072 168.204 103.544C168.385 104.013 168.65 104.381 168.998 104.647C169.346 104.91 169.772 105.041 170.276 105.041C170.802 105.041 171.24 104.903 171.592 104.626C171.947 104.345 172.213 103.969 172.391 103.496C172.572 103.021 172.662 102.491 172.662 101.909C172.662 101.334 172.574 100.815 172.396 100.354C172.222 99.8885 171.957 99.521 171.602 99.2511C171.251 98.9776 170.809 98.8409 170.276 98.8409C169.765 98.8409 169.335 98.9705 168.987 99.2298C168.639 99.4854 168.376 99.8441 168.199 100.306C168.021 100.764 167.932 101.298 167.932 101.909ZM175.837 106V97.8182H177.052V99.054H177.137C177.286 98.6491 177.556 98.3207 177.946 98.0685C178.337 97.8164 178.777 97.6903 179.267 97.6903C179.36 97.6903 179.475 97.6921 179.614 97.6957C179.752 97.6992 179.857 97.7045 179.928 97.7116V98.9901C179.885 98.9794 179.788 98.9634 179.635 98.9421C179.486 98.9173 179.328 98.9048 179.161 98.9048C178.763 98.9048 178.408 98.9883 178.096 99.1552C177.787 99.3185 177.542 99.5458 177.361 99.837C177.183 100.125 177.094 100.453 177.094 100.822V106H175.837ZM183.826 106.192C183.307 106.192 182.837 106.094 182.414 105.899C181.992 105.7 181.656 105.414 181.407 105.041C181.159 104.665 181.035 104.21 181.035 103.678C181.035 103.209 181.127 102.829 181.312 102.538C181.496 102.243 181.743 102.012 182.052 101.845C182.361 101.678 182.702 101.554 183.075 101.472C183.451 101.387 183.829 101.32 184.209 101.27C184.706 101.206 185.11 101.158 185.419 101.126C185.731 101.091 185.958 101.032 186.1 100.95C186.246 100.869 186.319 100.727 186.319 100.524V100.482C186.319 99.956 186.175 99.5476 185.887 99.2564C185.603 98.9652 185.172 98.8196 184.593 98.8196C183.993 98.8196 183.522 98.951 183.181 99.2138C182.84 99.4766 182.601 99.7571 182.462 100.055L181.269 99.6293C181.482 99.1321 181.766 98.745 182.121 98.468C182.48 98.1875 182.871 97.9922 183.293 97.8821C183.719 97.7685 184.138 97.7116 184.55 97.7116C184.813 97.7116 185.115 97.7436 185.456 97.8075C185.8 97.8679 186.132 97.994 186.452 98.1857C186.775 98.3775 187.043 98.6669 187.256 99.054C187.469 99.4411 187.576 99.9595 187.576 100.609V106H186.319V104.892H186.255C186.17 105.07 186.028 105.26 185.829 105.462C185.63 105.664 185.365 105.837 185.035 105.979C184.705 106.121 184.302 106.192 183.826 106.192ZM184.018 105.062C184.515 105.062 184.934 104.965 185.275 104.77C185.619 104.574 185.878 104.322 186.052 104.013C186.23 103.704 186.319 103.379 186.319 103.038V101.888C186.265 101.952 186.148 102.01 185.967 102.064C185.79 102.113 185.584 102.158 185.349 102.197C185.118 102.232 184.893 102.264 184.673 102.293C184.456 102.317 184.28 102.339 184.145 102.357C183.819 102.399 183.513 102.468 183.229 102.564C182.949 102.657 182.721 102.797 182.547 102.985C182.377 103.17 182.292 103.422 182.292 103.741C182.292 104.178 182.453 104.509 182.776 104.732C183.103 104.952 183.517 105.062 184.018 105.062ZM193.194 106.17C192.427 106.17 191.767 105.989 191.213 105.627C190.659 105.265 190.233 104.766 189.934 104.13C189.636 103.495 189.487 102.768 189.487 101.952C189.487 101.121 189.639 100.387 189.945 99.7518C190.254 99.1126 190.684 98.6136 191.234 98.255C191.788 97.8928 192.434 97.7116 193.173 97.7116C193.748 97.7116 194.267 97.8182 194.728 98.0312C195.19 98.2443 195.568 98.5426 195.863 98.9261C196.158 99.3097 196.34 99.7571 196.411 100.268H195.154C195.059 99.8956 194.845 99.5653 194.515 99.2777C194.188 98.9865 193.748 98.8409 193.194 98.8409C192.704 98.8409 192.274 98.9687 191.905 99.2244C191.539 99.4766 191.253 99.8335 191.047 100.295C190.845 100.753 190.744 101.291 190.744 101.909C190.744 102.541 190.843 103.092 191.042 103.56C191.245 104.029 191.529 104.393 191.894 104.652C192.264 104.912 192.697 105.041 193.194 105.041C193.521 105.041 193.817 104.984 194.084 104.871C194.35 104.757 194.576 104.594 194.76 104.381C194.945 104.168 195.076 103.912 195.154 103.614H196.411C196.34 104.097 196.165 104.532 195.884 104.919C195.607 105.302 195.24 105.608 194.782 105.835C194.327 106.059 193.798 106.17 193.194 106.17ZM201.807 97.8182V98.8835H197.567V97.8182H201.807ZM198.803 95.858H200.06V103.656C200.06 104.011 200.112 104.278 200.215 104.455C200.321 104.629 200.456 104.746 200.62 104.807C200.786 104.864 200.962 104.892 201.147 104.892C201.285 104.892 201.399 104.885 201.488 104.871C201.577 104.853 201.648 104.839 201.701 104.828L201.957 105.957C201.871 105.989 201.752 106.021 201.6 106.053C201.447 106.089 201.253 106.107 201.019 106.107C200.664 106.107 200.316 106.03 199.975 105.877C199.638 105.725 199.357 105.492 199.133 105.18C198.913 104.867 198.803 104.473 198.803 103.997V95.858ZM203.698 106V97.8182H204.956V106H203.698ZM204.338 96.4545C204.093 96.4545 203.881 96.3711 203.704 96.2042C203.53 96.0373 203.443 95.8366 203.443 95.6023C203.443 95.3679 203.53 95.1673 203.704 95.0004C203.881 94.8335 204.093 94.75 204.338 94.75C204.583 94.75 204.792 94.8335 204.966 95.0004C205.144 95.1673 205.233 95.3679 205.233 95.6023C205.233 95.8366 205.144 96.0373 204.966 96.2042C204.792 96.3711 204.583 96.4545 204.338 96.4545ZM210.582 106.17C209.815 106.17 209.154 105.989 208.6 105.627C208.046 105.265 207.62 104.766 207.322 104.13C207.024 103.495 206.874 102.768 206.874 101.952C206.874 101.121 207.027 100.387 207.333 99.7518C207.642 99.1126 208.071 98.6136 208.622 98.255C209.176 97.8928 209.822 97.7116 210.561 97.7116C211.136 97.7116 211.654 97.8182 212.116 98.0312C212.578 98.2443 212.956 98.5426 213.251 98.9261C213.545 99.3097 213.728 99.7571 213.799 100.268H212.542C212.446 99.8956 212.233 99.5653 211.903 99.2777C211.576 98.9865 211.136 98.8409 210.582 98.8409C210.092 98.8409 209.662 98.9687 209.293 99.2244C208.927 99.4766 208.641 99.8335 208.435 100.295C208.233 100.753 208.132 101.291 208.132 101.909C208.132 102.541 208.231 103.092 208.43 103.56C208.632 104.029 208.916 104.393 209.282 104.652C209.651 104.912 210.085 105.041 210.582 105.041C210.909 105.041 211.205 104.984 211.471 104.871C211.738 104.757 211.963 104.594 212.148 104.381C212.333 104.168 212.464 103.912 212.542 103.614H213.799C213.728 104.097 213.552 104.532 213.272 104.919C212.995 105.302 212.627 105.608 212.169 105.835C211.715 106.059 211.186 106.17 210.582 106.17ZM218.045 106.192C217.526 106.192 217.056 106.094 216.633 105.899C216.21 105.7 215.875 105.414 215.626 105.041C215.378 104.665 215.253 104.21 215.253 103.678C215.253 103.209 215.346 102.829 215.53 102.538C215.715 102.243 215.962 102.012 216.271 101.845C216.58 101.678 216.921 101.554 217.294 101.472C217.67 101.387 218.048 101.32 218.428 101.27C218.925 101.206 219.328 101.158 219.637 101.126C219.95 101.091 220.177 101.032 220.319 100.95C220.465 100.869 220.537 100.727 220.537 100.524V100.482C220.537 99.956 220.394 99.5476 220.106 99.2564C219.822 98.9652 219.39 98.8196 218.812 98.8196C218.211 98.8196 217.741 98.951 217.4 99.2138C217.059 99.4766 216.819 99.7571 216.681 100.055L215.488 99.6293C215.701 99.1321 215.985 98.745 216.34 98.468C216.699 98.1875 217.089 97.9922 217.512 97.8821C217.938 97.7685 218.357 97.7116 218.769 97.7116C219.032 97.7116 219.334 97.7436 219.675 97.8075C220.019 97.8679 220.351 97.994 220.671 98.1857C220.994 98.3775 221.262 98.6669 221.475 99.054C221.688 99.4411 221.795 99.9595 221.795 100.609V106H220.537V104.892H220.474C220.388 105.07 220.246 105.26 220.047 105.462C219.849 105.664 219.584 105.837 219.254 105.979C218.923 106.121 218.52 106.192 218.045 106.192ZM218.236 105.062C218.733 105.062 219.153 104.965 219.493 104.77C219.838 104.574 220.097 104.322 220.271 104.013C220.449 103.704 220.537 103.379 220.537 103.038V101.888C220.484 101.952 220.367 102.01 220.186 102.064C220.008 102.113 219.802 102.158 219.568 102.197C219.337 102.232 219.112 102.264 218.892 102.293C218.675 102.317 218.499 102.339 218.364 102.357C218.037 102.399 217.732 102.468 217.448 102.564C217.167 102.657 216.94 102.797 216.766 102.985C216.596 103.17 216.51 103.422 216.51 103.741C216.51 104.178 216.672 104.509 216.995 104.732C217.322 104.952 217.736 105.062 218.236 105.062ZM225.346 95.0909V106H224.089V95.0909H225.346ZM237.663 99.6506L236.534 99.9702C236.463 99.782 236.358 99.5991 236.219 99.4215C236.084 99.2404 235.9 99.0913 235.665 98.9741C235.431 98.8569 235.131 98.7983 234.765 98.7983C234.264 98.7983 233.847 98.9137 233.513 99.1445C233.183 99.3718 233.018 99.6612 233.018 100.013C233.018 100.325 233.132 100.572 233.359 100.753C233.586 100.934 233.941 101.085 234.424 101.206L235.639 101.504C236.37 101.682 236.915 101.953 237.274 102.319C237.633 102.681 237.812 103.148 237.812 103.72C237.812 104.189 237.677 104.608 237.407 104.977C237.141 105.347 236.768 105.638 236.289 105.851C235.809 106.064 235.252 106.17 234.616 106.17C233.781 106.17 233.091 105.989 232.544 105.627C231.997 105.265 231.651 104.736 231.505 104.04L232.698 103.741C232.812 104.182 233.027 104.512 233.343 104.732C233.662 104.952 234.08 105.062 234.595 105.062C235.181 105.062 235.646 104.938 235.99 104.69C236.338 104.437 236.512 104.136 236.512 103.784C236.512 103.5 236.413 103.262 236.214 103.07C236.015 102.875 235.71 102.729 235.298 102.634L233.934 102.314C233.185 102.136 232.634 101.861 232.283 101.488C231.935 101.112 231.761 100.641 231.761 100.077C231.761 99.6151 231.89 99.2067 232.15 98.8516C232.412 98.4964 232.769 98.2177 233.22 98.0153C233.675 97.8129 234.19 97.7116 234.765 97.7116C235.575 97.7116 236.21 97.8892 236.672 98.2443C237.137 98.5994 237.468 99.0682 237.663 99.6506ZM240.876 103.017L240.855 101.462H241.111L244.69 97.8182H246.245L242.432 101.675H242.325L240.876 103.017ZM239.704 106V95.0909H240.961V106H239.704ZM244.903 106L241.707 101.952L242.602 101.078L246.501 106H244.903ZM247.863 106V97.8182H249.121V106H247.863ZM248.503 96.4545C248.258 96.4545 248.046 96.3711 247.869 96.2042C247.695 96.0373 247.608 95.8366 247.608 95.6023C247.608 95.3679 247.695 95.1673 247.869 95.0004C248.046 94.8335 248.258 94.75 248.503 94.75C248.748 94.75 248.957 94.8335 249.131 95.0004C249.309 95.1673 249.398 95.3679 249.398 95.6023C249.398 95.8366 249.309 96.0373 249.131 96.2042C248.957 96.3711 248.748 96.4545 248.503 96.4545ZM252.68 95.0909V106H251.423V95.0909H252.68ZM256.24 95.0909V106H254.983V95.0909H256.24ZM264.338 99.6506L263.208 99.9702C263.137 99.782 263.033 99.5991 262.894 99.4215C262.759 99.2404 262.574 99.0913 262.34 98.9741C262.106 98.8569 261.806 98.7983 261.44 98.7983C260.939 98.7983 260.522 98.9137 260.188 99.1445C259.858 99.3718 259.693 99.6612 259.693 100.013C259.693 100.325 259.806 100.572 260.034 100.753C260.261 100.934 260.616 101.085 261.099 101.206L262.313 101.504C263.045 101.682 263.59 101.953 263.949 102.319C264.307 102.681 264.487 103.148 264.487 103.72C264.487 104.189 264.352 104.608 264.082 104.977C263.816 105.347 263.443 105.638 262.963 105.851C262.484 106.064 261.926 106.17 261.291 106.17C260.456 106.17 259.766 105.989 259.219 105.627C258.672 105.265 258.326 104.736 258.18 104.04L259.373 103.741C259.487 104.182 259.702 104.512 260.018 104.732C260.337 104.952 260.755 105.062 261.269 105.062C261.855 105.062 262.321 104.938 262.665 104.69C263.013 104.437 263.187 104.136 263.187 103.784C263.187 103.5 263.088 103.262 262.889 103.07C262.69 102.875 262.384 102.729 261.973 102.634L260.609 102.314C259.86 102.136 259.309 101.861 258.958 101.488C258.61 101.112 258.436 100.641 258.436 100.077C258.436 99.6151 258.565 99.2067 258.824 98.8516C259.087 98.4964 259.444 98.2177 259.895 98.0153C260.35 97.8129 260.865 97.7116 261.44 97.7116C262.25 97.7116 262.885 97.8892 263.347 98.2443C263.812 98.5994 264.142 99.0682 264.338 99.6506Z" fill="#43505B"/>
<defs>
<filter id="filter0_d_4411_1650" x="0" y="0" width="406" height="154" filterUnits="userSpaceOnUse" color-interpolation-filters="sRGB">
<feFlood flood-opacity="0" result="BackgroundImageFix"/>
<feColorMatrix in="SourceAlpha" type="matrix" values="0 0 0 0 0 0 0 0 0 0 0 0 0 0 0 0 0 0 127 0" result="hardAlpha"/>
<feMorphology radius="2" operator="erode" in="SourceAlpha" result="effect1_dropShadow_4411_1650"/>
<feOffset dy="4"/>
<feGaussianBlur stdDeviation="10"/>
<feColorMatrix type="matrix" values="0 0 0 0 0 0 0 0 0 0.184314 0 0 0 0 0.345098 0 0 0 0.08 0"/>
<feBlend mode="normal" in2="BackgroundImageFix" result="effect1_dropShadow_4411_1650"/>
<feBlend mode="normal" in="SourceGraphic" in2="effect1_dropShadow_4411_1650" result="shape"/>
</filter>
</defs>
</svg>
