<svg width="166" height="60" viewBox="0 0 166 60" fill="none" xmlns="http://www.w3.org/2000/svg">
<path d="M6.6332 49.9311V49.5978C6.86654 49.5311 6.99987 49.4311 7.09987 49.3645C7.16654 49.2978 7.2332 49.1645 7.2332 48.9645C7.2332 48.8978 7.2332 48.8311 7.2332 48.7645C7.2332 48.6978 7.19987 48.6311 7.19987 48.5978L3.59987 38.5645C3.46654 38.1311 3.29987 37.8645 3.16654 37.6978C3.0332 37.5311 2.79987 37.4311 2.5332 37.3311V36.9978H6.66654V37.2978C6.4332 37.3645 6.29987 37.4645 6.19987 37.5311C6.1332 37.5978 6.06654 37.6978 6.06654 37.8311C6.06654 37.8645 6.06654 37.9311 6.09987 37.9978C6.1332 38.0645 6.16654 38.1645 6.19987 38.2645L8.7332 45.9978L11.2332 38.2645C11.2332 38.2311 11.2665 38.1645 11.2665 38.0978C11.2665 38.0311 11.2665 37.9645 11.2665 37.8978C11.2665 37.7311 11.2332 37.5978 11.1665 37.5311C11.0999 37.4645 10.9332 37.3645 10.6999 37.2978V36.9978H15.1665V37.2978C14.9332 37.3645 14.7999 37.4645 14.6999 37.5311C14.6332 37.5978 14.5665 37.6978 14.5665 37.8311C14.5665 37.8645 14.5665 37.9311 14.5999 37.9978C14.6332 38.0645 14.6665 38.1645 14.6999 38.2645L17.1999 45.7978L19.6665 38.2645C19.6665 38.2311 19.6999 38.1645 19.6999 38.0978C19.6999 38.0311 19.6999 37.9645 19.6999 37.8978C19.6999 37.7311 19.6665 37.5978 19.5999 37.5311C19.5332 37.4645 19.3665 37.3645 19.1332 37.2978V36.9978H23.1332V37.2978C22.8332 37.3978 22.6332 37.5311 22.4999 37.6645C22.3665 37.8311 22.2332 38.0978 22.0665 38.5311L18.5665 48.5645C18.5665 48.5978 18.5332 48.6645 18.5332 48.7311C18.5332 48.7978 18.5332 48.8645 18.5332 48.9311C18.5332 49.1311 18.5665 49.2311 18.6332 49.3311C18.6999 49.3978 18.8665 49.4978 19.0999 49.5645V49.8978H15.1332V49.5645C15.3665 49.4978 15.5332 49.3978 15.5999 49.3311C15.6665 49.2311 15.7332 49.1311 15.7332 48.9311C15.7332 48.8978 15.7332 48.8311 15.6999 48.7645C15.6999 48.6978 15.6665 48.6311 15.6332 48.5645L12.8665 40.0311L10.0665 48.5311C10.0665 48.5645 10.0332 48.6311 10.0332 48.6978C10.0332 48.7645 10.0332 48.8311 10.0332 48.8978C10.0332 49.0645 10.0665 49.1978 10.1332 49.2978C10.1999 49.3645 10.3665 49.4645 10.5999 49.5645V49.8978L6.6332 49.9311Z" fill="white"/>
<path d="M24.9316 49.1307L25.9983 46.4974L26.3316 46.6641C26.3316 46.6641 26.3316 46.6974 26.2983 46.7307C26.2983 46.7974 26.265 46.8641 26.265 46.8641C26.265 47.1307 26.665 47.4307 27.465 47.7307C28.265 48.0307 29.065 48.1974 29.8983 48.1974C30.7316 48.1974 31.4316 48.0641 31.9316 47.8307C32.4316 47.5974 32.665 47.2641 32.665 46.8307C32.665 46.2307 31.8316 45.8974 30.1316 45.7974C29.465 45.7641 28.9316 45.7307 28.5316 45.6974C27.365 45.5974 26.4983 45.2974 25.9316 44.7974C25.365 44.2974 25.065 43.5974 25.065 42.6974C25.065 41.6307 25.4983 40.7307 26.3316 40.0974C27.165 39.4641 28.3316 39.0974 29.7316 39.0974C30.6983 39.0974 31.665 39.2974 32.6316 39.6974C32.7983 39.7641 32.8983 39.7974 32.9316 39.7974C33.0316 39.7974 33.2316 39.8641 33.4983 40.0307C33.7983 40.1974 33.9983 40.2641 34.165 40.2641C34.1983 40.2641 34.2316 40.2307 34.2983 40.1974C34.365 40.1641 34.4316 40.1307 34.4983 40.0641L34.765 40.1974L33.565 42.8641L33.2316 42.6641C33.2316 42.6641 33.2316 42.6307 33.265 42.6307C33.265 42.6307 33.265 42.5974 33.265 42.5307C33.265 42.2307 32.8983 41.8974 32.1316 41.5307C31.365 41.1641 30.5983 40.9974 29.7983 40.9974C29.065 40.9974 28.465 41.0974 27.9983 41.3307C27.5316 41.5641 27.2983 41.8307 27.2983 42.1641C27.2983 42.6974 27.965 42.9974 29.265 43.0641C30.265 43.1307 31.065 43.1974 31.6983 43.3307C32.765 43.5307 33.5983 43.8974 34.1316 44.4307C34.665 44.9641 34.9316 45.6307 34.9316 46.4641C34.9316 47.5307 34.465 48.3974 33.5316 49.0641C32.5983 49.7307 31.3983 50.0641 29.8983 50.0641C28.4983 50.0641 27.1316 49.7641 25.865 49.1307C25.6316 48.9974 25.465 48.9641 25.4316 48.9641C25.365 48.9641 25.2983 48.9974 25.265 48.9974C25.2316 49.0307 25.1983 49.0641 25.165 49.1307H24.9316Z" fill="white"/>
<path d="M49.3669 45.4636L49.6002 45.2969L51.2669 48.0636L51.0002 48.2302C50.9002 48.1636 50.8335 48.0969 50.8002 48.0636C50.7669 48.0302 50.7002 48.0302 50.6669 48.0302C50.5669 48.0302 50.3335 48.1636 49.9335 48.4302C48.1002 49.5969 46.3335 50.1636 44.6335 50.1636C42.6335 50.1636 40.9669 49.5302 39.6669 48.2636C38.3335 46.9969 37.7002 45.3969 37.7002 43.4636C37.7002 41.4969 38.3669 39.8969 39.7002 38.6302C41.0335 37.3636 42.8002 36.7302 44.9335 36.7302C46.0335 36.7302 47.1335 36.9302 48.2669 37.2969C49.4002 37.6969 49.9669 37.8636 50.0335 37.8636C50.1335 37.8636 50.2335 37.8302 50.3335 37.8302C50.4335 37.8302 50.5335 37.7969 50.6669 37.7969L50.9002 37.9636L49.2002 40.8969L48.9335 40.7302C48.9335 40.7302 48.9335 40.6969 48.9669 40.6969C48.9669 40.6969 48.9669 40.6636 48.9669 40.6302C48.9669 40.2636 48.5335 39.8969 47.6335 39.4969C46.7669 39.0969 45.8335 38.9302 44.8335 38.9302C43.5002 38.9302 42.4002 39.3302 41.5335 40.1636C40.6669 40.9969 40.2335 42.0302 40.2335 43.2969C40.2335 44.6302 40.6669 45.7302 41.5335 46.5302C42.4002 47.3636 43.5335 47.7636 44.9002 47.7636C45.9335 47.7636 46.9335 47.5302 47.9002 47.0636C48.9002 46.5969 49.4002 46.1969 49.4002 45.8969C49.4002 45.8302 49.4002 45.7636 49.3669 45.6969C49.4002 45.6302 49.4002 45.5302 49.3669 45.4636Z" fill="white"/>
<path d="M62.2652 40.3339C62.2652 40.1005 62.2319 39.9339 62.1652 39.8339C62.0986 39.7339 61.9319 39.6672 61.7319 39.6339V39.3005H65.2319V39.6339C65.0319 39.6672 64.8652 39.7339 64.7986 39.8339C64.7319 39.9339 64.6986 40.1005 64.6652 40.3339L64.6319 45.9339C64.6319 47.4672 64.2319 48.5339 63.4652 49.1672C62.6986 49.8005 61.3652 50.1005 59.5319 50.1005C57.7319 50.1005 56.4319 49.7672 55.6319 49.1339C54.8652 48.5005 54.4652 47.4339 54.4652 45.9005V40.3339C54.4652 40.1005 54.4319 39.9339 54.3319 39.8339C54.2652 39.7339 54.0986 39.6672 53.8652 39.6339V39.3005H57.3652V39.6339C57.1652 39.6672 56.9986 39.7672 56.9319 39.8339C56.8652 39.9339 56.8319 40.1005 56.8319 40.3339V45.4672C56.8319 46.4005 57.0319 47.0672 57.4652 47.4672C57.8986 47.8672 58.5652 48.0672 59.5319 48.0672C60.4986 48.0672 61.1986 47.8672 61.5986 47.4339C61.9986 47.0005 62.2319 46.3005 62.2319 45.3339V40.3339H62.2652Z" fill="white"/>
<path d="M75.734 39.3005C76.8673 39.3005 77.7673 39.5339 78.4007 40.0339C79.034 40.5339 79.334 41.2005 79.334 42.0339C79.334 42.5005 79.234 42.9339 79.0007 43.2672C78.7673 43.6005 78.434 43.9339 77.9673 44.2005C78.534 44.5005 78.9673 44.8672 79.234 45.3005C79.5007 45.7339 79.634 46.2339 79.634 46.8005C79.634 47.7672 79.2673 48.5339 78.5673 49.0672C77.834 49.6005 76.834 49.8672 75.5007 49.8672H68.834V49.5339C69.034 49.5005 69.2007 49.4005 69.2673 49.3339C69.334 49.2339 69.3673 49.0672 69.3673 48.8339V40.3339C69.3673 40.1005 69.334 39.9339 69.2673 39.8339C69.2007 39.7339 69.034 39.6672 68.834 39.6339V39.3005H75.734ZM75.034 41.1672H71.8006V43.3672H75.3006C75.9007 43.3672 76.3673 43.2672 76.634 43.1005C76.934 42.9339 77.0673 42.6339 77.0673 42.2672C77.0673 41.8672 76.9007 41.6005 76.6007 41.4339C76.3007 41.2339 75.7673 41.1672 75.034 41.1672ZM74.834 45.2005H71.7673V48.0672H74.7673C75.7673 48.0672 76.434 47.9672 76.834 47.7339C77.234 47.5005 77.4007 47.1339 77.4007 46.6005C77.4007 46.1005 77.2007 45.7339 76.8007 45.5005C76.4007 45.3005 75.734 45.2005 74.834 45.2005Z" fill="white"/>
<path d="M92.167 39.2988C92.4004 39.2988 92.567 39.2655 92.6337 39.1988C92.7004 39.1322 92.767 38.9655 92.8337 38.7322H93.1337V42.0322H92.8337C92.8004 41.7988 92.7337 41.6322 92.6337 41.5655C92.5337 41.4988 92.4004 41.4322 92.167 41.4322H86.1337V43.5655H89.8337C90.067 43.5655 90.2337 43.5322 90.3003 43.4655C90.367 43.3988 90.4337 43.2322 90.5003 42.9988H90.8003V46.0322H90.5003C90.467 45.7989 90.4003 45.6322 90.3003 45.5655C90.2003 45.4988 90.067 45.4322 89.8337 45.4322H86.1337V47.8322H92.4004C92.6337 47.8322 92.8004 47.7988 92.867 47.7322C92.9337 47.6655 93.0004 47.4988 93.067 47.2655H93.367V50.5655H93.067C93.0337 50.3322 92.967 50.1655 92.867 50.0655C92.767 49.9655 92.6337 49.9322 92.4004 49.9322H83.167V49.5989C83.4003 49.5655 83.5337 49.4655 83.6337 49.3655C83.7003 49.2655 83.767 49.0989 83.767 48.8655V40.3322C83.767 40.0988 83.7337 39.9322 83.6337 39.8322C83.567 39.7322 83.4003 39.6655 83.167 39.6322V39.2988H92.167Z" fill="white"/>
<path d="M104.301 39.2983C104.067 39.2983 103.901 39.3317 103.834 39.3983C103.767 39.465 103.701 39.6317 103.634 39.865H103.334V36.365H103.634C103.701 36.5983 103.767 36.765 103.834 36.865C103.934 36.965 104.067 36.9983 104.301 36.9983H114.334C114.567 36.9983 114.734 36.965 114.801 36.865C114.867 36.7983 114.934 36.6317 115.001 36.365H115.301V39.865H115.001C114.967 39.6317 114.901 39.465 114.801 39.365C114.701 39.265 114.567 39.2317 114.334 39.2317H110.601V48.8317C110.601 49.065 110.634 49.2317 110.701 49.3317C110.767 49.4317 110.934 49.4983 111.134 49.5317V49.865H107.434V49.5317C107.667 49.465 107.801 49.3983 107.867 49.2983C107.934 49.1983 107.967 49.0317 108.001 48.7983V39.1983H104.301V39.2983Z" fill="white"/>
<path d="M126.732 39.2988C126.966 39.2988 127.132 39.2655 127.199 39.1988C127.266 39.1322 127.332 38.9655 127.399 38.7322H127.699V42.0322H127.399C127.366 41.7988 127.299 41.6322 127.199 41.5655C127.099 41.4988 126.966 41.4322 126.732 41.4322H120.699V43.5655H124.399C124.632 43.5655 124.799 43.5322 124.866 43.4655C124.932 43.3988 124.999 43.2322 125.066 42.9988H125.366V46.0322H125.066C125.032 45.7989 124.966 45.6322 124.866 45.5655C124.766 45.4988 124.632 45.4322 124.399 45.4322H120.699V47.8322H126.966C127.199 47.8322 127.366 47.7988 127.432 47.7322C127.499 47.6655 127.566 47.4988 127.632 47.2655H127.932V50.5655H127.632C127.599 50.3322 127.532 50.1655 127.432 50.0655C127.332 49.9655 127.199 49.9322 126.966 49.9322H117.732V49.5989C117.966 49.5655 118.099 49.4655 118.199 49.3655C118.266 49.2655 118.332 49.0989 118.332 48.8655V40.3322C118.332 40.0988 118.299 39.9322 118.199 39.8322C118.132 39.7322 117.966 39.6655 117.732 39.6322V39.2988H126.732Z" fill="white"/>
<path d="M140.432 42.631L140.199 42.4977V42.4643C140.199 42.4643 140.199 42.431 140.199 42.3977C140.199 42.131 139.832 41.831 139.132 41.531C138.432 41.231 137.699 41.0643 136.932 41.0643C135.832 41.0643 134.965 41.3977 134.299 42.031C133.632 42.6977 133.299 43.531 133.299 44.5977C133.299 45.631 133.632 46.4977 134.299 47.131C134.965 47.7643 135.865 48.0643 136.965 48.0643C137.799 48.0643 138.632 47.8643 139.399 47.4977C140.165 47.131 140.565 46.7977 140.565 46.5643C140.565 46.5643 140.565 46.4977 140.532 46.431C140.532 46.3643 140.499 46.2977 140.499 46.231L140.765 46.0977L142.265 48.431L142.032 48.5643C141.965 48.4977 141.899 48.4643 141.865 48.4643C141.832 48.431 141.799 48.431 141.765 48.431C141.699 48.431 141.465 48.531 141.099 48.7643C139.565 49.6977 138.099 50.1643 136.665 50.1643C134.999 50.1643 133.599 49.631 132.499 48.5643C131.399 47.4977 130.832 46.1977 130.832 44.5977C130.832 42.9643 131.399 41.631 132.532 40.5977C133.665 39.5643 135.132 39.031 136.932 39.031C137.832 39.031 138.765 39.1977 139.732 39.4977C140.665 39.831 141.199 39.9643 141.265 39.9643C141.332 39.9643 141.432 39.9643 141.499 39.931C141.565 39.931 141.665 39.8977 141.765 39.8643L142.032 39.9977L140.432 42.631Z" fill="white"/>
<path d="M147.567 48.9005C147.567 49.1339 147.6 49.3005 147.7 49.4005C147.767 49.5005 147.934 49.5672 148.167 49.6005V49.9339H144.667V49.6005C144.867 49.5672 145.034 49.4672 145.1 49.4005C145.167 49.3339 145.2 49.1339 145.2 48.9005V40.3339C145.2 40.1005 145.167 39.9339 145.1 39.8339C145.034 39.7339 144.867 39.6672 144.667 39.6339V39.3005H148.167V39.6339C147.934 39.6672 147.8 39.7672 147.7 39.8339C147.634 39.9339 147.567 40.1005 147.567 40.3339V43.2005H153.067V40.3339C153.067 40.1005 153.034 39.9339 152.934 39.8339C152.867 39.7339 152.7 39.6672 152.467 39.6339V39.3005H156V39.6339C155.767 39.6672 155.634 39.7672 155.567 39.8339C155.5 39.9339 155.467 40.1005 155.467 40.3339V48.8672C155.467 49.1005 155.5 49.2672 155.567 49.3672C155.634 49.4672 155.8 49.5339 156 49.5672V49.9005H152.5V49.5672C152.734 49.5339 152.9 49.4339 152.967 49.3672C153.034 49.2672 153.1 49.1005 153.1 48.8672V45.2672H147.6L147.567 48.9005Z" fill="white"/>
<path d="M159.53 39.3545V35.8322H161.253C161.475 35.8322 161.679 35.8783 161.864 35.9706C162.051 36.0629 162.199 36.1965 162.307 36.3715C162.419 36.5433 162.474 36.7533 162.474 37.0015C162.474 37.2497 162.417 37.4613 162.303 37.6363C162.188 37.8113 162.035 37.9449 161.844 38.0372C161.654 38.1263 161.442 38.1708 161.21 38.1708H160.031V37.5074H161.019C161.152 37.5074 161.267 37.4645 161.362 37.3786C161.461 37.2927 161.51 37.1654 161.51 36.9968C161.51 36.8218 161.461 36.6977 161.362 36.6245C161.267 36.5481 161.154 36.5099 161.024 36.5099H160.446V39.3545H159.53ZM161.778 37.727L162.579 39.3545H161.577L160.828 37.727H161.778ZM160.909 41.4545C160.381 41.4545 159.886 41.3558 159.425 41.1586C158.963 40.9613 158.558 40.6877 158.208 40.3377C157.858 39.9877 157.584 39.582 157.387 39.1206C157.189 38.6593 157.091 38.1645 157.091 37.6363C157.091 37.1081 157.189 36.6133 157.387 36.152C157.584 35.6906 157.858 35.2849 158.208 34.9349C158.558 34.5849 158.963 34.3113 159.425 34.114C159.886 33.9168 160.381 33.8181 160.909 33.8181C161.437 33.8181 161.932 33.9168 162.393 34.114C162.855 34.3113 163.26 34.5849 163.61 34.9349C163.96 35.2849 164.234 35.6906 164.431 36.152C164.629 36.6133 164.727 37.1081 164.727 37.6363C164.727 38.1645 164.629 38.6593 164.431 39.1206C164.234 39.582 163.96 39.9877 163.61 40.3377C163.26 40.6877 162.855 40.9613 162.393 41.1586C161.932 41.3558 161.437 41.4545 160.909 41.4545ZM160.909 40.4474C161.431 40.4474 161.903 40.3218 162.327 40.0704C162.753 39.8158 163.092 39.477 163.343 39.0538C163.594 38.6274 163.72 38.1549 163.72 37.6363C163.72 37.1177 163.593 36.6468 163.338 36.2236C163.087 35.7972 162.748 35.4583 162.322 35.207C161.899 34.9524 161.428 34.8252 160.909 34.8252C160.394 34.8252 159.923 34.9524 159.496 35.207C159.07 35.4583 158.731 35.7972 158.48 36.2236C158.228 36.6468 158.103 37.1177 158.103 37.6363C158.103 38.1549 158.228 38.6274 158.48 39.0538C158.731 39.477 159.07 39.8158 159.496 40.0704C159.923 40.3218 160.394 40.4474 160.909 40.4474Z" fill="white"/>
<path d="M45.9661 27.3979L53.6661 14.1313L54.0328 13.5312H54.7328H69.9995H70.6995L71.0328 14.1313L78.7328 27.2646L79.0995 27.8646L78.7661 28.4979L74.9661 35.0979H72.1995L76.3328 27.8979L69.3328 15.9646H55.3995L48.3995 27.9979L52.5995 35.0979H49.7995L45.9661 28.6313L45.6328 28.0312L45.9661 27.3979Z" fill="white"/>
<path d="M0.366667 27.3979L8.06667 14.1313L8.4 13.5312H9.1H24.3667H25.0667L25.4 14.1313L33.1333 27.2646L33.4667 27.8646L33.1333 28.4979L29.3333 35.0979H26.5667L30.7 27.8979L23.7 15.9646H9.8L2.8 27.9979L6.96667 35.0979H4.16667L0.366667 28.6313L0 28.0312L0.366667 27.3979Z" fill="white"/>
<path d="M23.1674 13.8667L30.8674 0.6L31.2341 0H31.9008H47.2008H47.8674L48.2341 0.6L55.9341 13.7333L56.3008 14.3333L55.9341 14.9333L52.1674 21.5667H49.3674L53.5008 14.3333L46.5008 2.4H32.6008L25.6008 14.4667L29.8008 21.5667H27.0008L23.1674 15.1L22.8008 14.4667L23.1674 13.8667Z" fill="white"/>
<path d="M23.1674 15.034L30.8674 28.3007L31.2341 28.9007H31.9008H47.2008H47.8674L48.2341 28.3007L55.9341 15.1673L56.3008 14.5673L55.9341 13.9673L52.1674 7.33398H49.3674L53.5008 14.5673L46.5008 26.5007H32.6008L25.6008 14.434L29.8008 7.33398H27.0008L23.1674 13.834L22.8008 14.434L23.1674 15.034Z" fill="white"/>
</svg>
