<svg width="40" height="37" viewBox="0 0 40 37" fill="none" xmlns="http://www.w3.org/2000/svg">
<path fill-rule="evenodd" clip-rule="evenodd" d="M38.58 22.1661V13.9373C38.58 4.40295 38.58 1 19.79 1C1 1 1 4.40295 1 13.9373V22.1661C1 31.7023 1 35.1053 19.79 35.1053C38.58 35.1053 38.58 31.7023 38.58 22.1661Z" stroke="#2699FB" stroke-width="2" stroke-linecap="round" stroke-linejoin="round"/>
<path fill-rule="evenodd" clip-rule="evenodd" d="M19.7904 12.5195C18.4244 12.5195 18.2944 14.6985 17.4824 15.4696C16.6684 16.2389 14.1424 15.3597 13.7904 16.7258C13.4404 18.0938 15.7144 18.5581 15.9964 19.7309C16.2764 20.9037 14.8884 22.5522 16.0744 23.3745C17.2624 24.193 18.5404 22.3381 19.7904 22.3381C21.0404 22.3381 22.3184 24.193 23.5064 23.3745C24.6944 22.5522 23.3044 20.9037 23.5844 19.7309C23.8664 18.5581 26.1404 18.0938 25.7904 16.7258C25.4384 15.3597 22.9124 16.2389 22.0984 15.4696C21.2864 14.6985 21.1564 12.5195 19.7904 12.5195Z" stroke="#2699FB" stroke-width="2" stroke-linecap="round" stroke-linejoin="round"/>
</svg>
