<svg width="28" height="28" viewBox="0 0 28 28" fill="none" xmlns="http://www.w3.org/2000/svg">
<path d="M19.844 9.031H18.378C18.059 9.031 17.756 9.184 17.569 9.447L12.657 16.26L10.432 13.173C10.3397 13.0446 10.2182 12.94 10.0775 12.8677C9.93691 12.7954 9.78113 12.7574 9.623 12.757H8.157C7.954 12.757 7.835 12.988 7.954 13.154L11.848 18.554C11.94 18.6825 12.0614 18.787 12.202 18.859C12.343 18.931 12.498 18.969 12.656 18.969C12.814 18.969 12.97 18.931 13.11 18.859C13.2504 18.7867 13.3717 18.6822 13.464 18.554L20.045 9.429C20.072 9.39185 20.0883 9.34799 20.092 9.30221C20.0957 9.25644 20.0867 9.21053 20.0661 9.16951C20.0454 9.1285 20.0138 9.09397 19.9748 9.06971C19.9358 9.04545 19.8909 9.0324 19.845 9.032L19.844 9.031ZM14 0C6.269 0 0 6.269 0 14C0 21.731 6.269 28 14 28C21.731 28 28 21.731 28 14C28 6.269 21.731 0 14 0ZM14 25.625C10.9173 25.6237 7.96117 24.3985 5.78135 22.2187C3.60152 20.0388 2.37633 17.0827 2.375 14C2.37633 10.9173 3.60152 7.96117 5.78135 5.78135C7.96117 3.60152 10.9173 2.37633 14 2.375C17.0827 2.37633 20.0388 3.60152 22.2187 5.78135C24.3985 7.96117 25.6237 10.9173 25.625 14C25.6237 17.0827 24.3985 20.0388 22.2187 22.2187C20.0388 24.3985 17.0827 25.6237 14 25.625Z" fill="#2699FB"/>
</svg>
